<svg id="Layer_1" data-name="Layer 1" xmlns="http://www.w3.org/2000/svg" xmlns:xlink="http://www.w3.org/1999/xlink" viewBox="0 0 48 48"><defs><style>.cls-1{fill:none;}.cls-2{clip-path:url(#clip-path);}.cls-3{fill:#fff;}</style><clipPath id="clip-path"><rect class="cls-1" x="-764" y="296" width="1700" height="964"/></clipPath></defs><title>map_expand</title><rect class="cls-3" x="12" y="32" width="4" height="4"/><rect class="cls-3" x="16" y="28" width="4" height="4"/><rect class="cls-3" x="20" y="24" width="4" height="4"/><polygon class="cls-3" points="32 28 32 20 32 16 20 16 20 20 28 20 28 28 32 28"/><polygon class="cls-3" points="24 44 4 44 4 24 16 24 16 20 0 20 0 24 0 44 0 48 28 48 28 44 28 32 24 32 24 44"/><polygon class="cls-3" points="44 0 8 0 4 0 4 4 4 16 8 16 8 4 44 4 44 40 32 40 32 44 44 44 48 44 48 0 44 0"/></svg>