<svg xmlns="http://www.w3.org/2000/svg" viewBox="0 0 128 128"><defs><style>.cls-1{fill:#1b1f21;}.cls-2{fill:#7d3833;}.cls-3{fill:#ab5130;}.cls-4{fill:#f0b541;}.cls-5{fill:#0095e9;}.cls-6{fill:#2ce8f5;}.cls-7{fill:#cf752b;}.cls-8{fill:#f5ffe8;}</style></defs><title>bot</title><g id="Layer_3" data-name="Layer 3"><rect class="cls-1" x="8" y="56" width="8" height="32"/><rect class="cls-1" x="112" y="56" width="8" height="32"/><rect class="cls-1" x="16" y="88" width="16" height="8"/><rect class="cls-1" x="24" y="40" width="16" height="8"/><rect class="cls-1" x="48" y="112" width="32" height="8"/><rect class="cls-1" x="56" y="8" width="16" height="8"/><rect class="cls-1" x="96" y="88" width="16" height="8"/><rect class="cls-1" x="88" y="96" width="8" height="8"/><rect class="cls-1" x="80" y="104" width="8" height="8"/><rect class="cls-1" x="40" y="104" width="8" height="8"/><rect class="cls-1" x="32" y="96" width="8" height="8"/><rect class="cls-1" x="40" y="32" width="8" height="8"/><rect class="cls-1" x="48" y="16" width="8" height="16"/><rect class="cls-1" x="72" y="16" width="8" height="16"/><rect class="cls-1" x="80" y="32" width="8" height="8"/><rect class="cls-1" x="104" y="48" width="8" height="8"/><rect class="cls-1" x="16" y="48" width="8" height="8"/><rect class="cls-1" x="88" y="40" width="16" height="8"/><rect class="cls-2" x="24" y="48" width="8" height="40"/><rect class="cls-2" x="96" y="48" width="8" height="40"/><rect class="cls-2" x="72" y="32" width="8" height="16"/><rect class="cls-2" x="56" y="48" width="16" height="8"/><rect class="cls-2" x="48" y="32" width="8" height="16"/><rect class="cls-3" x="56" y="32" width="16" height="8"/><rect class="cls-3" x="80" y="40" width="8" height="8"/><rect class="cls-3" x="88" y="48" width="8" height="8"/><rect class="cls-3" x="32" y="48" width="8" height="8"/><rect class="cls-3" x="40" y="40" width="8" height="8"/><rect class="cls-3" x="32" y="80" width="8" height="16"/><rect class="cls-3" x="40" y="96" width="8" height="8"/><rect class="cls-3" x="48" y="104" width="32" height="8"/><rect class="cls-3" x="80" y="96" width="8" height="8"/><rect class="cls-3" x="88" y="80" width="8" height="16"/><rect class="cls-3" x="104" y="80" width="8" height="8"/><rect class="cls-3" x="16" y="80" width="8" height="8"/><rect class="cls-4" x="56" y="16" width="16" height="8"/><rect class="cls-4" x="56" y="56" width="16" height="8"/><rect class="cls-4" x="56" y="96" width="16" height="8"/><rect class="cls-4" x="36" y="76" width="16" height="8" transform="translate(-36 124) rotate(-90)"/><rect class="cls-4" x="76" y="76" width="16" height="8" transform="translate(4 164) rotate(-90)"/><rect class="cls-4" x="72" y="64" width="8" height="8" transform="translate(8 144) rotate(-90)"/><rect class="cls-4" x="48" y="64" width="8" height="8" transform="translate(-16 120) rotate(-90)"/><rect class="cls-4" x="48" y="88" width="8" height="8" transform="translate(-40 144) rotate(-90)"/><rect class="cls-4" x="72" y="88" width="8" height="8" transform="translate(-16 168) rotate(-90)"/><rect class="cls-5" x="16" y="72" width="8" height="8" transform="translate(-56 96) rotate(-90)"/><rect class="cls-6" x="12" y="60" width="16" height="8" transform="translate(-44 84) rotate(-90)"/><rect class="cls-3" x="44" y="76" width="16" height="8" transform="translate(-28 132) rotate(-90)"/><rect class="cls-3" x="68" y="76" width="16" height="8" transform="translate(-4 156) rotate(-90)"/><rect class="cls-3" x="56" y="88" width="16" height="8" transform="translate(128 184) rotate(180)"/><rect class="cls-5" x="56" y="80" width="8" height="8" transform="translate(120 168) rotate(180)"/><rect class="cls-5" x="64" y="72" width="8" height="8" transform="translate(136 152) rotate(180)"/><rect class="cls-6" x="64" y="80" width="8" height="8" transform="translate(136 168) rotate(180)"/><rect class="cls-6" x="56" y="72" width="8" height="8" transform="translate(120 152) rotate(180)"/><rect class="cls-6" x="100" y="60" width="16" height="8" transform="translate(44 172) rotate(-90)"/><rect class="cls-6" x="60" y="36" width="8" height="16" transform="translate(20 108) rotate(-90)"/><polygon class="cls-7" points="88 56 88 48 80 48 72 48 72 64 80 64 80 72 88 72 88 80 96 80 96 56 88 56"/><polygon class="cls-7" points="48 48 40 48 40 56 32 56 32 80 40 80 40 72 48 72 48 64 56 64 56 48 48 48"/><rect class="cls-7" x="48" y="96" width="8" height="8"/><rect class="cls-7" x="40" y="88" width="8" height="8"/><rect class="cls-7" x="80" y="88" width="8" height="8"/><rect class="cls-7" x="56" y="64" width="16" height="8"/><rect class="cls-7" x="72" y="96" width="8" height="8"/><rect class="cls-7" x="56" y="24" width="16" height="8"/><rect class="cls-5" x="104" y="72" width="8" height="8" transform="translate(32 184) rotate(-90)"/><rect class="cls-8" x="8" y="88" width="8" height="8"/><rect class="cls-8" x="32" y="104" width="8" height="8"/><rect class="cls-8" x="40" y="112" width="8" height="8"/><rect class="cls-8" x="48" y="120" width="32" height="8"/><rect class="cls-8" x="16" y="96" width="16" height="8"/><rect class="cls-8" x="112" y="88" width="8" height="8"/><rect class="cls-8" x="112" y="48" width="8" height="8"/><rect class="cls-8" x="104" y="40" width="8" height="8"/><rect class="cls-8" x="16" y="40" width="8" height="8"/><rect class="cls-8" x="8" y="48" width="8" height="8"/><rect class="cls-8" x="72" y="8" width="8" height="8"/><rect class="cls-8" x="48" y="8" width="8" height="8"/><rect class="cls-8" x="40" y="16" width="8" height="16"/><rect class="cls-8" x="24" y="32" width="16" height="8"/><rect class="cls-8" x="56" width="16" height="8"/><polygon class="cls-8" points="80 32 88 32 88 24 88 16 80 16 80 24 80 32"/><rect class="cls-8" x="88" y="32" width="16" height="8"/><rect class="cls-8" x="120" y="56" width="8" height="32"/><rect class="cls-8" y="56" width="8" height="32"/><rect class="cls-8" x="88" y="104" width="8" height="8"/><rect class="cls-8" x="80" y="112" width="8" height="8"/><rect class="cls-8" x="96" y="96" width="16" height="8"/></g></svg>