<svg id="Layer_1" data-name="Layer 1" xmlns="http://www.w3.org/2000/svg" viewBox="0 0 112 152"><defs><style>.cls-1{fill:#e64539;}.cls-2{fill:#14182e;}.cls-3{fill:#2f5753;}.cls-4{fill:#3b7d4f;}.cls-5{fill:#ffc2a1;}.cls-6{fill:#bd6a62;}.cls-7{fill:#ad2f45;}.cls-8{fill:#ff8933;}</style></defs><title>npc</title><polygon class="cls-1" points="80 128 80 96 32 96 32 128 24 128 24 136 32 136 32 144 80 144 80 136 88 136 88 128 80 128"/><rect class="cls-2" x="72" width="32" height="8"/><rect class="cls-2" x="104" y="8" width="8" height="32"/><polygon class="cls-2" points="104 48 104 40 96 40 88 40 88 48 88 64 96 64 96 48 104 48"/><rect class="cls-2" x="96" y="64" width="8" height="16"/><polygon class="cls-2" points="88 128 88 136 96 136 96 128 104 128 104 120 88 120 88 128"/><rect class="cls-2" x="80" y="104" width="8" height="16"/><polygon class="cls-2" points="104 112 104 120 112 120 112 104 104 104 104 96 96 96 96 112 104 112"/><polygon class="cls-2" points="88 88 80 88 80 96 88 96 96 96 96 88 96 80 88 80 88 88"/><rect class="cls-2" x="8" width="32" height="8"/><rect class="cls-2" y="8" width="8" height="32"/><polygon class="cls-2" points="16 48 16 64 24 64 24 48 24 40 16 40 8 40 8 48 16 48"/><rect class="cls-2" x="8" y="64" width="8" height="16"/><polygon class="cls-2" points="16 128 16 136 24 136 24 128 24 120 8 120 8 128 16 128"/><rect class="cls-2" x="24" y="104" width="8" height="16"/><polygon class="cls-2" points="8 104 0 104 0 120 8 120 8 112 16 112 16 96 8 96 8 104"/><polygon class="cls-2" points="16 96 24 96 32 96 32 88 24 88 24 80 16 80 16 88 16 96"/><polygon class="cls-2" points="64 24 48 24 48 8 40 8 40 24 40 32 48 32 64 32 72 32 72 24 72 8 64 8 64 24"/><rect class="cls-2" x="64" y="72" width="8" height="8"/><rect class="cls-2" x="40" y="72" width="8" height="8"/><rect class="cls-2" x="48" y="144" width="16" height="8"/><polygon class="cls-3" points="72 8 72 40 80 40 80 48 88 48 88 40 104 40 104 8 72 8"/><polygon class="cls-3" points="32 48 32 40 40 40 40 8 8 8 8 40 24 40 24 48 32 48"/><rect class="cls-3" x="32" y="64" width="16" height="8"/><rect class="cls-3" x="64" y="64" width="16" height="8"/><polygon class="cls-4" points="80 48 80 40 72 40 72 32 40 32 40 40 32 40 32 48 24 48 24 80 32 80 32 64 40 64 40 56 72 56 72 64 80 64 80 80 88 80 88 48 80 48"/><rect class="cls-5" x="16" y="64" width="8" height="16"/><rect class="cls-5" x="88" y="64" width="8" height="16"/><polygon class="cls-5" points="80 72 72 72 72 80 64 80 64 64 72 64 72 56 40 56 40 64 48 64 48 80 40 80 40 72 32 72 32 88 40 88 40 96 48 96 64 96 72 96 72 88 80 88 80 72"/><rect class="cls-5" x="80" y="96" width="16" height="8"/><rect class="cls-5" x="88" y="112" width="16" height="8"/><rect class="cls-5" x="16" y="96" width="16" height="8"/><rect class="cls-5" x="8" y="112" width="16" height="8"/><rect class="cls-6" x="24" y="80" width="8" height="8"/><rect class="cls-6" x="32" y="88" width="8" height="8"/><rect class="cls-6" x="48" y="96" width="16" height="8"/><rect class="cls-6" x="72" y="88" width="8" height="8"/><rect class="cls-6" x="80" y="80" width="8" height="8"/><rect class="cls-6" x="88" y="104" width="8" height="8"/><rect class="cls-6" x="16" y="104" width="8" height="8"/><rect class="cls-7" x="32" y="96" width="8" height="8"/><rect class="cls-7" x="72" y="96" width="8" height="8"/><rect class="cls-8" x="48" y="104" width="16" height="8"/><rect class="cls-8" x="48" y="120" width="16" height="8"/><rect class="cls-8" x="40" y="136" width="32" height="8"/><rect class="cls-8" x="72" y="128" width="8" height="8"/><rect class="cls-8" x="32" y="128" width="8" height="8"/><rect class="cls-8" x="24" y="120" width="8" height="8"/><rect class="cls-8" x="80" y="120" width="8" height="8"/><rect class="cls-8" x="72" y="24" width="8" height="8"/><rect class="cls-8" x="80" y="32" width="8" height="8"/><rect class="cls-8" x="24" y="32" width="8" height="8"/><rect class="cls-8" x="32" y="24" width="8" height="8"/><rect class="cls-7" x="24" y="136" width="8" height="8"/><rect class="cls-7" x="32" y="144" width="16" height="8"/><rect class="cls-7" x="64" y="144" width="16" height="8"/><rect class="cls-7" x="80" y="136" width="8" height="8"/></svg>