<svg id="Layer_1" data-name="Layer 1" xmlns="http://www.w3.org/2000/svg" viewBox="0 0 112 128"><defs><style>.cls-1{fill:#14182e;}.cls-2{fill:#ffc2a1;}.cls-3{fill:#686f99;}.cls-4{fill:#404973;}.cls-5{fill:#bd6a62;}.cls-6{fill:#ff5277;}.cls-7{fill:#dfe0e8;}.cls-8{fill:#cc2f7b;}.cls-9{fill:#ffee83;}</style></defs><title>npc</title><rect class="cls-1" x="16" y="16" width="8" height="32"/><rect class="cls-1" x="88" y="16" width="8" height="32"/><rect class="cls-1" x="80" y="8" width="8" height="8"/><rect class="cls-1" x="24" y="8" width="8" height="8"/><rect class="cls-1" x="32" width="48" height="8"/><rect class="cls-1" x="104" y="88" width="8" height="16"/><rect class="cls-1" x="96" y="80" width="8" height="8"/><rect class="cls-1" x="8" y="80" width="8" height="8"/><rect class="cls-1" x="32" y="120" width="16" height="8"/><rect class="cls-1" x="48" y="112" width="16" height="8"/><rect class="cls-1" x="64" y="120" width="16" height="8"/><rect class="cls-1" x="96" y="48" width="8" height="16"/><rect class="cls-1" x="8" y="48" width="8" height="16"/><rect class="cls-1" x="16" y="64" width="8" height="16"/><rect class="cls-1" x="88" y="64" width="8" height="16"/><rect class="cls-1" x="64" y="56" width="8" height="8"/><rect class="cls-1" x="40" y="56" width="8" height="8"/><polygon class="cls-1" points="40 96 40 88 32 88 24 88 24 104 8 104 8 112 24 112 24 120 32 120 32 96 40 96"/><rect class="cls-1" y="88" width="8" height="16"/><polygon class="cls-1" points="88 88 80 88 72 88 72 96 80 96 80 120 88 120 88 112 104 112 104 104 88 104 88 88"/><rect class="cls-2" x="88" y="48" width="8" height="16"/><rect class="cls-2" x="16" y="48" width="8" height="16"/><rect class="cls-2" x="16" y="80" width="8" height="8"/><rect class="cls-2" x="88" y="80" width="8" height="8"/><polygon class="cls-2" points="72 64 64 64 64 48 72 48 72 40 40 40 40 48 48 48 48 64 40 64 40 56 32 56 32 72 40 72 40 80 48 80 64 80 72 80 72 72 80 72 80 56 72 56 72 64"/><polygon class="cls-2" points="96 88 96 96 88 96 88 104 96 104 104 104 104 88 96 88"/><polygon class="cls-2" points="8 104 16 104 24 104 24 96 16 96 16 88 8 88 8 104"/><polygon class="cls-3" points="80 32 80 8 32 8 32 32 40 32 40 40 72 40 72 32 80 32"/><polygon class="cls-3" points="80 32 80 40 72 40 72 48 80 48 80 56 88 56 88 32 80 32"/><rect class="cls-3" x="80" y="64" width="8" height="16"/><polygon class="cls-3" points="32 32 24 32 24 56 32 56 32 48 40 48 40 40 32 40 32 32"/><rect class="cls-3" x="24" y="64" width="8" height="16"/><rect class="cls-3" x="64" y="112" width="16" height="8"/><rect class="cls-3" x="32" y="112" width="16" height="8"/><rect class="cls-4" x="24" y="16" width="8" height="16"/><rect class="cls-4" x="80" y="16" width="8" height="16"/><rect class="cls-4" x="80" y="56" width="8" height="8"/><rect class="cls-4" x="32" y="48" width="16" height="8"/><rect class="cls-4" x="64" y="48" width="16" height="8"/><rect class="cls-4" x="72" y="32" width="8" height="8"/><rect class="cls-4" x="32" y="32" width="8" height="8"/><rect class="cls-4" x="24" y="56" width="8" height="8"/><rect class="cls-5" x="72" y="72" width="8" height="8"/><rect class="cls-5" x="32" y="72" width="8" height="8"/><rect class="cls-5" x="16" y="88" width="8" height="8"/><rect class="cls-5" x="88" y="88" width="8" height="8"/><rect class="cls-5" x="48" y="80" width="16" height="8"/><rect class="cls-6" x="32" y="80" width="8" height="8"/><rect class="cls-6" x="72" y="80" width="8" height="8"/><rect class="cls-6" x="64" y="88" width="8" height="8"/><rect class="cls-6" x="40" y="88" width="8" height="8"/><polygon class="cls-6" points="48 104 40 104 40 112 48 112 64 112 72 112 72 104 64 104 64 96 48 96 48 104"/><rect class="cls-7" x="24" y="80" width="8" height="8"/><rect class="cls-7" x="40" y="80" width="8" height="8"/><rect class="cls-7" x="64" y="80" width="8" height="8"/><rect class="cls-7" x="80" y="80" width="8" height="8"/><rect class="cls-7" x="48" y="88" width="16" height="8"/><rect class="cls-8" x="32" y="96" width="8" height="16"/><rect class="cls-8" x="72" y="96" width="8" height="16"/><rect class="cls-9" x="64" y="96" width="8" height="8"/><rect class="cls-9" x="40" y="96" width="8" height="8"/></svg>