<svg id="Layer_1" data-name="Layer 1" xmlns="http://www.w3.org/2000/svg" viewBox="0 0 112 128"><defs><style>.cls-1{fill:#ffc2a1;}.cls-2{fill:#14182e;}.cls-3{fill:#f5ffe8;}.cls-4{fill:#e64539;}.cls-5{fill:#ff8933;}.cls-6{fill:#bd6a62;}.cls-7{fill:#dfe0e8;}.cls-8{fill:#a3a7c2;}.cls-9{fill:#0095e9;}</style></defs><title>npc</title><polygon class="cls-1" points="96 88 96 96 88 96 88 104 96 104 104 104 104 88 96 88"/><rect class="cls-1" x="32" y="32" width="8" height="8"/><rect class="cls-1" x="16" y="48" width="8" height="16"/><rect class="cls-1" x="88" y="48" width="8" height="16"/><polygon class="cls-1" points="8 104 16 104 24 104 24 96 16 96 16 88 8 88 8 104"/><rect class="cls-1" x="16" y="80" width="8" height="8"/><rect class="cls-1" x="88" y="80" width="8" height="8"/><rect class="cls-1" x="32" y="112" width="16" height="8"/><rect class="cls-1" x="64" y="112" width="16" height="8"/><rect class="cls-1" x="48" y="72" width="16" height="8"/><polygon class="cls-1" points="72 56 64 56 64 40 88 40 88 32 72 32 72 16 64 16 64 8 48 8 48 16 40 16 40 32 48 32 48 56 40 56 40 48 32 48 32 56 32 64 32 72 40 72 40 64 48 64 64 64 72 64 72 72 80 72 80 64 80 56 80 48 72 48 72 56"/><rect class="cls-2" x="32" y="120" width="16" height="8"/><rect class="cls-2" x="48" y="112" width="16" height="8"/><rect class="cls-2" x="32" width="48" height="8"/><rect class="cls-2" x="64" y="120" width="16" height="8"/><polygon class="cls-2" points="40 112 40 104 32 104 32 88 24 88 24 104 8 104 8 112 24 112 24 120 32 120 32 112 40 112"/><rect class="cls-2" x="16" y="16" width="8" height="32"/><polygon class="cls-2" points="88 88 80 88 80 104 72 104 72 112 80 112 80 120 88 120 88 112 104 112 104 104 88 104 88 88"/><rect class="cls-2" x="104" y="88" width="8" height="16"/><rect class="cls-2" y="88" width="8" height="16"/><rect class="cls-2" x="8" y="80" width="8" height="8"/><rect class="cls-2" x="96" y="80" width="8" height="8"/><polygon class="cls-2" points="32 80 32 72 24 72 24 64 16 64 16 80 24 80 32 80"/><rect class="cls-2" x="24" y="8" width="8" height="8"/><rect class="cls-2" x="80" y="8" width="8" height="8"/><rect class="cls-2" x="8" y="48" width="8" height="16"/><rect class="cls-2" x="96" y="48" width="8" height="16"/><polygon class="cls-2" points="88 72 80 72 80 80 88 80 96 80 96 64 88 64 88 72"/><rect class="cls-2" x="88" y="16" width="8" height="32"/><rect class="cls-2" x="40" y="48" width="8" height="8"/><rect class="cls-2" x="64" y="48" width="8" height="8"/><rect class="cls-3" x="40" y="32" width="8" height="8"/><rect class="cls-4" x="24" y="16" width="8" height="8"/><rect class="cls-4" x="32" y="40" width="16" height="8"/><rect class="cls-4" x="64" y="40" width="16" height="8"/><rect class="cls-4" x="32" y="8" width="8" height="8"/><rect class="cls-4" x="72" y="8" width="8" height="8"/><rect class="cls-4" x="80" y="16" width="8" height="8"/><rect class="cls-4" x="80" y="48" width="8" height="8"/><rect class="cls-4" x="24" y="48" width="8" height="8"/><rect class="cls-4" x="24" y="64" width="8" height="8"/><rect class="cls-4" x="80" y="64" width="8" height="8"/><polygon class="cls-4" points="72 64 40 64 40 72 32 72 32 80 48 80 48 72 64 72 64 80 80 80 80 72 72 72 72 64"/><polygon class="cls-5" points="32 24 24 24 24 48 32 48 32 32 40 32 40 16 32 16 32 24"/><polygon class="cls-5" points="80 24 80 16 72 16 72 32 80 32 80 48 88 48 88 24 80 24"/><rect class="cls-5" x="24" y="56" width="8" height="8"/><rect class="cls-5" x="80" y="56" width="8" height="8"/><rect class="cls-6" x="40" y="8" width="8" height="8"/><rect class="cls-6" x="64" y="8" width="8" height="8"/><rect class="cls-6" x="88" y="88" width="8" height="8"/><rect class="cls-6" x="80" y="80" width="8" height="8"/><rect class="cls-6" x="24" y="80" width="8" height="8"/><rect class="cls-6" x="16" y="88" width="8" height="8"/><rect class="cls-6" x="48" y="80" width="16" height="8"/><rect class="cls-7" x="40" y="88" width="32" height="16"/><rect class="cls-7" x="32" y="80" width="8" height="8"/><rect class="cls-7" x="72" y="80" width="8" height="8"/><rect class="cls-8" x="32" y="88" width="8" height="16"/><rect class="cls-8" x="72" y="88" width="8" height="16"/><rect class="cls-8" x="64" y="80" width="8" height="8"/><rect class="cls-8" x="40" y="80" width="8" height="8"/><rect class="cls-9" x="40" y="104" width="8" height="8"/><rect class="cls-9" x="64" y="104" width="8" height="8"/><rect class="cls-9" x="48" y="104" width="16" height="8"/></svg>