<svg id="Layer_1" data-name="Layer 1" xmlns="http://www.w3.org/2000/svg" viewBox="0 0 568 232"><defs><style>.cls-1{fill:#3a3f5e;}.cls-2{fill:#4c6885;}</style></defs><title>dialog_box_inside</title><polygon class="cls-1" points="568 4 568 228 564 228 564 232 20 232 20 228 16 228 16 126 12 126 12 122 8 122 8 118 4 118 4 114 8 114 8 110 12 110 12 106 16 106 16 4 20 4 20 0 564 0 564 4 568 4"/><rect class="cls-2" x="8" y="106" width="4" height="4"/><rect class="cls-2" x="12" y="102" width="4" height="4"/><rect class="cls-2" x="16" y="4" width="4" height="98"/><rect class="cls-2" x="4" y="110" width="4" height="4"/><rect class="cls-2" y="114" width="4" height="4"/><rect class="cls-2" x="4" y="118" width="4" height="4"/><rect class="cls-2" x="8" y="122" width="4" height="4"/><rect class="cls-2" x="12" y="126" width="4" height="4"/><rect class="cls-2" x="564" y="4" width="4" height="224"/><rect class="cls-2" x="20" y="228" width="544" height="4"/><rect class="cls-2" x="20" width="544" height="4"/><rect class="cls-2" x="16" y="130" width="4" height="98"/></svg>