<svg id="Layer_1" data-name="Layer 1" xmlns="http://www.w3.org/2000/svg" viewBox="0 0 736 256"><defs><style>.cls-1{fill:#fff;}.cls-2{fill:#2b2b45;}.cls-3{fill:#3a3f5e;}.cls-4{fill:#4c6885;}</style></defs><title>dialog_box</title><path class="cls-1" d="M732,0H4V4H732ZM4,256H732v-4H4ZM0,4V252H4V4ZM732,4V252h4V4Z"/><rect class="cls-2" x="4" y="4" width="728" height="248"/><polygon class="cls-3" points="724 16 724 240 720 240 720 244 176 244 176 240 172 240 172 138 168 138 168 134 164 134 164 130 160 130 160 126 164 126 164 122 168 122 168 118 172 118 172 16 176 16 176 12 720 12 720 16 724 16"/><rect class="cls-4" x="164" y="118" width="4" height="4"/><rect class="cls-4" x="168" y="114" width="4" height="4"/><rect class="cls-4" x="172" y="16" width="4" height="98"/><rect class="cls-4" x="160" y="122" width="4" height="4"/><rect class="cls-4" x="156" y="126" width="4" height="4"/><rect class="cls-4" x="160" y="130" width="4" height="4"/><rect class="cls-4" x="164" y="134" width="4" height="4"/><rect class="cls-4" x="168" y="138" width="4" height="4"/><rect class="cls-4" x="720" y="16" width="4" height="224"/><rect class="cls-4" x="176" y="240" width="544" height="4"/><rect class="cls-4" x="176" y="12" width="544" height="4"/><rect class="cls-4" x="172" y="142" width="4" height="98"/></svg>