<svg id="Layer_1" data-name="Layer 1" xmlns="http://www.w3.org/2000/svg" xmlns:xlink="http://www.w3.org/1999/xlink" viewBox="0 0 395.66 111.97"><defs><style>.cls-1{fill:none;}.cls-2{fill:#97cf26;}.cls-3{fill:#a169f7;}.cls-4{fill:#ff6163;}.cls-5{fill:#0af;}.cls-6{clip-path:url(#clip-path);}</style><clipPath id="clip-path"><polyline class="cls-1" points="-626.14 494.81 -626.14 -100.47 215.75 -100.47 215.75 494.81"/></clipPath></defs><title>avito_logo</title><circle class="cls-2" cx="81.7" cy="81.7" r="30.27" transform="translate(-5.59 157.41) rotate(-85.93)"/><circle class="cls-3" cx="24.86" cy="81.7" r="14.05"/><circle class="cls-4" cx="81.7" cy="24.86" r="19.45"/><circle class="cls-5" cx="24.86" cy="24.86" r="24.86"/><path d="M177.12,16.25H165.71L136.63,95.38h15.75l5.56-15.17h27l5.51,15,.08.15H206.2ZM162.36,68.34l9.12-24.72,9.11,24.72Z"/><path d="M245.11,41.31l-14.44,39.3-14.44-39.3H201.45L221.3,95.38H240l19.84-54.07H245.17"/><path d="M266.27,41.31h14.51V95.38H266.27Z"/><circle cx="273.46" cy="25.92" r="9.5"/><path d="M332.87,53.17V42h-17.8V26.8H300.56V41.31H288.69V53.17h11.87V76.45c0,12,5.92,20,21,20a31.13,31.13,0,0,0,10.93-2.17l-1.76-11.67a24.89,24.89,0,0,1-6.37.85c-4.3,0-9.3-1.91-9.3-7.91V53.17h17.8"/><path d="M366.71,83.22a14.58,14.58,0,1,1,14.9-14.57,14.74,14.74,0,0,1-14.9,14.57m0-43.06c-16,0-28.95,12.66-28.95,28.29s13,28.29,28.95,28.29,29-12.66,29-28.29-13-28.29-29-28.29"/></svg>