<svg id="Layer_1" data-name="Layer 1" xmlns="http://www.w3.org/2000/svg" viewBox="0 0 281.17 122.65"><defs><style>.cls-1{fill:#e74315;}</style></defs><title>belka_logo</title><path class="cls-1" d="M109.89,14c0-.06-52.47-14.79-57.11-13.94C32.4,3.76.63,12.58.12,13.86l0,.09C-.54,16,2.16,58.53,4,69.34c0,0,1.72,8.2,7.91,21.51,4.49,9.61,9.51,15.23,18.5,20.6A107.78,107.78,0,0,0,55.84,122.6a.68.68,0,0,0,.23.05,1,1,0,0,0,.23-.05c14.49-5.18,36.61-21,41.86-26.2,5.78-5.73,8.59-18.11,10-25,2.43-11.65,3.31-24.2,3.49-36.09.13-6.74-.64-17.61-1.78-21.38m-6.71,26.35a170.8,170.8,0,0,1-3.05,31.43c-1.25,5.95-5.06,19.82-13.19,25.85-18,13.33-32.08,18.71-32,18.68l-.08,0a.39.39,0,0,1-.26,0h-.06a94.62,94.62,0,0,1-22.17-9.71C24.52,101.92,20.15,97,16.24,88.65c-5.4-11.58-6.9-18.72-6.9-18.72C7.78,60.52,5.42,23.47,6,21.68l0-.14C6.47,20.43,37.37,9.61,55.43,9.59c2.17,0,25.38,4.78,25.38,4.78s20.8,7.34,20.8,7.32h0A145.22,145.22,0,0,1,103.18,40.33Z"/><path class="cls-1" d="M64.93,41.6a2.28,2.28,0,1,0,2.27,2.27,2.27,2.27,0,0,0-2.27-2.27"/><path class="cls-1" d="M74.54,43a2.07,2.07,0,1,0,2.07-2.07A2.07,2.07,0,0,0,74.54,43"/><path class="cls-1" d="M79.81,93.36a27.24,27.24,0,0,0-.25-6A14.87,14.87,0,0,0,77,81.42l-.23-12.18c1.9,2.26,3.6,4.22,4,4.05a2.57,2.57,0,0,0,1.65-2.15c0-1-3-7.56-5.79-10.65l-.11-5.66,4.75-9.25-.65-1.75A3.65,3.65,0,1,1,77,39.53a3.6,3.6,0,0,1,2.32.85L73.66,25,70.83,36l-5.78-.51L61.58,22.86,53.89,60.14c-3.15,2.72-7,8.56-7.08,9.56a2.58,2.58,0,0,0,1.33,2.37c.31.2,2-1.17,3.89-2.9L48.1,88.24l-6-15.77S58.24,33.91,58.37,32.76s-.9-5-1.67-6.68-10-9.12-13-9.63-22,9.89-22.6,11.17S18.7,38.4,20,40.72,30,46.24,30.64,46s1.8-3.33,2.44-3.46,5.39,3.72,5.39,3.72S25,72.31,25.35,74.23,41,94.91,41.92,95.62s7,.56,7,.56l-2.44,6.66h2l6.69-8.06h15L82.76,98l1-.9ZM64.94,48.22a4.14,4.14,0,1,1,4.33-4.14,4.23,4.23,0,0,1-4.33,4.14m5.19.63,1-.74a3,3,0,0,0,2,1.11,2.32,2.32,0,0,0,1.73-1l1,.62a3.46,3.46,0,0,1-2.72,1.61h-.09a4.18,4.18,0,0,1-2.93-1.56"/><path d="M258.06,98.35a.56.56,0,0,0,.38-.15,1.09,1.09,0,0,1,.67-.39v-8.9l-19.55-.4L252,84.62l.33-5.79-11-2.46,16.43-3.63V66a.48.48,0,0,0-.44-.46c-.08,0-.2,0-.36-.29h-.78c-3.06,0-20.22-.17-22.29-.27a.62.62,0,0,0-.43.16.58.58,0,0,0-.16.43c.28,3.48.36,31.4.71,32a.66.66,0,0,0,.23.21c.22.11,21.62.54,23.77.62h0"/><path d="M234.34,99.26a.08.08,0,0,0,0,0c-.44-1.11-11.81-31.81-12.47-33.71l-.42-1.21a.58.58,0,0,0-.51-.39.61.61,0,0,0-.56.32c-1.22,2.43-7.95,16.58-8.61,18.11-.92-2.63-5.59-14.55-6.72-18.06a.58.58,0,0,0-1.08-.06C203.37,65.47,189.2,95.8,188,98a.57.57,0,0,0,.46.84l9.74.06,5.23-11.05,3.27,9.9,7.81.53,5.25-8.17,4.79,9.79,9.17.28h.17a.86.86,0,0,0,.28-.11.55.55,0,0,0,.14-.77"/><path d="M191.74,97.81c-1.19-3.25-15.85-30.11-16.44-31.36a.51.51,0,0,0-.47-.31.6.6,0,0,0-.5.27C172.17,70,161.6,93,159.53,97.3a.57.57,0,0,0,.45.8c2.21.21,7.4.12,7.4.12a.55.55,0,0,0,.54-.35l1.27-3.09h11.74l2.29,3.61a.53.53,0,0,0,.46.26c2.39.07,6.54,0,6.54,0,2,0,1.35-.18,1.46-.32a.61.61,0,0,0,.06-.54M174.12,82l4.33,7.35-7.18-.29Z"/><path d="M279.84,82.54c-.55-.42-6.21-4.71-7.57-6.07-1-1-1.47-3.15-.65-4.32,1.54-2.2,9.12-.22,9.12-.22.05-2,.11-10.44.11-10.7,0-1.43-.16-1.65-1.42-2-.25-.07-.55-.15-.88-.27-2.09-.71-11.12-.71-14,1.32-1.23.85-2,2.9-2.36,4.1-.79,2.35-1.46,4.11-.29,6.67.89,2,9.87,10.56,8.82,12.51a7.85,7.85,0,0,1-3.39,3.57c-1.35.83-5.92.21-5.89.37,0,0,.14,10.7.38,11.58,0,0,0,.08,0,.13.06.23,1.45.42,1.6.44s4.88-.2,4.88-.2l2.23-.13c1.85-.06,9.57-2.81,10.15-5s.86-10.5-.86-11.75"/><path d="M162,77.77c-2.49-.46-10.89-1.8-12.68-2.11a.54.54,0,0,0-.65.47l0,.23c-.34,2.55-.39,3.75-.16,4.27s5.08,2.41,5.63,2.64c.32.13.64.25,1,.4-.94.1-4.27.12-4.84.11-2.93-.22-7-.77-8.73-2s-1.38-2.11-1.19-4.79c.26-3.69,1.33-5.45,4.6-6.21a51.21,51.21,0,0,1,11.74-1.56h0a.54.54,0,0,0,.55-.55c0-.06-.27-3.55-.26-5.36a.57.57,0,0,0-.19-.42.54.54,0,0,0-.44-.13l-1.2.16a63.53,63.53,0,0,0-6.37,1c-3.18.71-14.09,4.42-16,6.87-1.08,1.35-1.44,6.45-1.91,10.43-.52,4.4-.83,8.39.22,11.1,1.17,2.89,15.32,6.85,17.65,6.85.68,0,8.16-.23,8.24-.25a.6.6,0,0,0,.46-.29,3.14,3.14,0,0,0,.14-.36c.35-.92.49-10.54.39-13.34.92.43,1.8.83,2.88,1.29a.54.54,0,0,0,.48,0,.5.5,0,0,0,.27-.4c.23-1.69.73-6.65.81-7.43a.51.51,0,0,0-.4-.65"/><path d="M148.46,40a19.35,19.35,0,0,0-5.17-2.08l0-.39c2.83-.82,3.05-1.95,5-4.2,1.78-2,2.9-3.13.75-6.05-1.42-2-4.5-4.59-6.84-4.82a102.44,102.44,0,0,0-11.05-.31.57.57,0,0,0-.54.56c0,2.26.26,35.24.26,35.24a.6.6,0,0,0,.17.4.55.55,0,0,0,.38.15h0c5.93-.39,14.18-.55,15.42-1.21,1.87-1,5.46-6.47,5.47-9,0-2.3-2.86-7.67-3.88-8.28M137.07,27.65c.07-.2,3.52.25,3.64.58a11.6,11.6,0,0,1-.27,3.17,7.69,7.69,0,0,1-2.91.72c-.37,0-.64-3.92-.46-4.47m4.8,21.43a9.77,9.77,0,0,1-4.09,1.46c-.54,0-.94-5.87-.68-6.71.09-.31,5.06.61,5.21,1.09a14.51,14.51,0,0,1-.44,4.16"/><path d="M258.06,98.35a.56.56,0,0,0,.38-.15,1.09,1.09,0,0,1,.67-.39v-8.9l-19.55-.4L252,84.62l.33-5.79-11-2.46,16.43-3.63V66a.48.48,0,0,0-.44-.46c-.08,0-.2,0-.36-.29h-.78c-3.06,0-20.22-.17-22.29-.27a.62.62,0,0,0-.43.16.56.56,0,0,0-.16.43c.28,3.48.36,31.4.71,32a.66.66,0,0,0,.23.21c.22.11,21.62.54,23.77.62h0"/><path d="M234.34,99.26a.08.08,0,0,0,0,0c-.44-1.11-11.81-31.81-12.47-33.71l-.42-1.21a.58.58,0,0,0-.51-.39.62.62,0,0,0-.56.32c-1.22,2.43-7.95,16.58-8.61,18.11-.92-2.63-5.59-14.55-6.72-18.06a.58.58,0,0,0-1.08-.06C203.37,65.47,189.2,95.8,188,98a.57.57,0,0,0,.46.84l9.74.06,5.23-11.05,3.27,9.9,7.81.53,5.25-8.17,4.79,9.79,9.17.28h.17a.86.86,0,0,0,.28-.11.55.55,0,0,0,.14-.77"/><path d="M210.17,43.89a.52.52,0,0,0-.17-.41.49.49,0,0,0-.43-.15c-7.09.59-9.81,1-15.94,1.23.2-4,1.64-20.55,2-23.71a.57.57,0,0,0-.11-.44.54.54,0,0,0-.41-.2c-.88,0-9.79.12-10,.12-1,0-1.33.16-1.49.29a.36.36,0,0,0-.12.16c-.11.23.27,35.68.27,35.68a6.94,6.94,0,0,0,.13,1.09.82.82,0,0,0,.16.22,1.71,1.71,0,0,0,.44.22,2.47,2.47,0,0,0,.69.07c.74,0,9.24-.44,10.57-.59.71-.08,4.86-.16,6.22-.27.59-.05,2.73-.08,3.12-.07h.09a34.51,34.51,0,0,0,3.58-.12.55.55,0,0,0,.38-.44c0-.28.87-10.2,1-12.68"/><path d="M230.58,39.38a1.24,1.24,0,0,1-.45-1.38c.06-.32,7-11.52,7.48-12.28l.2-.42a.55.55,0,0,0-.14-.66l0,0c-.08-.1-.18-.19-.3-.35a13.73,13.73,0,0,0-2.65-2.16l-.43-.3a.57.57,0,0,0-.8.18c-.56.88-9.66,14.46-9.66,14.46s-1.83-15-2-15.32a.53.53,0,0,0-.47-.28h-.15c-.53,0-7.58,1.07-7.8,1.15a.54.54,0,0,0-.31.27c-.22.42.43,31.31.45,34.32a.53.53,0,0,0,.16.39.53.53,0,0,0,.39.16h0c4.31-.08,8-.5,11.67-.9a.57.57,0,0,0,.51-.61c-.1-.89-.68-7.4-1.13-9.85,2.18,3.7,5,7.32,6.76,11a.6.6,0,0,0,.4.31.57.57,0,0,0,.49-.13c1-1,6.66-6.8,6.76-7.37s-8.85-10.06-9-10.21"/><path d="M178.56,55.72a.54.54,0,0,0,.37-.15c.11-.11.18-.24-.48-.39v-8.9L159,45.88,171.48,42l.34-5.81-11-2.46,19-3.63V23.31a12.8,12.8,0,0,1-2-.46c-.08,0-.2,0-.36.68h-.78c-3.07-.92-20.22-1.14-22.29-1.25a.63.63,0,0,0-.43.17.53.53,0,0,0-.16.43c.28,3.48.36,31.4.71,32a.49.49,0,0,0,.23.22c.21.11,21.61.54,23.76.69h-.06"/><path d="M272.67,52.11c-1.19-3.26-15.85-30.8-16.44-32a.51.51,0,0,0-.47-.31.57.57,0,0,0-.5.27c-2.16,3.53-13.08,27.29-15.15,31.58a.57.57,0,0,0,0,.51.58.58,0,0,0,.43.28c2.21.21,7.4.12,7.4.12a.54.54,0,0,0,.54-.35l1.27-3.09h11.74l2.29,3.13c.09.16.46-.44.46-.44h7.88a.55.55,0,0,0,.45-.23.53.53,0,0,0,.08-.53m-18-14.72L259,43.63l-7.18-.29Z"/><path d="M191.74,97.81c-1.19-3.25-15.85-30.11-16.44-31.36a.51.51,0,0,0-.47-.31.6.6,0,0,0-.5.27C172.17,70,161.6,93,159.53,97.3a.57.57,0,0,0,.45.8c2.21.21,7.4.12,7.4.12a.55.55,0,0,0,.54-.35l1.27-3.09h11.74l2.29,3.61a.53.53,0,0,0,.46.26c2.39.07,6.54,0,6.54,0,2,0,1.35-.18,1.46-.32a.61.61,0,0,0,.06-.54M174.12,82l4.33,7.35-7.18-.29Z"/><path d="M279.84,82.54c-.55-.42-6.21-4.71-7.57-6.07-1-1-1.47-3.15-.65-4.32,1.54-2.2,9.12-.22,9.12-.22.05-2,.11-10.44.11-10.7,0-1.43-.16-1.65-1.42-2-.25-.07-.55-.15-.88-.27-2.09-.71-11.12-.71-14,1.32-1.23.85-2,2.9-2.36,4.1-.79,2.35-1.46,4.11-.29,6.67.89,2,9.87,10.56,8.82,12.51a7.85,7.85,0,0,1-3.39,3.57c-1.35.83-5.92.21-5.89.37,0,0,.14,10.7.38,11.58,0,0,0,.08,0,.13.06.23,1.45.42,1.6.44s4.88-.2,4.88-.2l2.23-.13c1.85-.06,9.57-2.81,10.15-5s.86-10.5-.86-11.75"/><path d="M162,77.77c-2.49-.46-10.89-1.8-12.68-2.11a.54.54,0,0,0-.65.47l0,.23c-.34,2.55-.39,3.75-.16,4.27s5.08,2.41,5.63,2.64c.32.13.64.25,1,.4-.94.1-4.27.12-4.84.11-2.93-.22-7-.77-8.73-2s-1.38-2.11-1.17-4.79c.25-3.69,1.33-5.45,4.59-6.21a51.21,51.21,0,0,1,11.74-1.56h0a.54.54,0,0,0,.55-.55c0-.06-.27-3.55-.25-5.36a.57.57,0,0,0-.19-.42.56.56,0,0,0-.45-.13l-1.19.16a63.25,63.25,0,0,0-6.38,1c-3.18.71-14.08,4.42-16,6.87-1.08,1.35-1.44,6.45-1.91,10.43-.52,4.4-.83,8.39.22,11.1,1.17,2.89,15.32,6.85,17.65,6.85.68,0,8.16-.23,8.24-.25a.6.6,0,0,0,.46-.29,3.14,3.14,0,0,0,.14-.36c.35-.92.49-10.54.39-13.34.92.43,1.8.83,2.88,1.29a.54.54,0,0,0,.48,0,.5.5,0,0,0,.27-.4c.23-1.69.73-6.65.81-7.43a.51.51,0,0,0-.4-.65"/></svg>