<svg id="Layer_1" data-name="Layer 1" xmlns="http://www.w3.org/2000/svg" viewBox="0 0 145 80"><defs><style>.cls-1{fill:#181818;}.cls-2{fill:#f6f6f6;}.cls-3{fill:none;stroke:#f6f6f6;stroke-miterlimit:10;stroke-width:2px;}</style></defs><title>Artboard 20</title><rect class="cls-1" width="145" height="80"/><path class="cls-2" d="M21.74,27.9,55,26l.3,5.33L30.35,32.77l.24,4.15,13.75-.79a29.42,29.42,0,0,1,6.75.24,10.88,10.88,0,0,1,4.22,1.52,5.72,5.72,0,0,1,2.25,2.53,9.2,9.2,0,0,1,.8,3.31v0A9.08,9.08,0,0,1,58,47,5.8,5.8,0,0,1,56,49.76a11.55,11.55,0,0,1-4.06,2,30,30,0,0,1-6.72,1L23.24,54Zm23,18.92a11.56,11.56,0,0,0,2.37-.34,5.08,5.08,0,0,0,1.47-.64,2,2,0,0,0,.72-.91,2.29,2.29,0,0,0,.19-1.08v-.1a2.11,2.11,0,0,0-.3-1,1.94,1.94,0,0,0-.82-.78,4.42,4.42,0,0,0-1.54-.43,14,14,0,0,0-2.39,0l-13.49.78.31,5.34Z"/><path class="cls-2" d="M115.55,54a9.3,9.3,0,0,1-.92-.16,4,4,0,0,1-3-3,6.69,6.69,0,0,1-.2-1.79V43.52h-1.84V41.46h4v.22q0,3.66,0,7.3a4.47,4.47,0,0,0,.24,1.49A2.21,2.21,0,0,0,116.49,52a3.41,3.41,0,0,0,2.82-2.82,4.76,4.76,0,0,0,.07-.75c0-1.58,0-3.16,0-4.74,0,0,0-.09,0-.16h-2.12V41.46h4.31c0,3.39-.06,6.77.08,10.19h1.61v2h-3.21l-.11,0-.3-1.94s0,0,0,0-.06.11-.1.16a4,4,0,0,1-2.32,1.93c-.29.09-.6.13-.89.19Z"/><path class="cls-2" d="M122.08,30.76h-2v-.2c0-.59,0-1.18,0-1.77a.24.24,0,0,0-.09-.18,4.55,4.55,0,0,0-5.25.4,4.48,4.48,0,0,0-1.45,3.71A4.16,4.16,0,0,0,115,36.08a4.27,4.27,0,0,0,5.66-.83l.14-.16,1.64,1.25a6.34,6.34,0,0,1-9.32,1,6.38,6.38,0,0,1-.4-9.35A6.28,6.28,0,0,1,117.93,26a7.12,7.12,0,0,1,3.48,1.14,6.61,6.61,0,0,1,.6.44.27.27,0,0,1,.08.17q0,1.44,0,2.88A.31.31,0,0,1,122.08,30.76Z"/><path class="cls-2" d="M96.72,28.38V26.32h3.65a.2.2,0,0,1,.23.17l3,8.68a.78.78,0,0,0,.13.23l3.13-9.07h3.59v2.06h-.2c-.54,0-1.09,0-1.64,0a.19.19,0,0,0-.22.15l-3.73,10a.3.3,0,0,1-.35.24h-1.53a.23.23,0,0,1-.25-.18l-3.57-10c-.06-.15-.12-.21-.28-.2-.59,0-1.17,0-1.76,0Z"/><path class="cls-2" d="M107,51.67v1.95H97.6v-2h2v-8.3h-2V41.46h3.79l.14,2.35h0l.11-.18a4.57,4.57,0,0,1,3.09-2.14,8.16,8.16,0,0,1,1.31-.09h1.19v3.73h-2V43.3a3.1,3.1,0,0,0-1.47.35,3.84,3.84,0,0,0-2,2.76,2.38,2.38,0,0,0,0,.46v4.8Z"/><path class="cls-2" d="M95.43,51.59v2.09h-2.1V51.59Z"/><line class="cls-3" x1="71.81" y1="34.93" x2="81.95" y2="45.07"/><line class="cls-3" x1="81.95" y1="34.93" x2="71.81" y2="45.07"/></svg>