<svg id="Layer_1" data-name="Layer 1" xmlns="http://www.w3.org/2000/svg" viewBox="0 0 516.83 122.07"><defs><style>.cls-1{fill:#de0b1c;}.cls-2{fill:#231f20;}.cls-3{fill:#8c9091;}</style></defs><title>cola_logo_1</title><path class="cls-1" d="M164.91,46.68A17,17,0,0,1,162,49.77a19.37,19.37,0,0,1-3.77,2.52A21.43,21.43,0,0,1,153.77,54a21.29,21.29,0,0,1-12.9-.86A18.15,18.15,0,0,1,134.72,49a18.47,18.47,0,0,1-4-6.23,21.52,21.52,0,0,1-1.41-7.91A21.58,21.58,0,0,1,130.72,27a19,19,0,0,1,4-6.35,18.75,18.75,0,0,1,6.18-4.26,19.85,19.85,0,0,1,8-1.55,20.82,20.82,0,0,1,9.21,1.92,17.39,17.39,0,0,1,6.55,5.56L158.79,28a14.21,14.21,0,0,0-4-3.83,10.34,10.34,0,0,0-5.56-1.44,11,11,0,0,0-4.59.93,10.19,10.19,0,0,0-3.45,2.58A11.85,11.85,0,0,0,139,30a14.51,14.51,0,0,0,0,9.27,11.12,11.12,0,0,0,2.19,3.74,10.11,10.11,0,0,0,3.4,2.5,10.7,10.7,0,0,0,4.48.9,13.22,13.22,0,0,0,3.54-.42,10.43,10.43,0,0,0,2.67-1.14,10,10,0,0,0,2.06-1.64c.61-.62,1.2-1.25,1.76-1.9Z"/><path class="cls-1" d="M181.65,47.47a5.83,5.83,0,0,0,4.74-2.21A6.92,6.92,0,0,0,187.61,43a9,9,0,0,0,.39-2.64,9.07,9.07,0,0,0-.39-2.64,6.59,6.59,0,0,0-1.22-2.26,6.27,6.27,0,0,0-2-1.59,6,6,0,0,0-2.73-.59,6.16,6.16,0,0,0-2.75.59,5.87,5.87,0,0,0-2,1.59,7.35,7.35,0,0,0-1.22,2.26,8.48,8.48,0,0,0-.42,2.64,8.38,8.38,0,0,0,.42,2.64,7.75,7.75,0,0,0,1.22,2.29,5.61,5.61,0,0,0,2,1.62,6.16,6.16,0,0,0,2.75.59m-14.29-7.14a14.75,14.75,0,0,1,1-5.53,13.84,13.84,0,0,1,2.93-4.5,13.3,13.3,0,0,1,4.5-3,15,15,0,0,1,5.81-1.1,14.83,14.83,0,0,1,5.79,1.1,13.47,13.47,0,0,1,4.47,3,13.84,13.84,0,0,1,2.93,4.5,15.09,15.09,0,0,1,0,11.06,13.78,13.78,0,0,1-7.4,7.57,14.31,14.31,0,0,1-5.79,1.13,14.51,14.51,0,0,1-5.81-1.13,13.8,13.8,0,0,1-4.5-3.06,14,14,0,0,1-2.93-4.51,14.71,14.71,0,0,1-1-5.53"/><path class="cls-1" d="M224.23,50.14a14.12,14.12,0,0,1-4.34,3.12,14.5,14.5,0,0,1-6.38,1.3,15.77,15.77,0,0,1-5.87-1.05,12.9,12.9,0,0,1-4.5-2.95,13.35,13.35,0,0,1-2.92-4.5,15.22,15.22,0,0,1-1.05-5.73,14.38,14.38,0,0,1,1.07-5.53,14,14,0,0,1,3-4.5,13.77,13.77,0,0,1,4.54-3,14.66,14.66,0,0,1,5.75-1.1,15.27,15.27,0,0,1,6.3,1.19,13.27,13.27,0,0,1,4.47,3.17l-4.93,5.33A9.73,9.73,0,0,0,217.14,34a6.59,6.59,0,0,0-3.46-.8,5.63,5.63,0,0,0-2.63.6,6.5,6.5,0,0,0-2,1.56,6.72,6.72,0,0,0-1.25,2.24,8.56,8.56,0,0,0-.42,2.69,8.2,8.2,0,0,0,.42,2.58,7.07,7.07,0,0,0,1.25,2.27,6.51,6.51,0,0,0,2,1.61,5.41,5.41,0,0,0,2.63.63,6.86,6.86,0,0,0,3.51-.82,9.19,9.19,0,0,0,2.28-1.79Z"/><path class="cls-1" d="M243.61,41.92c-.19,0-.55-.09-1.08-.14a16.39,16.39,0,0,0-1.82-.09c-2.26,0-3.87.32-4.82,1a3.1,3.1,0,0,0-1.41,2.72q0,3.28,4,3.29a5.86,5.86,0,0,0,1.89-.32,5.12,5.12,0,0,0,1.65-.88,4.46,4.46,0,0,0,1.16-1.41,4.21,4.21,0,0,0,.46-2Zm0,9.24a9,9,0,0,1-3.44,2.44,12.24,12.24,0,0,1-7.59.45,8.45,8.45,0,0,1-2.89-1.33,7.38,7.38,0,0,1-2.21-2.53,8,8,0,0,1-.88-4,9,9,0,0,1,.93-4.14,8.79,8.79,0,0,1,2.58-3A11.92,11.92,0,0,1,234,37.21a18.3,18.3,0,0,1,4.85-.62c.95,0,1.9,0,2.87.06a11.5,11.5,0,0,1,1.9.17v-.57a3.34,3.34,0,0,0-.43-1.73,3.77,3.77,0,0,0-1.13-1.19,4.6,4.6,0,0,0-1.62-.68,9.07,9.07,0,0,0-1.93-.2,12.94,12.94,0,0,0-4.51.68,15,15,0,0,0-3,1.53l-3.34-5a22.4,22.4,0,0,1,1.93-1.25,14.59,14.59,0,0,1,2.55-1.13,20.8,20.8,0,0,1,3.31-.82,25.39,25.39,0,0,1,4.23-.31q6.06,0,9,3.26a12.75,12.75,0,0,1,2.89,8.76V53.65h-7.66Z"/><rect class="cls-1" x="259.2" y="33.93" width="17.97" height="7.77"/><path class="cls-1" d="M319.56,46.68a17.47,17.47,0,0,1-2.9,3.09,19.37,19.37,0,0,1-3.77,2.52A21.13,21.13,0,0,1,308.42,54a21.29,21.29,0,0,1-12.9-.86A18.06,18.06,0,0,1,289.37,49a18.32,18.32,0,0,1-4-6.23A21.32,21.32,0,0,1,284,34.89,21.38,21.38,0,0,1,285.37,27a18.68,18.68,0,0,1,10.17-10.61,19.85,19.85,0,0,1,8-1.55,20.76,20.76,0,0,1,9.21,1.92,17.31,17.31,0,0,1,6.55,5.56L313.43,28a14,14,0,0,0-4-3.83,10.34,10.34,0,0,0-5.56-1.44,10.94,10.94,0,0,0-4.59.93,10.13,10.13,0,0,0-3.46,2.58A11.65,11.65,0,0,0,293.62,30a14.34,14.34,0,0,0,0,9.27,10.94,10.94,0,0,0,2.18,3.74,10.21,10.21,0,0,0,3.4,2.5,10.73,10.73,0,0,0,4.48.9,13.35,13.35,0,0,0,3.55-.42,10.21,10.21,0,0,0,2.66-1.14A10.38,10.38,0,0,0,312,43.25c.6-.62,1.19-1.25,1.76-1.9Z"/><path class="cls-1" d="M336.3,47.47A5.82,5.82,0,0,0,341,45.26,6.74,6.74,0,0,0,342.25,43a8.66,8.66,0,0,0,.4-2.64,8.76,8.76,0,0,0-.4-2.64A6.43,6.43,0,0,0,341,35.43a6.27,6.27,0,0,0-2-1.59,6,6,0,0,0-2.72-.59,6.14,6.14,0,0,0-2.75.59,5.68,5.68,0,0,0-2,1.59,7.14,7.14,0,0,0-1.22,2.26,8.2,8.2,0,0,0-.43,2.64,8.12,8.12,0,0,0,.43,2.64,7.52,7.52,0,0,0,1.22,2.29,5.44,5.44,0,0,0,2,1.62,6.14,6.14,0,0,0,2.75.59M322,40.33a14.55,14.55,0,0,1,1.05-5.53A13.82,13.82,0,0,1,326,30.3a13.44,13.44,0,0,1,4.51-3,15,15,0,0,1,5.81-1.1,14.78,14.78,0,0,1,5.78,1.1,13.51,13.51,0,0,1,4.48,3,13.82,13.82,0,0,1,2.92,4.5,15.09,15.09,0,0,1,0,11.06,13.69,13.69,0,0,1-7.4,7.57,14.26,14.26,0,0,1-5.78,1.13,14.48,14.48,0,0,1-5.81-1.13,13.62,13.62,0,0,1-7.43-7.57A14.52,14.52,0,0,1,322,40.33"/><rect class="cls-1" x="355.11" y="15.84" width="8.16" height="37.82"/><path class="cls-1" d="M385.56,41.92c-.19,0-.55-.09-1.08-.14a16.2,16.2,0,0,0-1.81-.09c-2.27,0-3.88.32-4.82,1a3.09,3.09,0,0,0-1.42,2.72c0,2.19,1.33,3.29,4,3.29a5.92,5.92,0,0,0,1.9-.32,5.23,5.23,0,0,0,1.65-.88,4.59,4.59,0,0,0,1.16-1.41,4.2,4.2,0,0,0,.45-2Zm0,9.24a8.92,8.92,0,0,1-3.43,2.44,12,12,0,0,1-4.62.85,11.83,11.83,0,0,1-3-.4,8.53,8.53,0,0,1-2.89-1.33,7.48,7.48,0,0,1-2.21-2.53,8.11,8.11,0,0,1-.88-4,9,9,0,0,1,.94-4.14,8.69,8.69,0,0,1,2.58-3A11.82,11.82,0,0,1,376,37.21a18.24,18.24,0,0,1,4.85-.62c.94,0,1.9,0,2.86.06a11.38,11.38,0,0,1,1.9.17v-.57a3.24,3.24,0,0,0-.43-1.73A3.77,3.77,0,0,0,384,33.33a4.55,4.55,0,0,0-1.61-.68,9.21,9.21,0,0,0-1.93-.2,12.86,12.86,0,0,0-4.51.68,14.74,14.74,0,0,0-3,1.53l-3.34-5a22.14,22.14,0,0,1,1.92-1.25,15.3,15.3,0,0,1,2.55-1.13,21.21,21.21,0,0,1,3.32-.82,25.34,25.34,0,0,1,4.22-.31q6.07,0,9,3.26t2.89,8.76V53.65h-7.65Z"/><path class="cls-2" d="M79.33,87.58c0-.27,0-.54,0-.79.06-1.39.18-2.41.18-2.77,0-1,1.69-11.26,2-13.63s-.36-2.94-.36-2.94c1.58-8.77-1.36-18.16-1.36-18.16,1-.9-1.14-5.58-1.14-5.58C77,39.84,75,34.36,75,34.36h0c-.32-1.24-.76-3.05-1.08-5-.29-3-.32-6.13-.32-7.11,0-.78,1-.74,1-1.44a13,13,0,0,0-1-3,1.27,1.27,0,0,1,.08-.7,1.19,1.19,0,0,1,.31-.41,1.86,1.86,0,0,0-1.83-1.88h-8.6a1.84,1.84,0,0,0-1.82,1.88,1.23,1.23,0,0,1,.3.41,1.37,1.37,0,0,1,.08.7,13.21,13.21,0,0,0-1,3c0,.7,1,.66,1,1.44,0,1,0,4.06-.31,7.08-.34,2-.77,3.81-1.09,5.06h0s-2,5.48-3.58,9.35c0,0-2.19,4.68-1.13,5.58,0,0-2.93,9.39-1.36,18.16,0,0-.62.56-.36,2.94S56.1,83,56.1,84c0,.37.14,1.4.19,2.81v.75c0,6.23-2.57,9.27-2.57,13.3,0,5.36,3.4,8.16,14.1,8.16s14.08-2.8,14.08-8.16c0-4-2.57-7.07-2.57-13.3"/><path class="cls-3" d="M26.9,87.59c0-.27,0-.54,0-.8.07-1.38.19-2.4.19-2.76,0-1,1.69-11.27,1.94-13.64s-.36-2.93-.36-2.93C30.24,58.69,27.3,49.3,27.3,49.3c1.06-.9-1.13-5.59-1.13-5.59-1.62-3.85-3.59-9.35-3.59-9.35h0c-.31-1.24-.75-3.05-1.08-5-.29-3-.32-6.13-.32-7.12,0-.78,1-.74,1-1.44a13.78,13.78,0,0,0-1-3,1.32,1.32,0,0,1,.07-.69,1.1,1.1,0,0,1,.31-.4,1.86,1.86,0,0,0-1.83-1.9h-8.6a1.85,1.85,0,0,0-1.82,1.9,1.23,1.23,0,0,1,.31.4,1.32,1.32,0,0,1,.07.69,13.21,13.21,0,0,0-1,3c0,.7,1,.66,1,1.44,0,1,0,4.06-.31,7.09-.34,2-.77,3.81-1.09,5.05h0s-2,5.5-3.58,9.35c0,0-2.2,4.69-1.14,5.59,0,0-2.93,9.39-1.36,18.16,0,0-.61.56-.36,2.93S3.67,83,3.67,84c0,.36.13,1.4.19,2.8v.76c0,6.23-2.57,9.26-2.57,13.29,0,5.37,3.4,8.16,14.1,8.16s14.09-2.79,14.09-8.16c0-4-2.58-7.06-2.58-13.29"/><path class="cls-1" d="M56.49,94.34c0-.35,0-.69,0-1,.07-1.79.24-3.11.24-3.58,0-1.27,2.18-14.55,2.5-17.61s-.45-3.79-.45-3.79C60.8,57,57,44.87,57,44.87c1.37-1.17-1.46-7.21-1.46-7.21-2.1-5-4.62-12.1-4.62-12.1h0c-.41-1.59-1-3.93-1.4-6.49-.37-3.92-.41-7.91-.41-9.2,0-1,1.28-.95,1.28-1.85S49.09,4.4,49,4.13a1.72,1.72,0,0,1,.09-.9,1.46,1.46,0,0,1,.4-.52A2.41,2.41,0,0,0,47.15.27H36a2.4,2.4,0,0,0-2.36,2.44,1.59,1.59,0,0,1,.4.52,1.74,1.74,0,0,1,.1.9C34.11,4.4,32.83,7,32.83,8s1.28.86,1.28,1.85c0,1.29,0,5.26-.39,9.17-.43,2.56-1,4.92-1.41,6.52h0s-2.54,7.1-4.63,12.1c0,0-2.84,6-1.48,7.21,0,0-3.79,12.14-1.75,23.47,0,0-.79.72-.46,3.79s2.51,16.34,2.51,17.61c0,.48.16,1.82.24,3.63v1c0,8.06-3.33,12-3.33,17.19,0,6.93,4.4,10.54,18.21,10.54s18.21-3.61,18.21-10.54c0-5.22-3.32-9.13-3.32-17.19"/><path class="cls-2" d="M130.76,71.44h13.72a16,16,0,0,1,6,1,11.89,11.89,0,0,1,4.09,2.69A10.4,10.4,0,0,1,156.93,79a13.84,13.84,0,0,1,.76,4.58,12.8,12.8,0,0,1-1,5.33,10.8,10.8,0,0,1-2.83,3.81A12.32,12.32,0,0,1,149.73,95a15.08,15.08,0,0,1-4.85.79h-5.82V109.1h-8.3ZM144,88.94a5,5,0,0,0,3.75-1.44,5.16,5.16,0,0,0,1.39-3.75,5.41,5.41,0,0,0-1.41-3.87,5,5,0,0,0-3.79-1.5h-4.91V88.94Z"/><path class="cls-2" d="M160,95.66a14.94,14.94,0,0,1,1-5.59,14.29,14.29,0,0,1,2.91-4.55,13.21,13.21,0,0,1,4.49-3,14.72,14.72,0,0,1,5.79-1.11,14.56,14.56,0,0,1,5.73,1.11,13.31,13.31,0,0,1,4.49,3,14.09,14.09,0,0,1,2.9,4.55,15.41,15.41,0,0,1,0,11.18,14,14,0,0,1-2.9,4.54,13.56,13.56,0,0,1-4.49,3.08,14.4,14.4,0,0,1-5.73,1.13,14.55,14.55,0,0,1-5.79-1.13,13.45,13.45,0,0,1-4.49-3.08,14.24,14.24,0,0,1-2.91-4.54A15,15,0,0,1,160,95.66Zm14.23,7.28a5.7,5.7,0,0,0,2.71-.62,6.25,6.25,0,0,0,2-1.64,6.63,6.63,0,0,0,1.21-2.31,9.38,9.38,0,0,0,0-5.42,6.68,6.68,0,0,0-1.21-2.32,6.16,6.16,0,0,0-2-1.61,6.07,6.07,0,0,0-2.71-.59,6.23,6.23,0,0,0-2.74.59,5.8,5.8,0,0,0-2,1.61A7.64,7.64,0,0,0,168.25,93a9,9,0,0,0,0,5.42,7.59,7.59,0,0,0,1.21,2.31,5.9,5.9,0,0,0,4.75,2.26Z"/><path class="cls-2" d="M216.61,105.6a14.2,14.2,0,0,1-4.29,3.1,14.35,14.35,0,0,1-6.38,1.3,15.43,15.43,0,0,1-5.85-1.07,13.08,13.08,0,0,1-7.39-7.46,14.9,14.9,0,0,1-1-5.64,15.36,15.36,0,0,1,1-5.7,13.47,13.47,0,0,1,3-4.61,13.75,13.75,0,0,1,4.57-3,14.94,14.94,0,0,1,5.82-1.11,14.75,14.75,0,0,1,6.21,1.25,13.25,13.25,0,0,1,4.4,3.1L211.75,91a9.88,9.88,0,0,0-2.06-1.72,6,6,0,0,0-3.42-.88,6.16,6.16,0,0,0-2.76.59,6.27,6.27,0,0,0-2,1.59,6.89,6.89,0,0,0-1.24,2.28,8.58,8.58,0,0,0-.42,2.65,8.88,8.88,0,0,0,.42,2.69,7.83,7.83,0,0,0,1.22,2.37,5.59,5.59,0,0,0,2,1.66,6.11,6.11,0,0,0,2.85.62,6.37,6.37,0,0,0,3.33-.81,9.23,9.23,0,0,0,2.2-1.78Z"/><path class="cls-2" d="M242.91,105.6a14,14,0,0,1-4.29,3.1,14.35,14.35,0,0,1-6.38,1.3,15.38,15.38,0,0,1-5.84-1.07,13.33,13.33,0,0,1-4.49-3,13.49,13.49,0,0,1-2.91-4.49,14.89,14.89,0,0,1-1-5.64,15.35,15.35,0,0,1,1-5.7,13.62,13.62,0,0,1,3-4.61,13.79,13.79,0,0,1,4.58-3,14.89,14.89,0,0,1,5.81-1.11,14.68,14.68,0,0,1,6.21,1.25,13.3,13.3,0,0,1,4.41,3.1L238.06,91A9.71,9.71,0,0,0,236,89.31a6,6,0,0,0-3.41-.88,5.89,5.89,0,0,0-4.77,2.18,6.71,6.71,0,0,0-1.24,2.28,8.31,8.31,0,0,0-.43,2.65,8.6,8.6,0,0,0,.43,2.69,7.81,7.81,0,0,0,1.21,2.37,5.68,5.68,0,0,0,2,1.66,6.12,6.12,0,0,0,2.86.62,6.42,6.42,0,0,0,3.33-.81,9.64,9.64,0,0,0,2.2-1.78Z"/><path class="cls-2" d="M264.87,109.1V92.78L253,109.1h-6.66V82.28h7.73V98l11.47-15.75h7.05V109.1Z"/><path class="cls-2" d="M293.74,109.1v-8.47H291a3.2,3.2,0,0,0-1.95.53,5.83,5.83,0,0,0-1.44,2l-3.05,5.93h-8.53l4-6.84a11.67,11.67,0,0,1,1.8-2.45A5.71,5.71,0,0,1,284,98.54a9.47,9.47,0,0,1-2.26-1,7.86,7.86,0,0,1-1.92-1.64,8.11,8.11,0,0,1-1.36-2.28,8.24,8.24,0,0,1-.5-2.94,7.65,7.65,0,0,1,.82-3.61,8,8,0,0,1,2.17-2.66,9.48,9.48,0,0,1,3.13-1.61,13,13,0,0,1,3.7-.53H301.7V109.1Zm0-20.89h-4.13a4.07,4.07,0,0,0-2.73.84,3.11,3.11,0,0,0-1,2.49,2.76,2.76,0,0,0,1.16,2.54,5.78,5.78,0,0,0,3.13.73h3.56Z"/><path class="cls-1" d="M410.15,16.79h8.52V31.24H435V16.79h8.52V54.45H435V39H418.67V54.45h-8.52Z"/><path class="cls-1" d="M449,16.79h14.12a18.9,18.9,0,0,1,5.93.82,11.37,11.37,0,0,1,4,2.17,7.85,7.85,0,0,1,2.2,3.14,10.33,10.33,0,0,1,.68,3.7,7.51,7.51,0,0,1-.65,3.19,9.42,9.42,0,0,1-1.53,2.36,7.43,7.43,0,0,1-1.86,1.56,7.67,7.67,0,0,1-1.61.73,19.93,19.93,0,0,1,2.26.85A8.4,8.4,0,0,1,475.07,37a9.17,9.17,0,0,1,2,2.76,8.74,8.74,0,0,1,.83,3.92,10.71,10.71,0,0,1-1,5A8.9,8.9,0,0,1,473.91,52a12.91,12.91,0,0,1-4.63,1.9,29.36,29.36,0,0,1-6.12.59H449Zm13.33,15.08a8.08,8.08,0,0,0,1.89-.23,5.18,5.18,0,0,0,1.64-.7,4.06,4.06,0,0,0,1.16-1.3,4.15,4.15,0,0,0,.45-2,4.24,4.24,0,0,0-.45-2.06,3.65,3.65,0,0,0-1.19-1.3,4.78,4.78,0,0,0-1.67-.68,8.91,8.91,0,0,0-1.83-.2h-5v8.48Zm.51,16a17.47,17.47,0,0,0,2-.14,5.93,5.93,0,0,0,2.09-.65,4.51,4.51,0,0,0,1.61-1.47,4.72,4.72,0,0,0,.64-2.65,4.57,4.57,0,0,0-.61-2.49A4.68,4.68,0,0,0,467.06,39a6.82,6.82,0,0,0-2.1-.74,12.17,12.17,0,0,0-2.08-.19h-5.54V47.9Z"/><path class="cls-1" d="M516.83,47.5A17.29,17.29,0,0,1,514,50.58a19.63,19.63,0,0,1-3.75,2.51,21.11,21.11,0,0,1-4.47,1.7,20,20,0,0,1-5,.62,20.4,20.4,0,0,1-7.85-1.47,18.12,18.12,0,0,1-6.12-4.09,18.61,18.61,0,0,1-4-6.21,22.56,22.56,0,0,1,0-15.7,19.2,19.2,0,0,1,4-6.32,18.72,18.72,0,0,1,6.15-4.24,19.82,19.82,0,0,1,7.93-1.55A20.61,20.61,0,0,1,510,17.75a17.35,17.35,0,0,1,6.53,5.54l-5.82,5.58a14,14,0,0,0-4-3.81,10.3,10.3,0,0,0-5.54-1.44,10.88,10.88,0,0,0-4.57.93,10.13,10.13,0,0,0-3.45,2.57A11.76,11.76,0,0,0,491,30.94a14.39,14.39,0,0,0,0,9.23,11.08,11.08,0,0,0,2.17,3.72,10.22,10.22,0,0,0,3.39,2.48,10.49,10.49,0,0,0,4.46.91,12.77,12.77,0,0,0,3.53-.43,10.11,10.11,0,0,0,4.72-2.76c.6-.62,1.18-1.25,1.75-1.89Z"/></svg>