<svg id="Layer_1" data-name="Layer 1" xmlns="http://www.w3.org/2000/svg" viewBox="0 0 240.31 240.31"><defs><style>.cls-1{fill:#30454f;}</style></defs><title>domrf_logo</title><rect class="cls-1" y="139.13" width="240.31" height="12.65"/><path class="cls-1" d="M0,240.31H16.86V223.45h84.32V168.64H0Zm16.86-59H84.32v25.29H16.86Z"/><path class="cls-1" d="M113.83,223.45h54.81v16.86H185.5V223.45h54.81V168.64H113.83Zm71.67-42.16h42.16v25.29H185.5Zm-59,0h42.16v25.29H126.48Z"/><path class="cls-1" d="M126.48,0H71.67V126.48h54.81ZM113.83,109.62H88.54v-97h25.29Z"/><polygon class="cls-1" points="155.99 41.68 181.29 13.49 181.29 126.48 198.15 126.48 198.15 41.67 227.66 13.5 227.66 126.48 240.31 126.48 240.31 0 218.55 0 198.15 21.78 198.15 0 178.06 0 143.34 36.76 143.34 126.48 155.99 126.48 155.99 41.68"/><path class="cls-1" d="M40.49,126.48H54.81V0H34.71L0,36.76v89.72H40.49ZM16.86,43.13,42.16,15v98.88H16.86Z"/></svg>