<svg id="Layer_1" data-name="Layer 1" xmlns="http://www.w3.org/2000/svg" viewBox="0 0 174.12 126"><defs><style>.cls-1{fill:#1e3262;fill-rule:evenodd;}</style></defs><title>gazprom_logo</title><path class="cls-1" d="M45.89,42A40.56,40.56,0,1,1,86.47,82.59,40.62,40.62,0,0,1,45.89,42m-1.44,0a42,42,0,1,0,42-42,42.05,42.05,0,0,0-42,42"/><path class="cls-1" d="M113.16,37.68c-.34.3-.69.54-1,.84-2.32,1.77-6,3.21-11.1,4.54-10.55,2.86-18.2,3.25-26.88,5.38A34.84,34.84,0,0,0,69,50.12a53.8,53.8,0,0,0,5.17,2.27,69,69,0,0,1,10.35-2.32c2-.35,8-1.44,12.33-2.31,7.85-1.69,19.34-5.34,16.28-10.08m-5.08-9.87a42,42,0,0,0-6-2.06,13.81,13.81,0,0,1-3.81,2.12,73.82,73.82,0,0,1,7.2,1.92c.4.2,2.27-1.52,2.57-2M69.67,38.32c10.25-3,21-3.94,31.9-6.85-4.24-1.13-6.61-1.63-11.09-1.09a126,126,0,0,0-19.87,4c-2.43.74-15.1,4.34-11.44,9.37,0,0,2.16-3,10.5-5.43M62.61,55.59c0,.94.55,1.78,1.78,2.82A4.77,4.77,0,0,1,65.13,57c-.84-.45-1.68-.89-2.52-1.44m4.79-.44a15.65,15.65,0,0,1,2.75-1.33c-1.42-.65-3-1.28-4.43-2a14.33,14.33,0,0,0-1.82,1.32c1.18.7,2.32,1.33,3.5,2m39.4-21.8a50.57,50.57,0,0,1-9.27,3c-3.5.89-12,2.12-21.1,4.09-2.86.65-10.71,2.47-14.56,5.73a19,19,0,0,0,3,1.78,23.11,23.11,0,0,1,7-2.87,144.81,144.81,0,0,1,14.8-2.95,128.22,128.22,0,0,0,19.57-4.6,14.23,14.23,0,0,0,4.43-2.32,15.45,15.45,0,0,0-3.79-1.86m3-1.84A18.39,18.39,0,0,1,112.67,33c.64-1.24.24-2-1.08-3.16a12.13,12.13,0,0,1-1.78,1.67M62.12,50c-.94-.49-1.53-.89-2.32-1.38-.39.89.4,1.87,1.19,2.32.34-.35.79-.65,1.13-.94M105.71,21.7a6.56,6.56,0,0,1-1.43,2.08c1.53.39,3.11,1,4.59,1.52-.2-1.38-1.78-2.71-3.16-3.6M57.48,30.43c10.75-7,22.64-11.15,42.76-7.64a3.78,3.78,0,0,0,2-2.57c-5-1.82-10.51-2.47-17.56-2.37C78.39,18.05,67,20.41,60.89,24l1.87-2.32c4.24-2.52,15.34-5.82,23.67-6,5.87-.15,8.88.19,15.88,2.07-.64-1.18-2.07-1.77-4.19-2.76-6.75-3-19.33-3.31-29.63,1.28a23.23,23.23,0,0,1,4.24-2.41,37,37,0,0,1,15.92-3c5.58.1,12.19,2,16.23,6a6.12,6.12,0,0,1,1.23,2.32c3.21,1.63,5.08,3.16,6.11,4.93a4.87,4.87,0,0,1,.4,3.06,8.54,8.54,0,0,1,2.67,2.38,6.63,6.63,0,0,1,.88,2.32,4,4,0,0,1-.79,3.45,4.72,4.72,0,0,1,2.07,2.71c.54,2.41-1,4.78-3,6.61-2.37,2.07-7.6,4.54-11.84,5.63-8.38,2.11-15.83,3-21.74,4.09A47,47,0,0,0,93,55.94c12.56,0,23.66-5.92,23.66-5.92s-.24.75-.49,1.44c-8,4.83-20.66,6.85-26.09,6.6a57.62,57.62,0,0,1-14.64-2.47A41.87,41.87,0,0,0,71.3,57a47.85,47.85,0,0,0,18,4.29c6,.44,16-1,24.35-4-.39.39-.59,1-1,1.33-4.29,2.27-13.36,4.54-18,4.73a69.45,69.45,0,0,1-14.89-.89,51.3,51.3,0,0,1-11.1-3.69,2.87,2.87,0,0,0-1.09,1.77c13.87,7.25,26.78,7.4,41.53,2.81l-1.34,1.29c-16.22,6.61-28.89,4-38.71-.69a7.57,7.57,0,0,1-1-.5C69,65,76.52,70.45,84.9,71.14a42.17,42.17,0,0,0,17-2.17l-2.46,1.28A29.63,29.63,0,0,1,84.56,73c-10-.69-15.64-5.13-18.15-7.44a7,7,0,0,1-2.07-3.85,11.67,11.67,0,0,1-4.88-4.3,4.64,4.64,0,0,1-.4-3.31l.31-.88a9.36,9.36,0,0,1-2.67-2.46,4.25,4.25,0,0,1,.3-4.5,6.92,6.92,0,0,1-1.38-2.07,5.12,5.12,0,0,1-.25-2.47,7.84,7.84,0,0,1,2-4c2.17-2.52,5.63-4.49,11.49-6.42a100.39,100.39,0,0,1,12.43-3.21c5.08-1.18,11.14-1.57,16.22-3.35-14.16-2.46-28.84-.19-40.83,8Z"/><path class="cls-1" d="M17.5,110l1,6.75h-2ZM10,125.32h5.12l.64-3.8H19.3l.62,3.8H25l-4.34-21.86H14.31Z"/><path class="cls-1" d="M30,112a2.29,2.29,0,0,0,2.33-2.2,2,2,0,0,0-2.25-2,15.7,15.7,0,0,0-2.53.62l-.06-4.74a15.62,15.62,0,0,1,4.36-.56,5.55,5.55,0,0,1,5.92,5.8A5.33,5.33,0,0,1,34.7,114v.21c1.47.47,3.43,1.92,3.43,5.3A6.09,6.09,0,0,1,31.67,126a8.94,8.94,0,0,1-4.74-1.15l.09-4.59a7.44,7.44,0,0,0,3.32.68,2.11,2.11,0,0,0,2.25-2.1c0-1.25-.78-2.07-2.48-2.07H28V112Z"/><polygon class="cls-1" points="40.4 103.46 54.19 103.46 54.19 125.32 49.44 125.32 49.44 108.68 45.63 108.68 45.63 125.32 40.4 125.32 40.4 103.46"/><path class="cls-1" d="M62.74,108.21H64c1.19,0,1.95.73,1.95,2.62,0,2.43-1.28,2.61-1.95,2.61H62.74Zm-5.22,17.11h5.22v-7.13h1.71c5,0,6.6-4.54,6.6-7.43s-1.8-7.3-6.6-7.3H57.52Z"/><path class="cls-1" d="M80.35,120.41c-1.81,0-2.72-2.1-2.72-6s.91-6,2.72-6,2.72,2.1,2.72,6-.91,6-2.72,6m0,5.36c6.07,0,8.11-5.69,8.11-11.34s-2-11.34-8.11-11.34-8.11,5.69-8.11,11.34,2.05,11.34,8.11,11.34"/><path class="cls-1" d="M116,121v-5.23h.78c.64,0,2.32,0,2.32,2.42S117.4,121,116.76,121Zm-5.23,4.28h6.13c1.33,0,6.83-.56,6.86-7.22,0-5.59-4.27-6.56-7-6.56H116v-2.86h6.66v-5.22H110.75Z"/><polygon class="cls-1" points="142.13 103.46 146.88 103.46 146.88 111.54 150.68 111.54 150.68 103.46 155.91 103.46 155.91 125.8 150.68 125.8 150.68 116.77 146.88 116.77 146.88 125.32 142.13 125.32 142.13 103.46"/><polygon class="cls-1" points="159.24 103.46 164.47 103.46 164.43 111.54 165.57 111.54 168.55 103.46 173.55 103.46 169.6 114.06 174.12 125.8 168.73 125.8 165.71 116.77 164.47 116.77 164.5 125.8 159.24 125.8 159.24 103.46"/><polygon class="cls-1" points="0 103.46 10.46 103.46 10.46 109.16 5.23 109.16 5.23 125.32 0 125.32 0 103.46"/><polygon class="cls-1" points="91.26 103.46 95.55 103.46 99.34 108.62 103.17 103.46 107.43 103.46 107.43 125.32 102.2 125.32 102.2 111.85 99.11 115.7 96.02 111.85 96.02 125.32 91.26 125.32 91.26 103.46"/><path class="cls-1" d="M132.37,110l.95,6.73h-1.93Zm-7.56,15.28H130l.62-3.8h3.56l.62,3.8h5.14l-4.33-21.86h-6.39Z"/></svg>