<?xml version="1.0" encoding="utf-8"?>
<!-- Generator: Adobe Illustrator 24.0.1, SVG Export Plug-In . SVG Version: 6.00 Build 0)  -->
<svg version="1.1" id="Layer_1" xmlns="http://www.w3.org/2000/svg" xmlns:xlink="http://www.w3.org/1999/xlink" x="0px" y="0px"
	 viewBox="0 0 73.2 40" style="enable-background:new 0 0 73.2 40;" xml:space="preserve">
<style type="text/css">
	.st0{fill:#E3051B;}
	.st1{fill-rule:evenodd;clip-rule:evenodd;}
	.st2{fill:#8A0F07;}
</style>
<title>incompass_logo</title>
<g>
	<g>
		<rect y="29.9" class="st0" width="2" height="9.9"/>
		<polygon class="st0" points="3.2,39.8 3.2,29.9 3.8,29.9 10.1,36 10.1,29.9 12,29.9 12,39.8 11.4,39.8 5.2,33.6 5.2,39.8 		"/>
		<path class="st1" d="M22.6,25.2L21,29.5l4.5-1.9l1.7-4.5L22.6,25.2z M22.2,28.4l1-2.8l1.8,1.6L22.2,28.4z"/>
		<polygon points="13.3,29.9 15.3,29.9 15.3,33.8 18.6,29.9 20.9,29.9 16.9,34.5 21.6,39.8 19,39.8 15.3,35.5 15.3,39.8 13.3,39.8 
					"/>
		<path d="M21.6,38.4c-2-1.9-2-5.1-0.1-7.1c1.9-2,5.1-2,7.1-0.1c1,0.9,1.5,2.3,1.5,3.6c0,2.8-2.3,5-5,4.9
			C23.8,39.8,22.5,39.2,21.6,38.4 M25.1,38c0.8,0,1.6-0.3,2.2-0.9c1.1-1.3,1.1-3.2,0-4.4c-1.2-1.2-3.1-1.2-4.3,0l0,0
			c-1.1,1.3-1.1,3.2,0,4.4C23.5,37.6,24.3,38,25.1,38"/>
		<polygon points="31.1,39.8 31.1,29.9 31.7,29.9 36,34.7 40.3,29.9 41,29.9 41,39.8 39,39.8 39,34 36,37.3 33,34 33,39.8 		"/>
		<path d="M42.2,39.8v-9.9h4.3c2.3,0,3.5,0.9,3.5,2.8c0,2-1.2,2.9-3.4,2.9h-2.3v4.1L42.2,39.8L42.2,39.8z M44.1,33.8h2.8
			c0.8,0,1.3-0.4,1.3-1.1c0-0.8-0.4-1-1.3-1H44L44.1,33.8z"/>
		<path d="M48.4,39.8l4-9.9h2l3.9,9.9h-2.1l-0.6-1.5h-4.5l-0.6,1.5H48.4z M53.4,32.5l-1.5,3.8h3L53.4,32.5z"/>
		<path d="M64.1,30.2c0.5,0.3,1,0.6,1.4,1l-1.3,1.3c-0.5-0.5-1.2-0.8-1.8-0.8c-0.8,0-1.3,0.2-1.5,0.6c-0.3,0.3-0.3,0.7,0,1
			c0.3,0.3,0.8,0.5,1.5,0.6c0.8,0.1,1.6,0.3,2.3,0.8c0.7,0.5,1.1,1.3,1,2.3c0,0.8-0.4,1.6-1.1,2.1c-0.8,0.6-1.6,0.8-2.6,0.8
			c-0.8,0-1.6-0.1-2.3-0.4c-0.6-0.3-1.2-0.6-1.6-1.1l1.3-1.3c0.4,0.5,1.2,0.8,2.3,0.9c0.9,0,1.4-0.2,1.7-0.6c0.3-0.3,0.3-0.8,0-1.1
			s-0.8-0.6-1.7-0.7c-0.8-0.1-1.5-0.3-2.2-0.8c-0.7-0.4-1.1-1.3-1-2.1c0-0.8,0.4-1.7,1.2-2.1c0.7-0.5,1.5-0.8,2.3-0.8
			C62.7,29.8,63.4,30,64.1,30.2"/>
		<path d="M71.7,30.2c0.5,0.3,1,0.6,1.4,1l-1.3,1.3c-0.5-0.5-1.2-0.8-1.8-0.8c-0.8,0-1.3,0.2-1.5,0.6c-0.3,0.3-0.3,0.7,0,1
			c0.4,0.3,1,0.6,1.5,0.6c0.8,0.1,1.6,0.3,2.3,0.8c0.7,0.5,1.1,1.3,1,2.3c0,0.8-0.4,1.6-1.1,2.1c-0.8,0.6-1.6,0.8-2.6,0.8
			c-0.8,0-1.6-0.1-2.3-0.4c-0.6-0.3-1.2-0.6-1.6-1.1l1.3-1.3c0.4,0.5,1.2,0.8,2.3,0.9c0.9,0,1.4-0.2,1.7-0.6c0.3-0.3,0.3-0.8,0-1.1
			c-0.3-0.3-0.8-0.6-1.7-0.7c-0.8-0.1-1.5-0.3-2.2-0.8c-0.7-0.4-1.1-1.3-1-2.1c0-0.8,0.4-1.7,1.1-2.1c0.7-0.5,1.5-0.8,2.3-0.8
			C70.3,29.8,71,30,71.7,30.2"/>
	</g>
	<path class="st2" d="M64.2,20.3L44.1,26c-2,0.6-4-0.6-4.6-2.5l-3.7-13c-0.6-2,0.6-4,2.5-4.6l20.2-5.7c2-0.6,4,0.6,4.6,2.5l3.7,13
		C67.3,17.7,66.1,19.7,64.2,20.3z M38.7,6.7c-1.4,0.4-2.3,1.9-1.9,3.4l3.7,13c0.4,1.4,1.9,2.3,3.4,1.9l20-5.6
		c1.4-0.4,2.3-1.9,1.9-3.4L62.1,3c-0.4-1.4-1.9-2.3-3.4-1.9L38.7,6.7z"/>
	<path class="st2" d="M43.5,15.9l-1,0.4l-0.5-1l-1.3,0.6l-0.1,1.2l-1,0.5l0.2-6.5l1-0.4L43.5,15.9z M41.6,14.4l-1-2v2.4L41.6,14.4z"
		/>
	<path class="st2" d="M44.2,9.2c1.3-0.6,2-0.3,2.2,1l0.1,0.6c0.2,1.2-0.2,2.1-1.5,2.6l-0.4,0.2l0.4,1.8l-0.9,0.3l-1.3-5.9L44.2,9.2z
		 M44.8,12.2c0.7-0.3,0.9-0.6,0.7-1.2l-0.1-0.4c-0.1-0.6-0.3-0.8-1.1-0.5l-0.4,0.2l0.5,2.1L44.8,12.2z"/>
	<path class="st2" d="M48.2,7.4c1.3-0.6,2-0.3,2.2,0.9l0.1,0.6c0.2,1.2-0.2,2.1-1.5,2.6l-0.4,0.2l0.4,1.8l-1,0.4l-1.3-5.9L48.2,7.4z
		 M48.8,10.4c0.7-0.3,0.9-0.6,0.7-1.2l-0.1-0.4c-0.1-0.6-0.3-0.8-1.1-0.5L48,8.5l0.5,2.1L48.8,10.4z"/>
	<path class="st2" d="M55.1,10.7l-3,1.3l-1.3-5.9l1-0.4l1,4.9l2.1-1L55.1,10.7z"/>
	<path class="st2" d="M56.9,3.5l-0.6,4l0.6,2.5l-1,0.4l-0.5-2.5l-2.1-2.8l1-0.5L55,5.5l0.6,1.1l0.1-1.4L55.9,4L56.9,3.5z"/>
	<path class="st2" d="M53.2,19.7l-1,0.4l-2.4-3l0.6,2.2l0.3,1.5l-1,0.4l-1.3-5.9l1-0.4l2.4,3.2l-0.6-2.4l-0.3-1.3l1-0.4L53.2,19.7z"
		/>
	<path class="st2" d="M53.8,17.7l-0.6-2.5c-0.2-1.3,0.2-2,1.3-2.5c1.3-0.6,1.9-0.3,2.2,1l0.6,2.5c0.2,1.2-0.2,2-1.4,2.5
		S54,18.9,53.8,17.7z M56.4,16.4L55.9,14c-0.1-0.6-0.3-0.8-1-0.5c-0.5,0.2-0.8,0.6-0.7,1.1c0,0.1,0,0.1,0,0.2l0.5,2.4
		c0.2,0.6,0.3,0.8,1,0.5C56.2,17.5,56.5,17.1,56.4,16.4C56.4,16.5,56.4,16.4,56.4,16.4z"/>
	<path class="st2" d="M60.5,16.5l-1,0.5l-2.6-5.2l1-0.5l1,1.7l0.9,2.2v-4.6l0.7-0.3l1.8,3.8L62,11.6l0.1-2.2L63,9L63,15.4l-1,0.5
		l-1.4-2.8L60.5,16.5z"/>
</g>
</svg>
