<svg id="Layer_1" data-name="Layer 1" xmlns="http://www.w3.org/2000/svg" viewBox="0 0 358.16 116"><defs><style>.cls-1{fill:#686f9b;}.cls-2{fill:#fff;}</style></defs><title>kefir_logo</title><rect class="cls-1" y="-0.04" width="358.16" height="116"/><path class="cls-2" d="M76.36,82.92a2.35,2.35,0,0,1-2,3.42H62.62a2.34,2.34,0,0,1-2.18-1.29L50.58,65.53H45.05V83.94a2.36,2.36,0,0,1-2.34,2.4l-11.7,0a2.37,2.37,0,0,1-2.35-2.38V34.5A2.38,2.38,0,0,1,31,32.11h11.7a2.35,2.35,0,0,1,2.34,2.38V51.66h4L58,34a2.28,2.28,0,0,1,2-1.29H72a2.37,2.37,0,0,1,2,3.53l-10.59,21Zm43.09-50.81H82.06a2.36,2.36,0,0,0-2.33,2.39V83.94a2.36,2.36,0,0,0,2.33,2.4h37.57A2.34,2.34,0,0,0,122,84V74.15a2.33,2.33,0,0,0-2.34-2.31H95.49V64.9h15.32a2.35,2.35,0,0,0,2.33-2.38V54a2.35,2.35,0,0,0-2.33-2.38H95.49V47.25h24.14a2.27,2.27,0,0,0,2.34-2.2V34.78a2.35,2.35,0,0,0-2.32-2.37m50.24,14.84h-6.31V71.84h6.31Zm15.76-12.61V84a2.36,2.36,0,0,1-2.33,2.39H164.21v5.74a2.36,2.36,0,0,1-2.29,2.45h-11.8a2.37,2.37,0,0,1-2.3-2.45V86.34l-19.13,0a2.35,2.35,0,0,1-2.31-2.38V34.5a2.36,2.36,0,0,1,2.31-2.39h19.13V25.65a2.33,2.33,0,0,1,2.3-2.36h11.8a2.31,2.31,0,0,1,2.29,2.36v6.46h19a2.36,2.36,0,0,1,2.34,2.37M148.45,47.25h-6.3V71.84h6.3Zm87-15.14H223.61a1.91,1.91,0,0,0-1.64.7L207.09,55.7V34.5a2.38,2.38,0,0,0-2.36-2.39H193.05a2.38,2.38,0,0,0-2.36,2.39V83.94a2.38,2.38,0,0,0,2.36,2.4h11.16a2.48,2.48,0,0,0,2-1.21L221,62.74V84a2.37,2.37,0,0,0,2.34,2.39H235A2.37,2.37,0,0,0,237.35,84V34.78A2.36,2.36,0,0,0,235,32.41m35.75,14.84h-12v12h12Zm15.76-12.61V72a2.33,2.33,0,0,1-2.28,2.37H258.79v9.57a2.38,2.38,0,0,1-2.34,2.4l-11.71,0a2.37,2.37,0,0,1-2.35-2.38V34.5a2.37,2.37,0,0,1,2.35-2.39h39.78a2.33,2.33,0,0,1,2.3,2.36"/><path class="cls-2" d="M298.51,83.81a2.45,2.45,0,0,0,2.37,2.53h24.26a2.45,2.45,0,0,0,2.37-2.53V72.47h-29Z"/><path class="cls-2" d="M327.51,21.4l-29.39,0a2.29,2.29,0,0,0-2.17,2.5l2,43.49h29.56l2-43.59a2.35,2.35,0,0,0-2.31-2.43m-3.27,13.74c0,1.63-.29,2-1.92,2H303.49c-1.4,0-1.92-.27-1.92-1.67l-.4-6.58c0-1.22.17-1.86,1.8-1.84h19.5c1.5,0,1.92.44,1.68,1.9Z"/></svg>