<svg id="Layer_1" data-name="Layer 1" xmlns="http://www.w3.org/2000/svg" viewBox="0 0 214.97 55.91"><defs><style>.cls-1{fill:#0daf4b;}</style></defs><title>krok_logo</title><path class="cls-1" d="M102.81,28a26.8,26.8,0,0,1,8.44-20.25A27.72,27.72,0,0,1,129.17.07,28.65,28.65,0,0,1,147,4.58a26.11,26.11,0,0,1,12,19.35,29,29,0,0,1-2.13,15.91,25.67,25.67,0,0,1-17.67,14.9c-8.85,2.34-17.23,1.25-24.87-4a26.12,26.12,0,0,1-11.14-17.43A30.9,30.9,0,0,1,102.81,28Zm12.76-1.2c0,8.82,4.62,16.16,13.09,17.29,5.79.78,10.75-.85,14.43-5.57a16.89,16.89,0,0,0,3.31-12.22c-.6-7.78-5.25-13.22-12.85-14.49a14.56,14.56,0,0,0-13.21,4A16,16,0,0,0,115.57,26.79Z"/><path class="cls-1" d="M65.59,41.22V55H53.12V1.3a1,1,0,0,1,1-.26,15.18,15.18,0,0,0,1.91.08q9.6,0,19.19,0a28.55,28.55,0,0,1,11.23,2C92.93,5.79,96.86,10.49,98,17.48a20.16,20.16,0,0,1-2,13.17c-2.72,5-7.14,7.87-12.51,9.39a32.3,32.3,0,0,1-9.08,1.18C71.5,41.19,68.63,41.22,65.59,41.22Zm0-10.78c2.86,0,5.54,0,8.22,0a18.8,18.8,0,0,0,5.28-.78,8.63,8.63,0,0,0,3.54-1.86c2.68-2.44,3.28-5.53,2.54-8.93-.69-3.16-2.87-5.06-5.85-6A16.13,16.13,0,0,0,74.28,12c-2.86,0-5.72,0-8.65,0Z"/><path class="cls-1" d="M0,1.21H12.24v23C19,16.61,25.35,8.79,31.73,1.07H46.34C42.7,5.57,39,9.69,35.48,13.9s-7.21,8.47-10.87,12.77L47.17,55H31.29L12.38,30.6V54.75C11,55.16,3,55.26,0,54.94Z"/><path class="cls-1" d="M192.43,26.67C199.93,36.1,207.37,45.44,215,55H199.1L180.16,30.56V54.77c-1.36.39-9.25.49-12.31.17V1.13h12.28v23l.34.14L199.55,1.09h14.67Z"/></svg>