<svg id="Layer_1" data-name="Layer 1" xmlns="http://www.w3.org/2000/svg" viewBox="0 0 211.13 60.58"><defs><style>.cls-1{fill:#0000a0;}</style></defs><title>mars_logo</title><g id="layer1"><path id="path31" class="cls-1" d="M0,59.2V.5c1.19,0,2.22.81,3.63,2.31L26.2,25.4,48.78,2.81C50,1.52,51,.5,52.57.5V59.2H40.33v-28l-14.14,14-13.94-14,0,28Z"/><path id="path41" class="cls-1" d="M84.29,1c-1.24,0-1.55.89-2.48,3l-24,55.3H70.75l2.58-6.54H92.9l2.59,6.54h15.18l-24-55.3C85.76,1.81,85.25,1,84.29,1ZM83.11,28.39l5.67,13.92H77.44Z"/><path id="path45" class="cls-1" d="M115.91,1.14V59.2h13.94V37.46h3.48c5.87,0,8.26,2,10.28,7.37a79.85,79.85,0,0,1,4,14.37h15.47L158.3,45.35c-1.91-5.61-4.38-10.05-8.9-13.07,3.68-1.55,7.94-6.79,7.94-13.94,0-11.24-8.85-17.2-20.15-17.2Zm13.94,10.35H134c6.43,0,9.34,3,9.34,7.8s-3.3,7.61-8.36,7.61h-5.08Z"/><path id="path49" class="cls-1" d="M187.89,49.64c5.83,0,8.16-3.18,8.16-6,0-10.26-28.15-5.51-28.15-25.79,0-6.33,5.32-17.9,21.31-17.9a28,28,0,0,1,19.66,8l-8,8.39c-3-3.05-6.79-5.66-12.37-5.66-4.09,0-6.46,2-6.46,5.38,0,9.41,29.09,5.81,29.09,25.84,0,8.93-6.41,18.67-22.75,18.67-11.4,0-18.32-4.7-22.24-9.45l8.06-8.49c3,3.58,6.69,7,13.69,7Z"/></g></svg>