<svg id="Layer_1" data-name="Layer 1" xmlns="http://www.w3.org/2000/svg" xmlns:xlink="http://www.w3.org/1999/xlink" viewBox="0 0 395 70.57"><defs><style>.cls-1{fill:none;}.cls-2{fill:#00985f;}.cls-3{clip-path:url(#clip-path);}</style><clipPath id="clip-path"><polyline class="cls-1" points="-626.14 585.39 -626.14 -9.89 215.75 -9.89 215.75 585.39"/></clipPath></defs><title>megafon_logo</title><path class="cls-2" d="M39.53.51V36.68h0a3,3,0,0,1-3.13,2.89H31.71a.47.47,0,0,0-.45.42V70.37c1.12,0,2.24.2,3.58.2,21,0,38-15.7,38-35.13C72.82,17.46,58.3,2.58,39.53.51Zm-.88,53.84A4.34,4.34,0,1,1,43,50,4.23,4.23,0,0,1,38.65,54.35Zm10.33,0A4.34,4.34,0,1,1,53.32,50,4.36,4.36,0,0,1,49,54.35Zm10.33,0A4.34,4.34,0,1,1,63.65,50,4.36,4.36,0,0,1,59.31,54.35Z"/><path class="cls-2" d="M35.4,0A35.17,35.17,0,0,0,0,35.13c0,16.95,11.78,31,27.13,34.31V37.82h0c.56-1.45,1.8-2.69,3.25-2.38h4.34a2,2,0,0,1,.68-.93V0ZM28.31,28.93a4.34,4.34,0,1,1,4.34-4.34A4.36,4.36,0,0,1,28.31,28.93Z"/><polygon class="cls-2" points="386.73 18.91 386.73 33.37 368.13 33.37 368.13 18.91 359.86 18.91 359.86 54.04 368.13 54.04 368.13 39.57 386.73 39.57 386.73 54.04 395 54.04 395 18.91 386.73 18.91"/><path class="cls-2" d="M240.56,23.15a8,8,0,0,0-7.23-4.76h0a8,8,0,0,0-7.24,4.76L211.83,54h9.3l3.1-8.27h18.19l3.1,8.27h9.3ZM227.13,39.57l5.37-12.81c.21-.41.41-.41.62-.41h0c.21,0,.62,0,.62.41l5.37,12.81Z"/><path class="cls-2" d="M136,12.81c-4.14,0-6.82,2.28-8.68,6.62L115.94,45.88,104.57,19.43c-1.86-4.34-4.54-6.62-8.68-6.62-3.92,0-7.85,2.69-8.83,8.68V54h8.27V22.53l13,26.24c1.45,3.72,4.14,6,7.65,6h0c3.72,0,6.2-2.28,7.65-6l11-26.24V56.11h8.26V21.7C143.84,15.71,139.91,12.81,136,12.81Z"/><path class="cls-2" d="M159.4,46.91a9.37,9.37,0,0,1-2.07-.82V39.57h22.73v-6.2H157.33V28a.83.83,0,0,1,.83-.83h21.9V18.91H155c-3.1.1-5.94,5.27-5.94,5.27V48.77S152.11,53.94,155,54h25.06V45.77H159.4Z"/><path class="cls-2" d="M196.6,54.35V27.49s-.47-.83-.06-.32h22.79V18.91H192.2s-5.17,2.79-5.94,5.48V54H196.6Z"/><path class="cls-2" d="M354,36.47c0-11.91-5.25-17.56-18.17-17.56h-3c-12.92,0-18.17,5.65-18.17,17.56h0c0,11.72,5.25,17.57,18.17,17.57h2.83c13.12-.2,18.37-5.85,18.37-17.57ZM335.6,47.84h-2.84c-7.09,0-9.93-3.24-9.93-10.33h0c0-6.89,2.43-10.34,9.93-10.34h2.84c7.29,0,9.93,3.45,9.93,10.34h0C345.53,44.6,342.89,47.84,335.6,47.84Z"/><path class="cls-2" d="M289.5,14.77h-17c-12.72,0-17.77,6.47-17.77,17.57a32.44,32.44,0,0,0,.41,4.85c1.41,7.87,6.05,12.72,18,12.72h4.05V54h8.26V49.91h3.64c11.91,0,16.56-4.85,18-12.72a33.92,33.92,0,0,0,.4-4.85C307.27,21.24,302,14.77,289.5,14.77ZM277,41.64h-3.82c-5.81,0-7.82-2.21-9-5.62a16.86,16.86,0,0,1-.41-4.81C263.75,24,267.16,21,272,21h5.22V41.64Zm21.18-5.56c-1.19,3.38-3.38,5.56-8.94,5.56h-3.78V21h5.17c4.77,0,8.15,3,8.15,10.14A30.71,30.71,0,0,1,298.18,36.08Z"/></svg>