<svg id="Layer_1" data-name="Layer 1" xmlns="http://www.w3.org/2000/svg" xmlns:xlink="http://www.w3.org/1999/xlink" viewBox="0 0 321.98 80.09"><defs><style>.cls-1{fill:none;}.cls-2{clip-path:url(#clip-path);}.cls-3{fill:#e30613;}</style><clipPath id="clip-path"><polyline class="cls-1" points="-201.14 559.51 -201.14 -35.77 640.75 -35.77 640.75 559.51"/></clipPath></defs><title>mts_logo</title><path class="cls-3" d="M28.6,0c-6,0-13,5.74-18.88,15.39C3.63,25.38,0,37.75,0,48.5,0,64.23,8.83,80.09,28.6,80.09S57.21,64.23,57.21,48.5c0-10.75-3.63-23.12-9.69-33.11C41.63,5.74,34.55,0,28.6,0Z"/><polygon class="cls-3" points="128.45 47.03 117.13 4.1 78.44 4.1 78.44 76.02 99.69 76.02 99.69 17.53 115.13 76.02 140.63 76.02 156.08 17.49 156.08 76.02 177.33 76.02 177.33 4.1 139.78 4.1 128.45 47.03"/><path class="cls-3" d="M290.71,23.72H322V4.1H290.34c-29.07,0-44.6,14.46-44.6,36s15.53,36,44.6,36H322V56.41H290.71c-13.3,0-22-4.75-22-16.35S277.41,23.72,290.71,23.72Z"/><polygon class="cls-3" points="183.05 23.71 183.05 23.72 203.48 23.72 203.48 76.02 224.73 76.02 224.73 23.72 244.34 23.72 244.34 4.1 183.05 4.1 183.05 23.71"/></svg>