<svg id="Layer_1" data-name="Layer 1" xmlns="http://www.w3.org/2000/svg" viewBox="0 0 94.01 97.2"><defs><style>.cls-1{fill:#28458e;}.cls-1,.cls-2,.cls-3,.cls-4,.cls-5{fill-rule:evenodd;}.cls-2{fill:#0096d6;}.cls-3{fill:#eb7b30;}.cls-4{fill:#00984a;}.cls-5{fill:#df002c;}</style></defs><title>pepsi_logo</title><path class="cls-1" d="M4.34,87.46h2.8c1.09,0,1.5.37,1.5,1.29S8.23,90,7.14,90H4.34ZM0,96.77H4.34V93H9c3.08,0,4.18-1.81,4.18-4.15,0-2.72-1.14-4.25-4.21-4.25H0ZM14.58,84.61H26.21v2.94H18.88v1.64h6.8v3h-6.8v1.69h7.33v2.94H14.58Zm17.77,2.85h2.79c1.09,0,1.5.37,1.5,1.29S36.23,90,35.14,90H32.35Zm-4.3,9.31h4.34V93H37c3.07,0,4.18-1.81,4.18-4.15,0-2.72-1.14-4.25-4.21-4.25H28.05Zm17.32-5.16a3.23,3.23,0,0,1-3-3.41c0-3.15,2.76-4,6.31-4,4.85,0,6.85,1.41,7,4h-5a1,1,0,0,0-.66-1A3.23,3.23,0,0,0,48.7,87c-1.29,0-1.73.35-1.73.86,0,.34.14.56.57.63l5.14.85c2.17.36,3.52,1.48,3.52,3.53,0,3-2.17,4.35-7,4.35-3.32,0-6.94-.51-6.95-4.08h5.19a.94.94,0,0,0,.46.87,3.19,3.19,0,0,0,1.46.25c1.35,0,1.71-.4,1.71-1a.8.8,0,0,0-.77-.81Zm12.27-7H62V96.77H57.64ZM78,92a5.92,5.92,0,0,1-1.84,3.78c-1.06.89-2.71,1.38-5.35,1.38s-7.47-.2-7.47-6.5,4.86-6.51,7.47-6.51,6.62.38,7.19,5.2H73.11a2.26,2.26,0,0,0-2.32-2.13c-1.76,0-2.88,1-2.88,3.44s1.09,3.44,2.67,3.44A2.37,2.37,0,0,0,73.11,92Zm5.67-1.35c0-2.48,1.12-3.45,2.88-3.45s2.88,1,2.88,3.45-1.12,3.44-2.88,3.44-2.88-1-2.88-3.44Zm-4.61,0c0,6.3,4.87,6.51,7.49,6.51S94,97,94,90.69s-4.86-6.52-7.48-6.52S79,84.38,79,90.69Z"/><path class="cls-1" d="M80.52,54.06c1-20.54-16.73-43.67-40.87-46.52l0-.28c23.8,0,42.05,22,42.05,39.41a26,26,0,0,1-.82,7.49Z"/><path class="cls-1" d="M79.08,56.67a39.48,39.48,0,0,1-5.91,5.73C68.88,37.71,50.74,16.12,37.91,9.82l-.28.19C50.53,20.6,65.92,41.16,71.9,63.37A50.35,50.35,0,0,1,62.08,69C49.9,55.11,38.56,28.34,34.9,11.36l-.37.11C34.61,28,46.32,56,60.59,69.61a49,49,0,0,1-10.15,2.81C36.75,67,27,49.63,27,31.84c0-11.61,3.54-18.79,4.23-20.27L31,11.46c-.83,1.25-6,8.43-6,21,0,20.11,9.92,35.48,23.08,40.32a45.39,45.39,0,0,1-14.1-.67l-.1.31a35.87,35.87,0,0,0,13.47,2.52,37.51,37.51,0,0,0,32.12-18Z"/><path class="cls-2" d="M45.63,0C33.14,0,18.48,9,18.48,17.26c0,3.19,2.92,5.89,9,5.89,14,0,27-9.63,27-17.12C54.48,2.09,50.69,0,45.63,0Zm5,5.8c0,6.31-12.12,14-22.25,14-4.48,0-6.9-1.76-6.9-4.66,0-6.41,12.26-14,21.77-14C49.43,1.17,50.62,4.32,50.62,5.8Z"/><path class="cls-3" d="M13.5,21.08a14,14,0,0,0-1.76,6.19c0,5.23,5.29,10.09,15,10.09,18.72,0,40.34-13.77,40.34-26.56,0-5.74-5.43-8.86-9.21-9.51l-.07.23A7.93,7.93,0,0,1,63.29,9c0,10.19-19.09,24.07-38.1,24.07-7.28,0-11.87-3.59-11.87-8.83a10.36,10.36,0,0,1,.44-3.06Z"/><path class="cls-4" d="M74.82,11.83a9.94,9.94,0,0,1,3.59,7.81c0,16.57-25.95,32.86-48.9,32.86-13.68,0-19.92-6.76-19.64-12.76h.24c.54,3.12,5,8.69,17,8.69,23,0,48.62-16.85,48.62-31.62A10,10,0,0,0,74.62,12Z"/><path class="cls-5" d="M83.49,27.22a13.76,13.76,0,0,1,.67,4.42c0,18.43-26.27,34.2-49.11,34.2-11.76,0-17.9-5.71-19.2-8l.21-.15c3.26,2.84,9.66,5,17.14,5,20.18,0,50.28-15.35,50-35.38Z"/></svg>