<svg id="Layer_1" data-name="Layer 1" xmlns="http://www.w3.org/2000/svg" viewBox="0 0 287.88 37.07"><defs><style>.cls-1{fill:#5eb02e;}.cls-2{fill:#005929;}.cls-3{fill:#1f8738;}.cls-4{fill:#abe640;}</style></defs><title>perek_logo</title><path class="cls-1" d="M20.44,10.24,16.2,14.48,12,10.24a6,6,0,1,1,8.48,0"/><path class="cls-2" d="M12,22.15l4.25-4.24,4.24,4.24a6,6,0,1,1-8.49,0"/><path class="cls-3" d="M22.15,20.44,17.91,16.2,22.15,12a6,6,0,1,1,0,8.48"/><path class="cls-4" d="M10.24,12l4.24,4.25-4.24,4.24a6,6,0,1,1,0-8.49"/><polygon class="cls-2" points="244.12 9.85 226.9 9.85 226.9 14.67 233 14.67 233 29.29 238.02 29.29 238.02 14.67 244.12 14.67 244.12 9.85"/><path class="cls-2" d="M78.16,25.29a5.37,5.37,0,0,0,4.35-1.95l4,2.34a9.86,9.86,0,0,1-8.48,4.16c-6.53,0-10.65-4.47-10.65-10.27A9.92,9.92,0,0,1,77.69,9.31c5.76,0,9.84,4.55,9.84,10.26a12.22,12.22,0,0,1-.19,2.06H72.68c.7,2.57,2.84,3.66,5.48,3.66m4.35-7.55a4.71,4.71,0,0,0-4.82-3.92,4.85,4.85,0,0,0-5.09,3.92Z"/><path class="cls-2" d="M111.84,19.57c0,5.8-4.28,10.27-9.49,10.27A7.55,7.55,0,0,1,96.05,27V37.07H91V9.85h5v2.3a7.55,7.55,0,0,1,6.3-2.84c5.21,0,9.49,4.47,9.49,10.26m-5,0a5.39,5.39,0,1,0-10.77,0,5.39,5.39,0,1,0,10.77,0Z"/><path class="cls-2" d="M125.11,25.29a5.39,5.39,0,0,0,4.35-1.95l4,2.34A9.83,9.83,0,0,1,125,29.84c-6.53,0-10.65-4.47-10.65-10.27A9.92,9.92,0,0,1,124.64,9.31c5.75,0,9.84,4.55,9.84,10.26a11.25,11.25,0,0,1-.2,2.06H119.62c.7,2.57,2.84,3.66,5.49,3.66m4.35-7.55a4.71,4.71,0,0,0-4.82-3.92,4.86,4.86,0,0,0-5.1,3.92Z"/><path class="cls-2" d="M180.64,19.57c0,5.8-4.27,10.27-9.48,10.27a7.55,7.55,0,0,1-6.3-2.84V37.07h-5V9.85h5v2.3a7.55,7.55,0,0,1,6.3-2.84c5.21,0,9.48,4.47,9.48,10.26m-5,0a5.39,5.39,0,1,0-10.77,0,5.39,5.39,0,1,0,10.77,0Z"/><path class="cls-2" d="M193.91,25.29a5.41,5.41,0,0,0,4.36-1.95l4,2.34a9.85,9.85,0,0,1-8.48,4.16c-6.53,0-10.65-4.47-10.65-10.27A9.92,9.92,0,0,1,193.44,9.31c5.76,0,9.84,4.55,9.84,10.26a12.22,12.22,0,0,1-.19,2.06H188.43c.7,2.57,2.84,3.66,5.48,3.66m-7-20.11a2.68,2.68,0,0,1,2.65-2.64,2.64,2.64,0,0,1,2.6,2.64,2.6,2.6,0,0,1-2.6,2.61A2.65,2.65,0,0,1,186.87,5.18Zm11.4,12.56a4.72,4.72,0,0,0-4.83-3.92,4.85,4.85,0,0,0-5.09,3.92Zm-4-12.56a2.68,2.68,0,0,1,2.64-2.64,2.64,2.64,0,0,1,2.61,2.64,2.61,2.61,0,0,1-2.61,2.61A2.64,2.64,0,0,1,194.26,5.18Z"/><path class="cls-2" d="M205.62,19.57A10,10,0,0,1,215.89,9.31a9.8,9.8,0,0,1,8.71,5l-4.32,2.53a4.81,4.81,0,0,0-4.43-2.6,5.09,5.09,0,0,0-5.21,5.32,5.09,5.09,0,0,0,5.21,5.29,4.8,4.8,0,0,0,4.47-2.56l4.35,2.48a9.93,9.93,0,0,1-8.78,5.06,10,10,0,0,1-10.27-10.27"/><path class="cls-2" d="M245.76,19.57A10.29,10.29,0,1,1,256,29.84a10.16,10.16,0,0,1-10.27-10.27m15.56,0a5.27,5.27,0,1,0-10.54,0,5.27,5.27,0,1,0,10.54,0Z"/><polygon class="cls-2" points="150.71 29.29 156.55 29.29 149.11 19.46 156.31 9.85 150.33 9.85 144.72 17.75 143 17.75 143 9.85 137.98 9.85 137.98 29.29 143 29.29 143 21.63 145.1 21.63 150.71 29.29"/><polygon class="cls-2" points="282.04 29.29 287.88 29.29 280.43 19.46 287.64 9.85 281.65 9.85 276.04 17.75 274.33 17.75 274.33 9.85 269.31 9.85 269.31 29.29 274.33 29.29 274.33 21.63 276.43 21.63 282.04 29.29"/><polygon class="cls-2" points="64.13 29.29 58.77 29.29 58.77 7.56 49.16 7.56 49.16 29.29 43.8 29.29 43.8 2.54 64.13 2.54 64.13 29.29"/></svg>