<svg id="Layer_1" data-name="Layer 1" xmlns="http://www.w3.org/2000/svg" xmlns:xlink="http://www.w3.org/1999/xlink" viewBox="0 0 720 720"><defs><style>.cls-1{fill:url(#radial-gradient);}.cls-2{fill:url(#radial-gradient-2);}.cls-3{fill:url(#radial-gradient-3);}.cls-4{mask:url(#mask);}.cls-5{fill:url(#radial-gradient-4);}.cls-6{fill:#fff;fill-rule:evenodd;}</style><radialGradient id="radial-gradient" cx="281.53" cy="343.72" fx="-19.258901527568185" r="381.4" gradientTransform="matrix(0.03, -1.02, 1.03, 0.03, -62.2, 624.15)" gradientUnits="userSpaceOnUse"><stop offset="0.1" stop-color="#fff"/><stop offset="0.35" stop-color="#fdfdfd"/><stop offset="0.45" stop-color="#f6f6f6"/><stop offset="0.51" stop-color="#eaeaea"/><stop offset="0.57" stop-color="#d9d9d9"/><stop offset="0.62" stop-color="#c3c3c3"/><stop offset="0.66" stop-color="#a7a7a7"/><stop offset="0.7" stop-color="#868686"/><stop offset="0.73" stop-color="#606060"/><stop offset="0.77" stop-color="#353535"/><stop offset="0.8" stop-color="#060606"/><stop offset="0.8"/></radialGradient><radialGradient id="radial-gradient-2" cx="203.62" cy="162.38" r="602.9" gradientTransform="translate(15.84 -0.43) scale(1.02 1.02)" gradientUnits="userSpaceOnUse"><stop offset="0.03" stop-color="#00a4de"/><stop offset="0.16" stop-color="#009ad6"/><stop offset="0.38" stop-color="#007ec1"/><stop offset="0.63" stop-color="#0056a3"/><stop offset="1" stop-color="#0f2368"/></radialGradient><radialGradient id="radial-gradient-3" cx="84.96" cy="25.92" r="1127.19" gradientTransform="translate(15.84 -0.43) scale(1.02 1.02)" gradientUnits="userSpaceOnUse"><stop offset="0.02" stop-color="#f3f2f9"/><stop offset="0.04" stop-color="#e5eef8"/><stop offset="0.11" stop-color="#a2d9f3"/><stop offset="0.18" stop-color="#71caf0"/><stop offset="0.23" stop-color="#52c0ee"/><stop offset="0.26" stop-color="#47bded"/><stop offset="0.28" stop-color="#42baeb"/><stop offset="0.45" stop-color="#139fda"/><stop offset="0.68" stop-color="#1864b1"/><stop offset="0.82" stop-color="#1a459c"/></radialGradient><mask id="mask" x="0" y="0.27" width="346.51" height="719.48" maskUnits="userSpaceOnUse"><path class="cls-1" d="M95.58,359.89C95.58,195,199.71,54.42,345.8.3l.09,0C153.61,7.69,0,165.9,0,360,0,554.31,153.94,712.66,346.51,719.75l-.09,0C200.06,665.75,95.58,525,95.58,359.89Z"/></mask><radialGradient id="radial-gradient-4" cx="269.09" cy="299.98" r="478.98" gradientTransform="translate(15.84 -0.43) scale(1.02 1.02)" gradientUnits="userSpaceOnUse"><stop offset="0.32" stop-color="#47bded" stop-opacity="0"/><stop offset="0.47" stop-color="#3a9dd6" stop-opacity="0.33"/><stop offset="0.61" stop-color="#2e80c3" stop-opacity="0.62"/><stop offset="0.74" stop-color="#266cb5" stop-opacity="0.83"/><stop offset="0.85" stop-color="#2160ac" stop-opacity="0.95"/><stop offset="0.92" stop-color="#1f5ba9"/></radialGradient></defs><title>pg_logo</title><path class="cls-2" d="M360,0q-7.1,0-14.11.27l-.09,0C199.71,54.42,95.58,195,95.58,359.89c0,165.1,104.48,305.86,250.84,359.83l.09,0q6.72.24,13.49.25c198.82,0,360-161.18,360-360S558.82,0,360,0Z"/><path class="cls-3" d="M95.58,359.89C95.58,195,199.71,54.42,345.8.3l.09,0C153.61,7.69,0,165.9,0,360,0,554.31,153.94,712.66,346.51,719.75l-.09,0C200.06,665.75,95.58,525,95.58,359.89Z"/><g class="cls-4"><path class="cls-5" d="M95.58,359.89C95.58,195,199.71,54.42,345.8.3l.09,0C153.61,7.69,0,165.9,0,360,0,554.31,153.94,712.66,346.51,719.75l-.09,0C200.06,665.75,95.58,525,95.58,359.89Z"/></g><path class="cls-6" d="M353.94,325.71c23.86-58.93-20.79-74.91-49.94-74.89H207.62c8,5.53,6.71,12.81,5.15,17.31L156.61,447.62c-2.25,7.11-10.63,14.56-15.14,15.75l78,0c-4.28-.78-10.43-6.87-8.22-15.22l20.39-64.91S325.53,395.87,353.94,325.71Zm-75.83-58.45c10.18,0,38.47,1.35,20.23,54.86-19.14,56.16-61.52,44.6-61.52,44.6l31.23-99.46Z"/><path class="cls-6" d="M416.31,463.37l52.46,0c-16.79-5.39-41.64-21.25-51.5-32.56,8-8.75,17.88-19.71,19.68-42H409.72a11.28,11.28,0,0,1,5.24,9.38A34.29,34.29,0,0,1,408,418c-8-11.81-16.5-25.3-19.47-45.07,10.65-5.33,25.67-11.07,37.61-21.51,11.3-9.92,13.92-19.26,14.1-25.36v-.77a23.75,23.75,0,0,0-7.08-16.93c-7.88-7.81-20.35-11-33.36-8.56a51.14,51.14,0,0,0-23.92,11.72C360,326.3,358,350.82,358,361.88c0,2.7.12,4.75.23,5.94-.9.36-2.54,1-2.54,1-11.55,4.25-42.47,12.53-53.54,37.94A48.92,48.92,0,0,0,298.71,425a40.33,40.33,0,0,0,6,21.86c7.79,12.17,21.05,19.88,42.18,19.51,23-.38,45.67-16.1,49.74-19C400.63,451.13,410.92,460.81,416.31,463.37Zm0-141.93c-2.73,17.12-24.85,34.36-30.27,36.71-1-9.62-.54-24.78,7.54-37.19,5.33-8.2,12.36-11.82,18.07-9.84C416.18,312.67,416.73,316.92,416.3,321.44ZM385.49,435.76c-3.1,1.93-15.26,8.1-26.72,9.19-10.57,1-28.17-3.12-28.13-24.33,0-18.11,19.72-31.35,30.36-36A154,154,0,0,0,385.49,435.76Z"/><path class="cls-6" d="M575.83,267.48c31.18-7.47,56.92,16.92,59.23,18.6L644,257.74c-12.35-3.7-101.85-34-165.07,38.23-38.86,44.43-48.41,135.45.91,159.85,52.84,26.11,111.12-4,115.4-6.11l24.15-76.78c2.59-9.27,8.49-15.33,18.9-19.19H554.44c12.24,5.11,11.35,14.33,10.35,18.09l-24.07,76.78c-3.22.64-70.58,17.45-32.87-100.46C516,322.84,538.72,276.41,575.83,267.48Z"/></svg>