<svg id="Layer_1" data-name="Layer 1" xmlns="http://www.w3.org/2000/svg" xmlns:xlink="http://www.w3.org/1999/xlink" viewBox="0 0 238.47 85.89"><defs><style>.cls-1{fill:none;}.cls-2{clip-path:url(#clip-path);}.cls-3{fill:#28d223;}.cls-4{clip-path:url(#clip-path-2);}</style><clipPath id="clip-path"><rect class="cls-1" width="238.47" height="85.89"/></clipPath><clipPath id="clip-path-2"><polyline class="cls-1" points="-626.14 34 -626.14 -561.28 215.75 -561.28 215.75 34"/></clipPath></defs><title>playrix_logo</title><g id="g10"><g id="g12"><g class="cls-2"><g id="g14"><g id="g20"><path id="path22" class="cls-3" d="M19.43,42.81a10,10,0,0,0,2.35,6.78,7.82,7.82,0,0,0,6,2.65,7.54,7.54,0,0,0,6-2.65,9.69,9.69,0,0,0,2.43-6.78A9.69,9.69,0,0,0,33.79,36a7.54,7.54,0,0,0-6-2.65,7.82,7.82,0,0,0-6,2.65,10,10,0,0,0-2.35,6.78M40.55,56a16.56,16.56,0,0,1-12.38,5.25,12.87,12.87,0,0,1-9-3.1V74.77H9.09V24.25h10a68.85,68.85,0,0,1,9.11-.89,16.56,16.56,0,0,1,12.38,5.25c3.34,3.47,5.05,8,5.05,13.74S43.89,52.54,40.55,56"/></g><g id="g24"><path id="path26" class="cls-3" d="M94.43,49.15A9.47,9.47,0,0,0,97,42.59a8.77,8.77,0,0,0-9.21-9,8.49,8.49,0,0,0-6.41,2.65,8.84,8.84,0,0,0-2.51,6.34,9.4,9.4,0,0,0,2.58,6.48,8.34,8.34,0,0,0,6.34,2.8,8.57,8.57,0,0,0,6.63-2.72M97,24.25h10.11V60.63H97V58a14.25,14.25,0,0,1-9.61,3.48A17.3,17.3,0,0,1,74.53,56a18.75,18.75,0,0,1-5.3-13.59,18.75,18.75,0,0,1,5.3-13.59,17.38,17.38,0,0,1,12.86-5.49,72.42,72.42,0,0,1,9.61.89"/></g><g id="g28"><path id="path30" class="cls-3" d="M163.69,34.36V60.63h-10.1V24.25h22.23V34.36Z"/></g><g id="g32"><path id="path34" class="cls-3" d="M42.44,9.09V19.2h10.1V60.63H62.65V9.09Z"/></g><g id="g36"><path id="path38" class="cls-3" d="M185.93,6.91a6.77,6.77,0,0,1,6.89,6.89,6.85,6.85,0,0,1-13.7,0,6.81,6.81,0,0,1,6.81-6.89"/></g><path id="path40" class="cls-3" d="M180.87,24.25H191V60.63H180.87Z"/><g id="g42"><path id="path44" class="cls-3" d="M207.54,24.25,213,33.53l5.5-9.28h11.88L219,41.92l12.25,18.71h-11.8L213,50.31l-6.31,10.32H194.84l12.25-18.71L195.66,24.25Z"/></g><g id="g46"><path id="path48" class="cls-3" d="M130.22,74.77H119.14l5.91-14.32-14.11-36.2h11.67l8.13,22.38,8.42-22.38h11.22Z"/></g></g></g></g></g></svg>