<svg id="Layer_2" data-name="Layer 2" xmlns="http://www.w3.org/2000/svg" viewBox="0 0 283.46 141.73"><defs><style>.cls-1{fill:#005faa;}.cls-2{fill:none;}</style></defs><title>pmi_logo</title><path class="cls-1" d="M137.2,45.13c.18.11.46,0,.75-.17.62-.33.75-.88,1-4.2.17-2.71-.47-3.71-.76-4a.77.77,0,0,0-.53-.28h0c-.46,0-.5.55-.5,1s-.06,5.52-.11,6.66c0,.56,0,.86.2,1"/><path class="cls-2" d="M162.47,62.14l-1.66,1.32c-1.74-.52-3.52-1-5.34-1.36a3,3,0,0,0,.31-.28,4.59,4.59,0,0,0,.79-2.5l0,0,.37-.53a4.48,4.48,0,0,1,1.3-1.46,9.06,9.06,0,0,1,2.37-.65h.13c.69,0,2.12,0,2.47-.87a1.07,1.07,0,0,0-.31-1.32,2,2,0,0,1-.17-.2l-.08-.15a1.31,1.31,0,0,1,.1-1.8l.05,0a.32.32,0,0,0,.1-.1,7.71,7.71,0,0,0,2.22,3.18,6.67,6.67,0,0,0,3.28,1.51,9.12,9.12,0,0,1,1.6.26,1.37,1.37,0,0,1,.54.94,1.57,1.57,0,0,1-.64,1.62A3.58,3.58,0,0,0,168.15,62a.61.61,0,0,0,0,.14h-5.69m-9-2.51a.39.39,0,0,1-.11.29c-.3.25-1.18.1-1.81,0-.31-.05-.59-.09-.84-.11a3,3,0,0,0-2.14,1l-.2.2c-1.19-.12-2.37-.22-3.54-.28H145a13.41,13.41,0,0,0,6.79-4.83A5,5,0,0,1,153.46,59.63ZM141.81,57c-5.56,0-10.09-5.49-10.09-12.24s4.53-12.25,10.09-12.25S151.89,38,151.89,44.75,147.37,57,141.81,57Zm-6.58,4-.15-.16-.06,0a3,3,0,0,0-2.14-1c-.24,0-.52.06-.83.11-.64.1-1.51.25-1.81,0a.33.33,0,0,1-.11-.29,4.94,4.94,0,0,1,1.62-3.75,13.46,13.46,0,0,0,6.78,4.82h.27C137.62,60.76,136.43,60.85,135.23,61Zm-5.32-7.65a8.23,8.23,0,0,0-2.66,4.15,2.09,2.09,0,0,1-.48-.32,3.88,3.88,0,0,0-1.94-.91,9.71,9.71,0,0,1-2.24-.79c-.23-.1-.38-.22-.41-.33a.57.57,0,0,1,.14-.41,6.29,6.29,0,0,1,1.27-.74c.64-.35,2.48-1.92,2.32-2.91a5.21,5.21,0,0,0-.65-1.34l-.29-.51a1.59,1.59,0,0,0-1.86-.73,14.25,14.25,0,0,1-3.77.26,4.89,4.89,0,0,1,2.75-1.08,5.79,5.79,0,0,0,3.26-1.57,12.5,12.5,0,0,0,2.14-2.78l.06-.13c0,.07,0,.14,0,.22v.19a6.85,6.85,0,0,1-.07,1.83c-.23.44-.3.57-.68.7a.42.42,0,0,1-.33,0,1,1,0,0,0-.68,0c-.88.32-.85.79-.81,1.43l0,.43a1.56,1.56,0,0,0,.16.67,1.6,1.6,0,0,0,.3.33,1,1,0,0,0,1,0c.1,0,.4-.15.72-.26s.91-.31,1.3-.47a18.53,18.53,0,0,0,1.63,4.91Zm-7,10.12-1.74-1.31h-9v0a1.91,1.91,0,0,0-.72-1.72l-.09-.07-.59-.5c-.33-.28-.7-.59-.81-.7a2.63,2.63,0,0,1-.23-1.13,2,2,0,0,1,0-.23,6.62,6.62,0,0,1,.17-.9s0-.16,0-.23a1.34,1.34,0,0,1,.88-.14,4.27,4.27,0,0,0,2-.09A1.8,1.8,0,0,0,114,55.15a3.23,3.23,0,0,0,2.31-1.08,4.48,4.48,0,0,0,.59-1.15l.07,0a3.86,3.86,0,0,0,2.45.43l.23,0a5.29,5.29,0,0,0-1,1.14,1.66,1.66,0,0,0-.4,1,.91.91,0,0,0,0,.23c.14.64.81,1,1.3,1.25l.06,0a12,12,0,0,0,1.46.6l.79.31a2.54,2.54,0,0,1,.73.51,5.45,5.45,0,0,0,.94.68c.75.39,1.17.55,1.65.42h.06c0,.1,0,.26,0,.32.11.81,1,.92,1.53,1l.24,0,.28.06a3.14,3.14,0,0,0,.47.89l.37.28Q125.46,62.67,122.89,63.45Zm-4.33-42.39-.39-1.2q.15-.15.3-.33h0a3.18,3.18,0,0,1,1-1.09.25.25,0,0,1,0,.09,1.56,1.56,0,0,1-.06.43,7,7,0,0,1-.61,1.77l0,0v0A.81.81,0,0,1,118.56,21.06Zm16.15,1.43a2.58,2.58,0,0,1-.52-2.67A1.76,1.76,0,0,1,135.6,19c1.69-.22,3.46.93,4.16,1.4l.81,4.35h0a16.6,16.6,0,0,0-3.21.56l0,0A11.11,11.11,0,0,1,134.71,22.49Zm7-4.41a.52.52,0,1,1-.51.51A.51.51,0,0,1,141.73,18.08Zm1.32,6.63.81-4.35c.69-.47,2.47-1.62,4.15-1.4a1.79,1.79,0,0,1,1.42.86,2.56,2.56,0,0,1-.53,2.67,11.27,11.27,0,0,1-2.63,2.78h0a16.57,16.57,0,0,0-3.22-.56Zm11.37,13.72h0l2.67.17a7.13,7.13,0,0,0,.36,2,6.29,6.29,0,0,1-.87.37,6.17,6.17,0,0,0-1.41.53,20.09,20.09,0,0,0-.79-3.05Zm3.44,7.27c0-.38.15-.43.42-.53l.22-.1.34-.16c.5-.25-.07,0,.54-.3h0a5.11,5.11,0,0,0,2.44,1.08,5.92,5.92,0,0,1,1.59.58,2.25,2.25,0,0,1,.07.7,8.52,8.52,0,0,1-4.37.15l-.13-.06a1.26,1.26,0,0,0-1-.12,1.79,1.79,0,0,0-.87,1,4,4,0,0,0,.13,3.86,9.63,9.63,0,0,0,.83,1,3,3,0,0,1,.77,1.06.27.27,0,0,1,0,.27,1.65,1.65,0,0,1-1.17.32l-.49,0a12.06,12.06,0,0,0-2.28.08,14.07,14.07,0,0,0-1.17-1.22l-.18-.17a18.72,18.72,0,0,0,1.83-6.31.92.92,0,0,0,.25-.06l.08.09a1.46,1.46,0,0,0,1.15.52C157.36,47.34,157.79,46.48,157.86,45.7ZM116.46,21h0a.65.65,0,0,0-.57.27l0,.07a9.62,9.62,0,0,1-1.16-.87,1.57,1.57,0,0,1-.35-.39,3.1,3.1,0,0,1,1.47.27h0c.18,0,.34.07.5.08l.18.55Zm65.23,14.5a1.64,1.64,0,0,1,.18-.68,1.48,1.48,0,0,0,.27-.75.6.6,0,0,0-.08-.31c-.22-.38-.71-.36-1.08-.34h-.21a5.58,5.58,0,0,1-.6-.22,6.63,6.63,0,0,0-1.28-.43,3.07,3.07,0,0,0-1,.17,4,4,0,0,1-1.3.18,5.91,5.91,0,0,1-1.26-.41,4.1,4.1,0,0,0-3,.08A4.6,4.6,0,0,0,169.87,35a6.75,6.75,0,0,0,.24,5.91c.33.61,1.51,2.6,2.13,3.45a.23.23,0,0,0,.07.07h0a2,2,0,0,0-1,2,2.39,2.39,0,0,0,0,.41.74.74,0,0,0,.32.62.38.38,0,0,0,.37-.05,2,2,0,0,1,1.26-.33A1.82,1.82,0,0,1,175,48.76a2.44,2.44,0,0,1-2.23,2.45,1.78,1.78,0,0,1-1.89-1.12,6.74,6.74,0,0,0-.67-2.45,2.22,2.22,0,0,0-.28-.33c-.36-.34-.89-.85-1-3.1A17.56,17.56,0,0,0,167,37.82a2,2,0,0,0,.5,0c.83-.11.86-1,.89-1.94l0-.45c0-.68.25-.73.62-.82l.21-.06c.47-.14.57-.36.57-.73a2.68,2.68,0,0,0,0-.39v-.29c0-.35.2-.47.56-.55h.07a2.1,2.1,0,0,0,.56-.24l.1-.06a.6.6,0,0,0,.34-.57,1.84,1.84,0,0,0-.13-.57v0a.63.63,0,0,1-.05-.21c0-.12.08-.23.35-.51a1.27,1.27,0,0,0,.41-.85.92.92,0,0,0-.17-.51l0,0a1.23,1.23,0,0,1-.16-.54c0-.13.37-.42.54-.56l.35-.33a.94.94,0,0,0,.25-.63.63.63,0,0,0-.13-.41.36.36,0,0,0-.48-.09l0,0c-.69.34-1.49-.3-2.11-.89a5,5,0,0,1-.74-1.4,5.16,5.16,0,0,0-.58-1.16,7.13,7.13,0,0,0-.6-.64,4.46,4.46,0,0,1-.77-.88,3.73,3.73,0,0,1-.32-1.08,2.93,2.93,0,0,0-.3-1,.61.61,0,0,0-.47-.31,1,1,0,0,0-.73.35,5.79,5.79,0,0,1-2.47,1h-.77c-.59,0-1.26,0-1.6,0a2.59,2.59,0,0,0-1,.36,2.29,2.29,0,0,1-.62.25,2.65,2.65,0,0,1-.64,0,4.5,4.5,0,0,0-1.3.05,1,1,0,0,0-.7.45,1.13,1.13,0,0,0,0,1l.08.18c.13.28.2.46.11.53a1.08,1.08,0,0,0-.2,1.17A1,1,0,0,0,157,25a.7.7,0,0,0,.57,0h0a2.34,2.34,0,0,1,1.57.18c.09.07.1.12.1.17,0,.33-.06.35-.59.45l-.48.11a1.2,1.2,0,0,0-.92.68.65.65,0,0,0,0,.55l.14.17c.13.16.36.42.63.79a.92.92,0,0,0,.75.47.76.76,0,0,0,.55-.28,3.24,3.24,0,0,1,1.75-.59,11.21,11.21,0,0,0,1.84-.41v.18a1.87,1.87,0,0,1-.06.58l0,.08a4.12,4.12,0,0,1-4,2.87l-1.29.09c-2.58.13-4.3.23-4.3,2.87h0a3.49,3.49,0,0,1-1.14-.1l0,0c-.1-.16-.21-.3-.32-.45a14.82,14.82,0,0,0-3-3c-.7-1.54-.4-3.42.37-4a1.11,1.11,0,0,0,.6.17,1.14,1.14,0,0,0,1.13-1.13,1.26,1.26,0,0,0-.08-.43,1.34,1.34,0,0,0,.35.05,1.32,1.32,0,0,0,1.32-1.31,1.29,1.29,0,0,0-.18-.65l.28,0a1.58,1.58,0,0,0,1.58-1.57,1.6,1.6,0,0,0-.86-1.41A1.57,1.57,0,1,0,152,17.3a1.56,1.56,0,0,0,.1-.57,1.71,1.71,0,0,0-3.2-.83,1.31,1.31,0,0,0-2.57.2,1.14,1.14,0,0,0-.86-.39,1.12,1.12,0,0,0-1,.69h-.3a.71.71,0,0,1-.77-.67c0-.41-.38-.7-.92-.7h-1.37c-.54,0-.92.29-.92.7a.72.72,0,0,1-.78.67h-.26a1.11,1.11,0,0,0-1-.69,1.12,1.12,0,0,0-.85.39,1.32,1.32,0,0,0-2.58-.2,1.69,1.69,0,0,0-1.49-.88,1.72,1.72,0,0,0-1.71,1.71,1.8,1.8,0,0,0,.1.57,1.51,1.51,0,0,0-.7-.17,1.57,1.57,0,0,0-.46,3.08,1.6,1.6,0,0,0-.86,1.41,1.58,1.58,0,0,0,1.58,1.57l.28,0a1.2,1.2,0,0,0-.18.65,1.32,1.32,0,0,0,1.32,1.31,1.34,1.34,0,0,0,.35-.05,1.27,1.27,0,0,0-.09.43A1.14,1.14,0,0,0,134,26.64a1.05,1.05,0,0,0,.65-.21c.8.6.94,2.55.29,4a14.45,14.45,0,0,0-3.07,3,18.36,18.36,0,0,0-2.67,5,5.71,5.71,0,0,0-.32-3c-1.15-2.73-3.57-3.75-5.19-4.56l-.83-.44a7.24,7.24,0,0,1-2.36-2.14l-.29-.37s0,0,0,0l.1,0a4,4,0,0,1,1.56.61l.5.42a6.21,6.21,0,0,0,.88.71,1.54,1.54,0,0,0,1.52-.06.52.52,0,0,0,.18-.44,1.7,1.7,0,0,0-.11-.51,1,1,0,0,1-.06-.19l.06,0,.26.11a1.05,1.05,0,0,0,1.15-.56,1.45,1.45,0,0,0-.53-1.83c-.38-.32-1.48-1.4-2.36-2.27-.69-.69-1.24-1.23-1.42-1.38a4.15,4.15,0,0,1-.53-.59.76.76,0,0,0,0-.73.61.61,0,0,0-.6-.17h-.12l-.08,0h-.07a11,11,0,0,0,.58-1.77,2.32,2.32,0,0,0-.35-2.16,1.39,1.39,0,0,0-1.27-.41A3.24,3.24,0,0,0,117.57,18l-.16-.5-.32.11-1.51.49.17.54a3.29,3.29,0,0,0-2.31,0,1.45,1.45,0,0,0-.79,1.09,2.35,2.35,0,0,0,1,1.95c.26.21.49.39.69.53a1.35,1.35,0,0,0-.11.09,6.42,6.42,0,0,0-.59.57l-.23.24a7.11,7.11,0,0,1-3.74,1.77.39.39,0,0,0-.34.33c-.06.32.28.69.84.93s.68,1,.4,2.47v.05a.5.5,0,0,0,.1.52c.19.17.46.14,1,0l.09,0,.19-.05a2,2,0,0,1-.07.26l0,.15,0,.15a6.83,6.83,0,0,0-.14,1.14,2,2,0,0,0,.09.62,6,6,0,0,0,.92,1.48.65.65,0,0,0,.51.23.83.83,0,0,0,.57-.34h0a3.33,3.33,0,0,1,.13.32v0a2.88,2.88,0,0,0,2,2,1,1,0,0,0,.84,0,.93.93,0,0,0,.4-.62,3.7,3.7,0,0,0,.07-.48.49.49,0,0,1,0-.12l.08.1a7.36,7.36,0,0,1,1.33,4.06,5,5,0,0,1-.18,1.37,12.31,12.31,0,0,1-.65,1.77c-.16.35-.27.69-.4,1a11.59,11.59,0,0,1-2.21,1.45l-.43.24a7,7,0,0,0-2.84,5,.66.66,0,0,0,0,.14c-1.2.41-2,.35-2.41-.18-.91-1.12-.22-2.24.77-3.59l.31-.42.31-.42.29-.37a1.43,1.43,0,0,1,0,.22l.13.53.1.42a.53.53,0,0,0,.42.46c.14,0,.37.26,1-.89.14-.25.39-.67.67-1.1l.46-.73a1.18,1.18,0,0,0-.39-1.87c-.3-.21-.28-.32,0-.83l.08-.15c.24-.48,1.24-3.62-.2-5.84-1-1.54-2.43-3-4.35-2.55a8.6,8.6,0,0,0-2.52,1.07,5.89,5.89,0,0,1-2.29.91,21.08,21.08,0,0,0-2.14.6c-.19.06-.46.15-.47.44,0,0,0,0,0,0,0,.31.34.46.76.65a2.36,2.36,0,0,1,.81.52,10.56,10.56,0,0,1-1.36,1.52.55.55,0,0,0-.28.47.28.28,0,0,0,0,.09c.06.31.38.51,1,.61h0v.1a3.71,3.71,0,0,0,.26,2.26l.09.13a8.36,8.36,0,0,1,1.08,2,1.66,1.66,0,0,1-.07.46,1,1,0,0,0,0,.81.58.58,0,0,0,.39.27c.66.15.91-.39,1.11-.81l.11-.23c.27-.55.65-1.29,1.09-2l.3-.45A5.34,5.34,0,0,0,108,38h.23a1,1,0,0,0,.39,0l.12,0c.23,0,.54-.1.61-.4s-.18-.53-.43-.73a2.38,2.38,0,0,1-.49-2c.13-.48.36-.74.7-.8a3,3,0,0,1,2.28,1.36,3.72,3.72,0,0,1,.63,2.06,3,3,0,0,1-.06.62c-.16.7-.3.77-.3.77a.45.45,0,0,1-.18,0l-.23-.06a2,2,0,0,0-1.47.33l-.12.08c-.29.2-.69.47-.64.88s.44.54.74.64a.45.45,0,0,1,.31.3,2.67,2.67,0,0,1-.68,1.77l-.18.22-.44.58c-1.74,2.24-2.31,4.4-1.55,5.94.45.93,1.59,2,4.43,2a3.75,3.75,0,0,1-.54,1.43,3,3,0,0,1-2.5,1.28l-.2,0h-.17a.87.87,0,0,0-.63.25c-.25.28-.32.81-.25,1.89a9,9,0,0,1-.19,2.79,4.44,4.44,0,0,0-.11.67,4.39,4.39,0,0,1-.1.5,3.19,3.19,0,0,0-.1.68.81.81,0,0,0,.14.5.78.78,0,0,0,.57.32l.65,0,.41,0v0a.58.58,0,0,1,0,.14h-7.23l2.3,4c-.15.28-2.13,4.14-2.13,4.14H121l1.1,3.75a59.78,59.78,0,0,1,19.73-3.46h0A59.93,59.93,0,0,1,161.59,74l1.09-3.74h19.18l-2.12-4.14c.15-.27,2.3-4,2.3-4h-8.29a8.38,8.38,0,0,0,.09-1.52c0-.22-.11-.63-.19-1s-.19-1-.19-1.1c0-.42,0-1.73,0-2,.1-.86-.82-1.55-1.27-1.88l-.14-.11A8,8,0,0,1,171,53.28,4.16,4.16,0,0,0,175.84,52a7.6,7.6,0,0,0,1-1.79l0-.07a5.52,5.52,0,0,1,.74-1.2c.42-.37,2.18-2.67,1.62-3.6-.38-.63-1.39-.27-1.72-.14-.18.06-.28-.06-.4-.55s-.34-1.43-.36-1.58v0c0-.19-.06-.57-.37-.73a.7.7,0,0,0-.67.09.39.39,0,0,1-.31.08.39.39,0,0,1-.21-.24c-.09-.21-.24-.71-.33-1l-.07-.23,0-.16c0-.2-.11-.49-.39-.56s-.49.13-.68.34l-.41.49a4,4,0,0,1-1.46-4,2.7,2.7,0,0,1,1.34-2.18,3.28,3.28,0,0,1,2.49,0l.15.07a1.48,1.48,0,0,1,.27.16l-.09.07,0,0,0,0a2.23,2.23,0,0,0-.62,1.52c0,1.26,1.06,2.49,1.85,3.33v0c0,1.14.28,2.89,1.06,3.59a1.41,1.41,0,0,0,1.1.37,6.25,6.25,0,0,0,1.78-.72c.17-.07.65-.55-.13-.75s-.57-.9-.53-1.25a6.44,6.44,0,0,1,.61-1.78,1.86,1.86,0,0,0,.14-.75,4,4,0,0,0-.27-1.36,1.73,1.73,0,0,0,.4-.09,1.1,1.1,0,0,0,.75-.68.68.68,0,0,0,0-.2.89.89,0,0,0-.22-.57A.7.7,0,0,1,181.69,35.52Z"/><polyline class="cls-1" points="124.88 71.1 124.34 71.26 123.59 68.71 124.12 68.56 124.88 71.1"/><polyline class="cls-1" points="125.26 68.23 125.82 68.08 127.28 69.61 126.82 67.83 127.33 67.7 127.98 70.28 127.44 70.41 125.95 68.86 126.41 70.67 125.91 70.81 125.26 68.23"/><polyline class="cls-1" points="130.41 67.06 130.5 67.51 129.72 67.67 130.15 69.82 129.61 69.93 129.18 67.78 128.4 67.93 128.31 67.48 130.41 67.06"/><polyline class="cls-1" points="133.4 67.07 132.04 67.27 132.12 67.82 133.37 67.64 133.44 68.09 132.19 68.28 132.29 68.96 133.72 68.74 133.79 69.22 131.83 69.51 131.43 66.89 133.33 66.6 133.4 67.07"/><path class="cls-1" d="M135.09,66.86l.07.71.6-.06a.58.58,0,0,0,.26-.07.32.32,0,0,0,.13-.31.34.34,0,0,0-.19-.31.52.52,0,0,0-.26,0l-.61.06m1.11-.51a.62.62,0,0,1,.26.17.59.59,0,0,1,.15.2.77.77,0,0,1,.08.28.86.86,0,0,1-.06.38.53.53,0,0,1-.29.28.49.49,0,0,1,.28.19.86.86,0,0,1,.12.4l0,.18a1.85,1.85,0,0,0,0,.24.26.26,0,0,0,.12.15v.06l-.61.06c0-.06,0-.1-.05-.14a.78.78,0,0,1,0-.22l0-.25a.51.51,0,0,0-.12-.32.45.45,0,0,0-.33-.06l-.53.06.1,1-.54,0-.26-2.64,1.26-.12A1.16,1.16,0,0,1,136.2,66.35Z"/><polyline class="cls-1" points="137.8 66.16 138.38 66.13 139.5 67.92 139.41 66.08 139.93 66.06 140.05 68.71 139.5 68.74 138.35 66.92 138.44 68.78 137.92 68.81 137.8 66.16"/><path class="cls-1" d="M141.84,67.69h.68l-.33-1-.35,1m0-1.65h.63l.92,2.66h-.6l-.17-.54h-1l-.18.54h-.58Z"/><polyline class="cls-1" points="146.09 66.18 146.07 66.64 145.28 66.6 145.16 68.79 144.61 68.76 144.72 66.57 143.93 66.53 143.95 66.07 146.09 66.18"/><polyline class="cls-1" points="147.33 68.95 146.78 68.9 147 66.25 147.56 66.3 147.33 68.95"/><path class="cls-1" d="M150.15,68.62a1.11,1.11,0,0,0,.27-.66,1.07,1.07,0,0,0-.1-.71.69.69,0,0,0-1-.13,1.12,1.12,0,0,0-.28.66,1,1,0,0,0,.11.7.6.6,0,0,0,.48.31.64.64,0,0,0,.55-.17m.29.45a1.17,1.17,0,0,1-.9.19,1.15,1.15,0,0,1-.82-.42,1.39,1.39,0,0,1-.26-1.13,1.37,1.37,0,0,1,.54-1,1.13,1.13,0,0,1,.9-.2,1.17,1.17,0,0,1,.82.42A1.41,1.41,0,0,1,151,68,1.45,1.45,0,0,1,150.44,69.07Z"/><polyline class="cls-1" points="152.24 66.9 152.81 67 153.49 69 153.82 67.19 154.33 67.28 153.85 69.9 153.31 69.8 152.6 67.76 152.26 69.6 151.75 69.51 152.24 66.9"/><path class="cls-1" d="M155.84,69.31l.66.16-.08-1.09-.58.93m.41-1.6.62.15.29,2.8-.59-.14,0-.57-.95-.23-.3.49-.57-.14Z"/><polyline class="cls-1" points="158.75 68.35 159.28 68.5 158.66 70.6 159.93 70.97 159.8 71.43 158 70.9 158.75 68.35"/><path class="cls-1" d="M124.11,65.52a.39.39,0,0,0-.3,0l-.47.14.21.75.48-.14a.48.48,0,0,0,.25-.18.4.4,0,0,0,0-.31.41.41,0,0,0-.18-.26m.68.8a.92.92,0,0,1-.58.37l-.52.16.26.91-.53.16-.75-2.55,1.09-.32a.93.93,0,0,1,.66,0,.84.84,0,0,1,.41.55A.86.86,0,0,1,124.79,66.32Z"/><polyline class="cls-1" points="126.62 67.02 126.02 64.43 126.56 64.31 126.79 65.3 127.78 65.06 127.55 64.08 128.1 63.95 128.7 66.53 128.16 66.67 127.89 65.51 126.89 65.74 127.17 66.89 126.62 67.02"/><polyline class="cls-1" points="130.63 66.16 130.08 66.26 129.6 63.65 130.14 63.55 130.63 66.16"/><polyline class="cls-1" points="131.67 63.29 132.22 63.21 132.53 65.37 133.84 65.18 133.91 65.65 132.05 65.92 131.67 63.29"/><polyline class="cls-1" points="135.72 65.46 135.16 65.51 134.89 62.87 135.45 62.81 135.72 65.46"/><path class="cls-1" d="M138.38,63.15a.38.38,0,0,0-.29-.07l-.49,0,0,.78.49,0a.35.35,0,0,0,.28-.11.38.38,0,0,0,.09-.31.37.37,0,0,0-.12-.28m.49.93a1.1,1.1,0,0,1-.65.23l-.55,0,.06,1-.56,0L137,62.67l1.14-.06a.86.86,0,0,1,.63.17.78.78,0,0,1,.28.62A.9.9,0,0,1,138.87,64.08Z"/><path class="cls-1" d="M144.25,62.55l.79,0L145,65.23l-.51,0,.05-1.79a2,2,0,0,1,0-.22c0-.09,0-.16,0-.21L144,65.2l-.53,0L143,62.94a1.28,1.28,0,0,0,0,.22,1.22,1.22,0,0,1,0,.21l-.05,1.8-.52,0,.09-2.65.8,0,.42,2.11.54-2.08"/><path class="cls-1" d="M148.12,64.83a1.11,1.11,0,0,0,.25-.67,1.09,1.09,0,0,0-.13-.7.63.63,0,0,0-.49-.29.66.66,0,0,0-.55.2,1.32,1.32,0,0,0-.12,1.36.64.64,0,0,0,.5.29.62.62,0,0,0,.54-.19m.3.43a1.18,1.18,0,0,1-.89.24,1.15,1.15,0,0,1-.83-.39,1.44,1.44,0,0,1-.31-1.13,1.43,1.43,0,0,1,.5-1,1.18,1.18,0,0,1,.9-.23,1.13,1.13,0,0,1,.83.39,1.36,1.36,0,0,1,.3,1.12A1.39,1.39,0,0,1,148.42,65.26Z"/><path class="cls-1" d="M151,63.62l-.11.71.59.09a.74.74,0,0,0,.27,0c.12,0,.18-.12.21-.27a.34.34,0,0,0-.11-.34.55.55,0,0,0-.25-.09l-.6-.09m1.19-.21a.63.63,0,0,1,.22.21.82.82,0,0,1,.1.24.93.93,0,0,1,0,.29.78.78,0,0,1-.15.35.53.53,0,0,1-.36.21.5.5,0,0,1,.23.25.82.82,0,0,1,0,.42l0,.18a1.84,1.84,0,0,0,0,.24.3.3,0,0,0,.08.17V66l-.6-.09c0-.06,0-.11,0-.14a.86.86,0,0,1,0-.23l0-.25a.48.48,0,0,0,0-.34c0-.07-.14-.11-.3-.14l-.53-.08-.15,1-.54-.08.4-2.62,1.25.18A1.22,1.22,0,0,1,152.18,63.41Z"/><path class="cls-1" d="M154.63,64.25l-.14.7.58.12a.62.62,0,0,0,.26,0,.3.3,0,0,0,.22-.26.36.36,0,0,0-.08-.35.45.45,0,0,0-.24-.1l-.6-.13m1.2-.15a.81.81,0,0,1,.21.24.68.68,0,0,1,.08.24,1,1,0,0,1,0,.29.84.84,0,0,1-.17.34.53.53,0,0,1-.36.19.47.47,0,0,1,.21.26,1,1,0,0,1,0,.42l0,.18a1.52,1.52,0,0,0,0,.24.24.24,0,0,0,.06.17v.06l-.6-.13v-.14a.9.9,0,0,1,0-.23l0-.24a.48.48,0,0,0,0-.35.38.38,0,0,0-.29-.14l-.53-.12-.21,1-.53-.12.54-2.59,1.25.26A1.22,1.22,0,0,1,155.83,64.1Z"/><polyline class="cls-1" points="157.61 67.2 157.07 67.06 157.73 64.49 158.27 64.63 157.61 67.2"/><path class="cls-1" d="M159.62,66.91a.63.63,0,0,0,0,.28.62.62,0,0,0,.4.3,1.39,1.39,0,0,0,.32.05.32.32,0,0,0,.31-.23.22.22,0,0,0,0-.23,1.25,1.25,0,0,0-.31-.22l-.26-.15a2.12,2.12,0,0,1-.49-.36.68.68,0,0,1-.09-.63.79.79,0,0,1,.42-.49,1.12,1.12,0,0,1,.81,0,1.15,1.15,0,0,1,.62.42.77.77,0,0,1,.11.71l-.51-.16a.38.38,0,0,0-.1-.38.71.71,0,0,0-.3-.16.61.61,0,0,0-.35,0,.28.28,0,0,0-.19.19.25.25,0,0,0,.05.25,2.43,2.43,0,0,0,.31.2l.41.24a1.22,1.22,0,0,1,.37.32.63.63,0,0,1,.07.59.74.74,0,0,1-.44.49,1.18,1.18,0,0,1-.83,0,1.28,1.28,0,0,1-.71-.46.74.74,0,0,1-.09-.71l.51.16"/><path class="cls-1" d="M141.81,32.5c5.56,0,10.08,5.49,10.08,12.25S147.37,57,141.81,57s-10.09-5.49-10.09-12.24,4.53-12.25,10.09-12.25m0,25.11h0c5.9,0,10.7-5.77,10.7-12.86s-4.8-12.87-10.7-12.87h0c-5.9,0-10.7,5.77-10.7,12.87S135.9,57.61,141.8,57.61Z"/><path class="cls-2" d="M138.11,17.35a.51.51,0,0,0,.52-.51.52.52,0,1,0-.52.51Z"/><path class="cls-2" d="M141.18,24.69l.62,0,.63,0h0l1.45-7.78a1.24,1.24,0,0,1-1.11-1.17c0-.15-.18-.17-.29-.17h-1.37c-.11,0-.3,0-.3.17a1.26,1.26,0,0,1-1.07,1.17l1.44,7.78Zm-.58-6.1a1.13,1.13,0,1,1,1.13,1.13A1.14,1.14,0,0,1,140.6,18.59Z"/><path class="cls-2" d="M136,16.94a.7.7,0,1,0-.7-.7A.7.7,0,0,0,136,16.94Z"/><path class="cls-2" d="M140.57,24.71l-.81-4.35c-.7-.47-2.47-1.62-4.16-1.4a1.76,1.76,0,0,0-1.41.86,2.58,2.58,0,0,0,.52,2.67,11.11,11.11,0,0,0,2.63,2.77l0,0a16.6,16.6,0,0,1,3.21-.56Z"/><path class="cls-2" d="M133.19,17.82a1.09,1.09,0,1,0-1.09-1.09A1.09,1.09,0,0,0,133.19,17.82Z"/><path class="cls-2" d="M137.19,46.35c0-.21,0-.45.32-.56l.06,0c2-.7,3.1-2.49,3.1-5.05,0-4-2.25-4.8-2.85-4.8A1.6,1.6,0,0,0,136.38,37a1.1,1.1,0,0,1-.72.46h0c-.29.11-.44.19-.44.66,0,.1,0,.21,0,.35.06.61.09,1.82.09,3.29,0,3.38-.19,8.09-.71,9.63a.56.56,0,0,0-.05.19.15.15,0,0,0,0,.1c.06.05.14,0,.26,0,.44-.28,1.91-1.48,2.34-5.23Z"/><path class="cls-2" d="M142.24,18.59a.51.51,0,1,0-.51.52A.51.51,0,0,0,142.24,18.59Z"/><path class="cls-2" d="M134,25a.52.52,0,1,0,.51.51A.51.51,0,0,0,134,25Z"/><path class="cls-2" d="M136.64,25.47a13.17,13.17,0,0,1-2.45-2.7,3,3,0,0,1-.56-3.17,2.38,2.38,0,0,1,1.88-1.16,6.76,6.76,0,0,1,4.11,1.16l-.44-2.36h0A1.13,1.13,0,0,1,137,17a1.31,1.31,0,0,1-2.13,0,1.71,1.71,0,0,1-2.49,1.24,1.49,1.49,0,0,1,.07.47,1.59,1.59,0,0,1-.86,1.41,1.57,1.57,0,0,1,1.12,1.51,1.63,1.63,0,0,1-.27.89h.12a1.32,1.32,0,0,1,1.17,1.91.86.86,0,0,1,.23,0,1.12,1.12,0,0,1,1.12,1.12,2.28,2.28,0,0,1,0,.26,2.55,2.55,0,0,1,.19.26q.69-.3,1.41-.54Z"/><path class="cls-2" d="M139.54,51.48s.1,0,.45-.23c1.44-1,2-2.87,2.49-4.39l.25-.77a.17.17,0,0,1,0-.05.48.48,0,0,1,.07.17c0,.09.22.84.45,1.71.31,1.24.71,2.78.78,3s.09.27.14.26.05,0,.07-.13l0-.13c0-.09.13-.56.27-1.2.3-1.39.76-3.49.92-4v0s0,0,0,.19c0,.32,1,4.47,3,5.79,0,0,0,0,0,0s.15.15.21.12,0-.09,0-.3A41.88,41.88,0,0,1,147.4,37l0-.08c0-.15,0-.24,0-.27s-.11,0-.3.29a35,35,0,0,0-2.48,6.23l-.05.11s0,0,0-.11-1.37-4.65-2.32-6l0-.08c-.09-.16-.14-.22-.19-.2s0,.07,0,.24c.59,3.07-.3,10-2.3,14C139.55,51.34,139.49,51.43,139.54,51.48Z"/><path class="cls-2" d="M131.84,18.7a1,1,0,1,0-1,1A1,1,0,0,0,131.84,18.7Z"/><path class="cls-2" d="M141.77,27.13a13.54,13.54,0,0,0-5.84,1.31,5.54,5.54,0,0,1-.18,1.45,11.64,11.64,0,0,1,12.1,0,5.49,5.49,0,0,1-.16-1.44A13.61,13.61,0,0,0,141.77,27.13Z"/><path class="cls-2" d="M132.56,23.12a.7.7,0,0,0,0,1.4.7.7,0,1,0,0-1.4Z"/><path class="cls-2" d="M131.14,20.65a1,1,0,1,0,1,1A1,1,0,0,0,131.14,20.65Z"/><path class="cls-2" d="M148.9,22.49a2.56,2.56,0,0,0,.53-2.67A1.79,1.79,0,0,0,148,19c-1.68-.22-3.46.93-4.15,1.4l-.81,4.35h0a16.57,16.57,0,0,1,3.22.56h0A11.27,11.27,0,0,0,148.9,22.49Z"/><path class="cls-2" d="M141.8,25.29a15.73,15.73,0,0,0-6.28,1.3,3.52,3.52,0,0,1,.37,1.2,14.23,14.23,0,0,1,11.86,0,3.61,3.61,0,0,1,.4-1.2A15.75,15.75,0,0,0,141.8,25.29Z"/><path class="cls-2" d="M154.38,38.43a20.53,20.53,0,0,1,.79,3.06,6.17,6.17,0,0,1,1.41-.53,6.29,6.29,0,0,0,.87-.37,7.13,7.13,0,0,1-.36-2Z"/><path class="cls-2" d="M149.67,25a.52.52,0,1,0,.52.51A.51.51,0,0,0,149.67,25Z"/><path class="cls-2" d="M157.13,38a3.21,3.21,0,0,1,.42-1.22,1.13,1.13,0,0,1-.65-.29,1.18,1.18,0,0,1-.37-.78,2,2,0,0,1-1.4.71,2.16,2.16,0,0,1-1.87-1.83,3.76,3.76,0,0,1-.75,0,17.69,17.69,0,0,1,1.63,3.22Z"/><path class="cls-2" d="M155.14,35.79c.63,0,1.28-.89,1.56-1.29a2.38,2.38,0,0,1,1.7-1.44c.8-.16,3.76-.47,5-.58a4.46,4.46,0,0,0,3.51-1.91,8.28,8.28,0,0,0,.73-4.19c-.3-1.34.19-.61.29-.14a9.23,9.23,0,0,1-.49,4.64,5,5,0,0,1-4,2.21c-1.29.11-4.2.43-5,.58a1.79,1.79,0,0,0-1.39,1.83.72.72,0,0,0,.19.53c.22.2.65.16,1,.13h.18l.59,0c1.23-.12.89-.28.68.47,0,0,0,0,0,0a.69.69,0,0,0,0,.15c0,.12.46.09.59,0,.39-.16,1.75-.76,2-.91l.36-.22c1.78-1.43.9-.56.93.27a12,12,0,0,0,.25,1.65c.06.28.16.4.23.43a.12.12,0,0,0,.13,0l.13-.07a2.28,2.28,0,0,0,.91-1.07c.12-.24.21-.43.29-.57.56-1.05.43-1.33.82-.14,0,0,.12.44.16.56a1.07,1.07,0,0,0,1,.5c.28,0,.32-.45.35-1.34l0-.46c0-1.15.68-1.29,1.1-1.39l.17,0,.13,0a.19.19,0,0,0,0-.08c0-.09,0-.23,0-.37l0-.22v-.11A1.13,1.13,0,0,1,170.22,32h.06a1.61,1.61,0,0,0,.4-.18l.1-.06h0v0a1.89,1.89,0,0,0-.09-.36l0-.05a1.29,1.29,0,0,1-.08-.41c0-.26.13-.52.52-.93.18-.19.24-.32.24-.41a.33.33,0,0,0-.07-.18l0,0a1.7,1.7,0,0,1-.26-.82v-.05c0-.38.38-.7.76-1l.3-.27,0-.06c-1,.21-2-.74-2.45-1.12a5.24,5.24,0,0,1-.88-1.61,5.61,5.61,0,0,0-.49-1,7.24,7.24,0,0,0-.55-.58,5.33,5.33,0,0,1-.88-1,4,4,0,0,1-.38-1.27,3.15,3.15,0,0,0-.22-.81l0,0a.69.69,0,0,0-.21.15A6.16,6.16,0,0,1,163.11,21h-.79c-.55,0-1.23,0-1.54,0a2.09,2.09,0,0,0-.75.29,3.41,3.41,0,0,1-.81.32,3.21,3.21,0,0,1-.76,0,4.55,4.55,0,0,0-1.15,0,.43.43,0,0,0-.28.14.2.2,0,0,0,0,.09,1.29,1.29,0,0,0,.1.35l.07.14a1.75,1.75,0,0,1,.21.72.71.71,0,0,1-.26.55.23.23,0,0,0-.06.19,1.3,1.3,0,0,0,.05.33c.07.22.12.26.13.27l.08,0h0a2.93,2.93,0,0,1,2.13.29.82.82,0,0,1,.32.65v0c0,.83-.56.94-1.08,1l-.44.1c-.4.1-.5.25-.5.32l.05.07a9.23,9.23,0,0,1,.67.84c.11.16.2.21.25.21s.07,0,.09-.07l0,0,0,0a4,4,0,0,1,2.09-.73,11.67,11.67,0,0,0,2-.5l.38-.15,0,.4a3.8,3.8,0,0,1-.06,1.43l0,.07a4.8,4.8,0,0,1-4.54,3.29l-1.31.08c-2.67.15-3.77.21-3.71,2.45C153.83,34.89,154.41,35.77,155.14,35.79Zm7.65-13.17a3.27,3.27,0,0,0-.6.19.94.94,0,0,1-.75-.06c-.19-.13-.53-.44-.53-.6a.33.33,0,0,1,.27-.28,1.81,1.81,0,0,1,1.36.25c.13.11.33.21.39.26S163.05,22.55,162.79,22.62Z"/><path class="cls-2" d="M151.07,23.12a.7.7,0,1,0,.7.7A.7.7,0,0,0,151.07,23.12Z"/><path class="cls-2" d="M145.51,17.35a.51.51,0,0,0,.51-.51.51.51,0,0,0-1,0A.51.51,0,0,0,145.51,17.35Z"/><path class="cls-2" d="M147.68,16.94a.7.7,0,1,0-.7-.7A.69.69,0,0,0,147.68,16.94Z"/><path class="cls-2" d="M148.1,18.44A2.4,2.4,0,0,1,150,19.6a3,3,0,0,1-.57,3.17,13.21,13.21,0,0,1-2.44,2.7l0,0a12.76,12.76,0,0,1,1.41.54,2.44,2.44,0,0,1,.22-.23,1.54,1.54,0,0,1,0-.3,1.13,1.13,0,0,1,1.13-1.12.9.9,0,0,1,.23,0,1.3,1.3,0,0,1,1.17-1.91h.12a1.64,1.64,0,0,1-.28-.89A1.57,1.57,0,0,1,152,20.11a1.59,1.59,0,0,1-.86-1.41,1.5,1.5,0,0,1,.08-.47,1.73,1.73,0,0,1-.81.2A1.71,1.71,0,0,1,148.75,17a1.29,1.29,0,0,1-1.07.57,1.32,1.32,0,0,1-1.06-.53,1.13,1.13,0,0,1-2.17.2h0L144,19.6A6.71,6.71,0,0,1,148.1,18.44Z"/><path class="cls-2" d="M152.75,19.66a1,1,0,1,0-1-1A1,1,0,0,0,152.75,19.66Z"/><path class="cls-2" d="M150.44,17.82a1.09,1.09,0,1,0-1.09-1.09A1.09,1.09,0,0,0,150.44,17.82Z"/><path class="cls-2" d="M152.49,20.65a1,1,0,1,0,1,1A1,1,0,0,0,152.49,20.65Z"/><path class="cls-2" d="M121.15,62.14l1.74,1.31q2.56-.78,5.28-1.35l-.37-.28a2.91,2.91,0,0,1-.47-.89l-.28-.06-.24,0c-.57-.07-1.42-.18-1.53-1,0-.06,0-.22,0-.32h-.06c-.48.13-.9,0-1.65-.42a5.45,5.45,0,0,1-.94-.68,2.54,2.54,0,0,0-.73-.51l-.79-.31a12,12,0,0,1-1.46-.6l-.06,0c-.49-.25-1.16-.61-1.3-1.25a.91.91,0,0,1,0-.23,1.66,1.66,0,0,1,.4-1,5.29,5.29,0,0,1,1-1.14l-.23,0A3.86,3.86,0,0,1,117,53l-.07,0a4.48,4.48,0,0,1-.59,1.15A3.23,3.23,0,0,1,114,55.15a1.8,1.8,0,0,1-1.13,1.24,4.27,4.27,0,0,1-2,.09,1.34,1.34,0,0,0-.88.14c0,.07,0,.23,0,.23a6.62,6.62,0,0,0-.17.9,2,2,0,0,0,0,.23,2.63,2.63,0,0,0,.23,1.13c.11.11.48.42.81.7l.59.5.09.07a1.91,1.91,0,0,1,.72,1.72v0Z"/><path class="cls-2" d="M107.24,38l0,0v0a3,3,0,0,1-.62,1.73c-.45.77-.8,1.07-1.17,1s-.56-.54-.64-.83l0-.12a4.5,4.5,0,0,1-.22-1.28v-.07a1.77,1.77,0,0,1-1.4.36h0c0,.23,0,.52,0,.82a2,2,0,0,0,.22,1l.09.13a7.18,7.18,0,0,1,1.18,2.3v.09a2.52,2.52,0,0,1-.09.57,1.63,1.63,0,0,0-.07.33c.14,0,.19,0,.41-.48l.12-.24c.27-.55.65-1.31,1.11-2.08l.32-.48a4.78,4.78,0,0,0,1-2.89Z"/><path class="cls-2" d="M111.83,49.79c-.7.23-2,.53-2.85-.45-1.27-1.58,0-3.24.76-4.34l.3-.42.28-.36.27-.44.28-.48a.39.39,0,0,1,.41-.23c.26,0,.41.23.57,1.19l.11.45.06.23c0,.08.21-.24.24-.3a9.86,9.86,0,0,1,.71-1.19l.45-.72a1,1,0,0,0,.21-.52c0-.18-.14-.32-.42-.51a1,1,0,0,1-.49-.8,1.94,1.94,0,0,1,.27-.82l.08-.15a6.94,6.94,0,0,0,.49-2.64,4.41,4.41,0,0,0-.65-2.57c-1.36-1.9-2.45-2.58-3.7-2.3a7.91,7.91,0,0,0-2.35,1,6.49,6.49,0,0,1-2.51,1,16.36,16.36,0,0,0-1.64.47,2.32,2.32,0,0,1,1.15.89.6.6,0,0,1,0,.31A7.34,7.34,0,0,1,102.36,38l.28.06a2.88,2.88,0,0,0,.61.17c.29,0,.44,0,.93-.27s.83-.64,1.09-.44a.33.33,0,0,1,.15.28,1,1,0,0,1-.11.39,1.2,1.2,0,0,0,0,.36v.09a3.65,3.65,0,0,0,.13,1l0,.15c0,.07.07.22.11.31a2.62,2.62,0,0,0,.48-.66,2.6,2.6,0,0,0,.53-1.35V38c.14-.94,1.35-.68,1.72-.64a.46.46,0,0,0,.16,0l.12,0,0,0a2.79,2.79,0,0,1-.81-2,2.08,2.08,0,0,1,.12-.66A1.44,1.44,0,0,1,109,33.49c1.09-.18,2.36.86,2.89,1.62a4.28,4.28,0,0,1,.66,3.16c-.15.67-.32,1-.59,1.18a.79.79,0,0,1-.67,0l-.16,0a1.37,1.37,0,0,0-1,.21l-.16.1a1.93,1.93,0,0,0-.34.29,1.43,1.43,0,0,0,.3.14,1,1,0,0,1,.7.71,1.06,1.06,0,0,1,0,.35,3.64,3.64,0,0,1-.84,2l-.19.22-.42.57c-1.57,2-2.12,4-1.49,5.29.54,1.08,2,1.66,4,1.68C111.77,50.63,111.8,50.25,111.83,49.79Z"/><path class="cls-2" d="M108.64,61.31c1.3,0,.83,0,.66.7h0a1.8,1.8,0,0,1,0,.19c0,.13-.34.52-.16.64a1.54,1.54,0,0,0,1.07.25h.14c1,0,1.26-.07,1.28-.87s-.24-1.14-.5-1.36l-.1-.08-.58-.49c-.35-.3-.72-.6-.85-.73a3,3,0,0,1-.39-1.88,9.57,9.57,0,0,1,.19-1l.05-.26c.08-.49.95-.65,1.55-.59a3.91,3.91,0,0,0,1.67,0,1.21,1.21,0,0,0,.77-.83c-.54-.21-.67-.13-.85,0s-.2.29-1.16.21c-.16,0-.6-.16-.58-.34s.62-.13.79-.12c.49,0,.4-.15.65-.29a1.56,1.56,0,0,1,1.57.07c.53.23,1.6-.33,2-.8a6.09,6.09,0,0,0,.65-1.37,20.9,20.9,0,0,1,.92-2.06A5.54,5.54,0,0,1,122,47.06a5.33,5.33,0,0,0,2.9-1.41,12.22,12.22,0,0,0,2-2.62l.31-.62a.67.67,0,0,0-.18-.07c-2.51-.79-3.34-1-3.61-1.07a3.91,3.91,0,0,1-1.65-.65.3.3,0,0,1,.43-.43,3.66,3.66,0,0,0,1.32.46c.41.07,1.62.43,3.69,1.09,1.22.39,1,1,.93,1.51l0,.63c0,.93.07,1.44-.16,1.85a1.66,1.66,0,0,1-1,1,1,1,0,0,1-.71,0,.35.35,0,0,0-.3,0c-.45.16-.45.2-.41.81l0,.44c0,.18,0,.41.17.49a.47.47,0,0,0,.42,0l.77-.27a15.94,15.94,0,0,0,1.74-.68.44.44,0,0,0,.21-.44,2.6,2.6,0,0,0,0-.36l0-.32a20.58,20.58,0,0,1-.07-2.11,15.54,15.54,0,0,1,.25-2c.08-.38.15-.75.19-1s0-.21,0-.3c0-.33-.12-.45-.42-.7-.55-.46-1.8-1.29-3-2.1a20.85,20.85,0,0,1-3.09-2.23l-.07-.08c-.43.38-1.33.16-2.05-.11a1.9,1.9,0,0,1-.72-.39.78.78,0,0,1-.83.41l-.24-.05a6.79,6.79,0,0,1,.24,4,11.57,11.57,0,0,1-.69,1.86,10.07,10.07,0,0,0-.42,1,1.26,1.26,0,0,1-.65.64c-.57.34-1.25.78-1.8,1.09l-.42.23A6.4,6.4,0,0,0,112.5,49c-.13,2.39-.28,3.35-.89,4.32a3.67,3.67,0,0,1-3,1.57l-.18,0h-.21a.48.48,0,0,0-.21,0c0,.05-.12.2-.12.77,0,.18,0,.4,0,.67s0,.6,0,.85a9.36,9.36,0,0,1-.23,2.11,3.58,3.58,0,0,0-.08.59,4.11,4.11,0,0,1-.08.6,1.65,1.65,0,0,0-.08.65s0,0,.11,0l.58,0a3,3,0,0,1,.43,0Z"/><path class="cls-2" d="M119.52,18.42a3.18,3.18,0,0,0-1,1.09h0q-.15.18-.3.33l.38,1.21a.86.86,0,0,0,.28-.31v-.05a6.22,6.22,0,0,0,.62-1.77,1.56,1.56,0,0,0,.06-.43S119.52,18.45,119.52,18.42Z"/><path class="cls-2" d="M119.58,64.54c.85-.3,1.71-.6,2.59-.87l-1.23-.91h-8.82c-.25.89-1.07.92-1.8.94h-.13a5.71,5.71,0,0,1-1-.07.88.88,0,0,1-.65-.41.76.76,0,0,1-.1-.39s0-.05,0-.08h-6l1.93,3.35s-1.46,2.83-1.81,3.53h18.28l-1.46-5Z"/><path class="cls-2" d="M115.82,20.38h0a3.1,3.1,0,0,0-1.47-.27,1.57,1.57,0,0,0,.35.39,9.62,9.62,0,0,0,1.16.87l0-.07a.65.65,0,0,1,.57-.27h.06l-.18-.55c-.16,0-.32,0-.5-.08Z"/><path class="cls-2" d="M119.4,34.83c.14-.68,0-1,.64-.2.21.29.24.32.74.51.85.32,1.33.31,1.44.23.08-.48-.37-1,.63-.17h0a1.3,1.3,0,0,1,.3.33,6.28,6.28,0,0,0,.89.69l.58-.27c.37-.23.58-.44.62-.64s-.26-.65-.58-1.16c-.74-1.19-2.71-1.54-4-1.69l-.88-.13a10.43,10.43,0,0,1-4.59-2.06c-1.72-1.54-1-4.34-.84-5.17.14-.39.17,0,.14.15-.15.75-.35,3.25,1.11,4.56a9.52,9.52,0,0,0,4.21,1.89l.92.14c1.37.17,3.49.49,4.38,1.93.38.61.8,1.1.69,1.66a1.68,1.68,0,0,1-.89,1l-.31.16,1.47,1c.81.54,1.65,1.1,2.28,1.55a6.22,6.22,0,0,0-.12-3.44c-.94-2.55-3.28-3.43-4.89-4.24l-.87-.45a7.83,7.83,0,0,1-2.54-2.3l-.27-.34a3.64,3.64,0,0,1-.53-.72,2.73,2.73,0,0,1-.45-1.86c0-.23.14-.15.18,0a1.92,1.92,0,0,0,.78,1.3l.28.1a3.38,3.38,0,0,0,.37.13,4.64,4.64,0,0,1,1.84.73l.53.45a8.91,8.91,0,0,0,.79.64c.26.15.65.14.75,0a1.64,1.64,0,0,0-.07-.23,2,2,0,0,1-.13-.6.48.48,0,0,1,.15-.38c.24-.22.58-.07.83,0l.17.08c.16,0,.35-.12.45-.29s.16-.57-.4-1c-.4-.34-1.46-1.38-2.39-2.3-.64-.62-1.23-1.21-1.39-1.35,0,0-.84-.73-.78-1.1a.17.17,0,0,1,0-.12.93.93,0,0,0,0-.13h-.24l-.06,0-.84-.14a1.19,1.19,0,0,0-.42,0l-.26.05c-.19.05-.37.12-.55.16.83.7-.69,0-1.24-.14h0c-.68-.12-.79,0-.79,0s.14.66.52,1.13a.33.33,0,0,1,0,.46c-.21.2-.41,0-.6-.15a3,3,0,0,0-.37-.31,1.11,1.11,0,0,0-.79-.27,2.71,2.71,0,0,0-1.09.85l-.25.26a8,8,0,0,1-3.69,1.87,2.15,2.15,0,0,0,.27.14,1.72,1.72,0,0,1,.92,1.76,7.74,7.74,0,0,1-.15,1.32l.25-.06.09,0c.46-.12.71-.19.9,0s.13.47,0,1l0,.1,0,.15a5.69,5.69,0,0,0-.13,1,1.06,1.06,0,0,0,0,.38,5.33,5.33,0,0,0,.78,1.28l0,0a.48.48,0,0,0,.11-.11l0-.06.13-.14h0c.49-.55.32-1.15.9.36,0,.1.09.21.13.34v0a2.32,2.32,0,0,0,1.62,1.65c.25.08.33.07.35.06a.64.64,0,0,0,.11-.24,3.42,3.42,0,0,0,0-.39,2.6,2.6,0,0,1,0-.26c.14-1.13-.14-1.72,1.07-.21h0l.09.11h0a6.91,6.91,0,0,1,.66,1.13,1.37,1.37,0,0,0,.65.27C119.31,35.15,119.35,35.07,119.4,34.83Zm.47-11c.3,0,.74-.06.91-.06s.42,0,.29.43-.19.61-.62.44a7.06,7.06,0,0,1-.78-.43C119.53,24.13,119.22,23.88,119.87,23.81Z"/><path class="cls-2" d="M173,44.08l.1.06c.63.46.66.47-.27.71l-.31.11c-.54.22-.63,1-.63,1.45a1.75,1.75,0,0,0,0,.29,2.54,2.54,0,0,1,1.4-.27,2.39,2.39,0,0,1,2.31,2.33,3.09,3.09,0,0,1-2.85,3.07,2.76,2.76,0,0,1-1.89-.65,4.42,4.42,0,0,1-.31,1.29l.07,0a3.69,3.69,0,0,0,4.73-.94,6.9,6.9,0,0,0,.9-1.63l0-.07a5.79,5.79,0,0,1,.91-1.42c.53-.49,1.73-2.42,1.49-2.82,0-.06-.43-.13-1.12.15-1,.4-.67.5-1-.7-.08-.34-.44-1.75-.46-2v0a1,1,0,0,0,0-.21l-.06,0-.26.1c-1,.41-.84.31-1.16-.55-.09-.24-.25-.72-.35-1.06l-.07-.22,0-.17s0,0,0,0a3.27,3.27,0,0,0-.82,1.36c-.06.2-.08.35-.15.58a4.29,4.29,0,0,0-.22,1,.26.26,0,0,0,0,.14Z"/><path class="cls-2" d="M115,21.9a1.19,1.19,0,0,1,.46,0h.07a12.14,12.14,0,0,1-1.27-.95,1.52,1.52,0,0,1-.62-1V19.9a.37.37,0,0,1,.23-.29,2.89,2.89,0,0,1,2.08.19h0a2.82,2.82,0,0,0,.76.09h.07l.32,1.06a1.11,1.11,0,0,1,0,.13c.25,0,.54.09.88.15h0l-.13-.38-.39-1.15a2.71,2.71,0,0,0,.5-.48c.57-.83,1.08-1.27,1.52-1.35a.27.27,0,0,1,.27.07.83.83,0,0,1,.16.57,2.3,2.3,0,0,1-.07.55,7.26,7.26,0,0,1-.67,1.9h.09a1.62,1.62,0,0,1,.31,0l.17,0a10.82,10.82,0,0,0,.6-1.81,2.82,2.82,0,0,0,.09-.67,1.33,1.33,0,0,0-.3-.93.77.77,0,0,0-.73-.23,2.93,2.93,0,0,0-1.75,1.4,2.25,2.25,0,0,1-.33.37l-.11.1s-.26-.81-.3-.95l-.7.22.3.94h-.13a1.42,1.42,0,0,1-.46-.07,3.06,3.06,0,0,0-2.33-.14.77.77,0,0,0-.46.62,1.73,1.73,0,0,0,.77,1.42c.3.25.58.48.86.67Z"/><path class="cls-2" d="M181.33,34.54h0a.94.94,0,0,0,.18-.45h0a1.66,1.66,0,0,0-.52,0,1.42,1.42,0,0,1-.36,0,5.21,5.21,0,0,1-.7-.25,5.54,5.54,0,0,0-1.13-.38,3,3,0,0,0-.81.14,4.12,4.12,0,0,1-1.52.21,6.62,6.62,0,0,1-1.42-.45,3.59,3.59,0,0,0-2.67.12,3.88,3.88,0,0,0-2,1.81,6.14,6.14,0,0,0,.23,5.32c.26.49,1.12,1.93,1.74,2.87,0-.22.11-.44.17-.66a3.33,3.33,0,0,0,.14-.5,2.16,2.16,0,0,1,.23-.66A4.67,4.67,0,0,1,171.19,37v0a3.26,3.26,0,0,1,1.69-2.63,4,4,0,0,1,3.05,0l.12.07c.26.13.63.3.65.66v0a.75.75,0,0,1-.34.56,1.62,1.62,0,0,0-.46,1.11c0,1,.93,2.11,1.93,3.15l.22.23a3,3,0,0,0,.45.41s0,0,0-.06l.09-.35a13.22,13.22,0,0,0,.52-2.29c0-.17,0-.32.07-.46.16-1.07-.26-1.18.88-.74l.08,0,0,0a1.12,1.12,0,0,0,.88.07c.24-.09.34-.19.36-.27a0,0,0,0,0,0,0,.32.32,0,0,0-.09-.17,1.35,1.35,0,0,1-.29-.86,2.07,2.07,0,0,1,.26-1Z"/><path class="cls-2" d="M172.56,63.93a1.2,1.2,0,0,1-1-.26h0l-.27.19a1.2,1.2,0,0,1-1.57-.35,1,1,0,0,1-.22-.46,1,1,0,0,1-.89,0,1.48,1.48,0,0,1-.28-.28h-5.69l-1.15.91c.87.28,1.72.57,2.54.87l.26.11-1.45,5h18L179,66.11,181,62.76h-7.34a2.21,2.21,0,0,1-.2.6A1.15,1.15,0,0,1,172.56,63.93Z"/><path class="cls-2" d="M141.84,61.23h0A66.18,66.18,0,0,0,120.09,65l2.39,8.2a60.59,60.59,0,0,1,19.33-3.29h0a60.59,60.59,0,0,1,19.33,3.29L163.58,65A66.32,66.32,0,0,0,141.84,61.23Z"/><path class="cls-2" d="M169.69,51.56l.36.52a4.81,4.81,0,0,0,.21-1.88,1.4,1.4,0,0,1,0-.41v0a5.64,5.64,0,0,0-.53-1.78,1.18,1.18,0,0,0-.19-.22,3.5,3.5,0,0,1-1.09-2.36l-.11-1.16a18.46,18.46,0,0,0-2.17-6.84l-.1-.22-.1-.2a.34.34,0,0,0,0-.08l-.12.25a2.47,2.47,0,0,1-1.24,1.36l-.07,0a.71.71,0,0,1-.66.06,1.1,1.1,0,0,1-.59-.86,14.71,14.71,0,0,1-.24-1.52,2.08,2.08,0,0,0-.35.2c-.34.22-2.07.95-2.08,1a1.35,1.35,0,0,1-1.27-.15.67.67,0,0,1-.19-.5l-.57,0h-.23l0,0c-.35.54-.87,1.34-.26,3.44l.12-.1a8.59,8.59,0,0,1,2.23-1c.52-.15.54,0,.22.11a10.45,10.45,0,0,0-2,1.35,5.36,5.36,0,0,1-1.79,1,4,4,0,0,0-1.48.64l-.57.52a2.77,2.77,0,0,0-.85,1v0c-.15.46-.25.77-.18.89s.15.2.27.18c.79-.22.79-.17.58.91-.05.21.13.31.25.37s.52.16.62,0c.33-.4.42-.4.61.13a1.78,1.78,0,0,0,.13.18.83.83,0,0,0,.61.29c.19,0,.44-.49.51-1.13a1.1,1.1,0,0,1,.8-1.06l.17-.07.35-.17a8.49,8.49,0,0,0,1.24-.69,11.36,11.36,0,0,0,1.5-1.09h0a.32.32,0,0,1,.43-.09.29.29,0,0,1,.1.41,1.64,1.64,0,0,1-.2.22.73.73,0,0,0,.35.3,1,1,0,0,0,.79-.25,4.1,4.1,0,0,0,.31-.63l.18-.39c.21-.37,1.39-.7,1.72-.75s.35,0,.07.16a8.2,8.2,0,0,0-1.26.9l-.14.31a3.78,3.78,0,0,1-.38.75,1.54,1.54,0,0,1-1.44.5,1.32,1.32,0,0,1-.69-.52c-.45.33-1,.66-1,.68l-.2.12a4.92,4.92,0,0,0,2,.79,6.74,6.74,0,0,1,2.3,1,5.48,5.48,0,0,1,1.22,1.32c.58.81.78,1.32-.34.22a9.89,9.89,0,0,0-1-.88c0,.05,0,.1,0,.16a3.07,3.07,0,0,1-.32,1.4,8.24,8.24,0,0,0-.57,2.64,1.65,1.65,0,0,0,0,.34,7.75,7.75,0,0,0,2.27,3.6,6.09,6.09,0,0,0,2.95,1.38,10.09,10.09,0,0,1,1.75.29,1.85,1.85,0,0,1,1,1.48c0,.11,0,.22,0,.32a2,2,0,0,1-1,1.88A3.22,3.22,0,0,0,168.77,62a.54.54,0,0,0,.22.53c.06,0,.36-.07.44-.12h0l.12-.06c.7-.39.73-.48.58.4h0a.28.28,0,0,1,0,.09.33.33,0,0,0,.11.25c.09.11.41.44.76.22l.13-.09c.33-.55.47-1.07.83-.09l.08.08a.53.53,0,0,0,.45.09.48.48,0,0,0,.4-.25,7.12,7.12,0,0,0,.34-2.37c0-.2-.1-.61-.18-1a9.24,9.24,0,0,1-.19-1.22s0-1.7.05-2.09-.68-1.06-1-1.32l-.16-.12a15.11,15.11,0,0,1-2.54-3.06C167.51,49.51,169,50.45,169.69,51.56Z"/><path class="cls-2" d="M180,37.33l0,0h0a3.59,3.59,0,0,0-.14.7,12.86,12.86,0,0,1-.56,2.44l0,.22c0,.23-.1.54-.39.63s-.53-.06-1-.48a4.07,4.07,0,0,0,.84,2.48.72.72,0,0,0,.6.21,2.34,2.34,0,0,0,.89-.29l.21-.12c.07,0,.07-.09,0-.12a1.18,1.18,0,0,1-.6-1,7,7,0,0,1,.73-2.65,1.26,1.26,0,0,0,.09-.49,3.67,3.67,0,0,0-.38-1.45Z"/><path class="cls-2" d="M153.46,55a3.65,3.65,0,0,1,.71-.29c-.32-.36-.64-.66-.91-.93l-.06-.05a17.82,17.82,0,0,1-1,1.63c.15.14.32.33.51.54A1.42,1.42,0,0,1,153.46,55Z"/><path class="cls-2" d="M155.31,61.42a3.67,3.67,0,0,0,.6-1.71.76.76,0,0,1-.26,0,.9.9,0,0,1-.69-.64l0-.09c0-.09-.05-.21-.08-.3a.88.88,0,0,1-.84-.19,4.52,4.52,0,0,1,.07,1.18,1,1,0,0,1-.34.74c-.51.42-1.46.26-2.3.13-.29,0-.56-.09-.77-.1a2.54,2.54,0,0,0-1.41.64c1.79.21,3.58.5,5.36.85A5,5,0,0,0,155.31,61.42Z"/><path class="cls-2" d="M145,60.69h-.21c1.17.06,2.35.16,3.54.28l.2-.2a3,3,0,0,1,2.14-1c.25,0,.53.06.84.11.63.1,1.51.25,1.81,0a.39.39,0,0,0,.11-.29,5,5,0,0,0-1.64-3.77A13.41,13.41,0,0,1,145,60.69Z"/><path class="cls-2" d="M169.93,59.69a1.57,1.57,0,0,0,.64-1.62,1.37,1.37,0,0,0-.54-.94,9.12,9.12,0,0,0-1.6-.26,6.67,6.67,0,0,1-3.28-1.51,7.71,7.71,0,0,1-2.22-3.18.32.32,0,0,1-.1.1l-.05,0a1.31,1.31,0,0,0-.1,1.8l.08.15a2,2,0,0,0,.17.2,1.07,1.07,0,0,1,.31,1.32c-.35.89-1.78.87-2.47.87h-.13a9.06,9.06,0,0,0-2.37.65,4.48,4.48,0,0,0-1.3,1.46l-.37.53,0,0a4.59,4.59,0,0,1-.79,2.5,3,3,0,0,1-.31.28c1.82.38,3.6.84,5.34,1.36l1.66-1.32h5.69a.61.61,0,0,1,0-.14A3.58,3.58,0,0,1,169.93,59.69Z"/><path class="cls-2" d="M129.45,46.61A1.3,1.3,0,0,1,129,48c1.26,7.15,6.5,12.55,12.76,12.55,6.62,0,12.09-6,12.94-13.78l-.11,0c-.59-.24-.71-.6-.71-.84,0,0,0-.06,0-.09v-.05c0-.13,0-.29-.08-.3a.89.89,0,0,1-.69-.48.68.68,0,0,1-.1-.4,3.48,3.48,0,0,1,.23-1v-.05a3.18,3.18,0,0,1,1-1.3l.32-.3a18.16,18.16,0,0,0-3.39-8.14,11.45,11.45,0,0,0-18.91,0,17.71,17.71,0,0,0-3,6.11,1.41,1.41,0,0,1,.43,1.4c0,.29-.11.66-.2,1.06a13.2,13.2,0,0,0-.23,1.92,17.82,17.82,0,0,0,.06,2.07ZM141.81,32.5c5.56,0,10.08,5.49,10.08,12.25S147.37,57,141.81,57s-10.09-5.49-10.09-12.24S136.25,32.5,141.81,32.5Z"/><path class="cls-2" d="M163.39,47.64a8.84,8.84,0,0,1-4.48.07l-.17-.07c-.24-.11-.4-.17-.55-.11a1.29,1.29,0,0,0-.53.71,3.41,3.41,0,0,0,.07,3.26,7.84,7.84,0,0,0,.77.91,3.48,3.48,0,0,1,.92,1.33.88.88,0,0,1-.14.8,2.17,2.17,0,0,1-1.66.57l-.51,0a12.69,12.69,0,0,0-1.83,0,6.53,6.53,0,0,0-.69.11,3.45,3.45,0,0,0-.83.31c-.41.23-.57.52-.45.86a.61.61,0,0,0,.42.41l.14,0h0c.6-.06.86-.09.48.61l-.13.26c-.07.13.09.29.24.39a.34.34,0,0,0,.32,0h0c.61-.43.51-.16.63.34l.14.51a.33.33,0,0,0,.22.19.21.21,0,0,0,.19,0,5,5,0,0,0,.56-.72,4.33,4.33,0,0,1,1.51-1.6,9.33,9.33,0,0,1,2.61-.7h.14c.46,0,1.69,0,1.89-.48.14-.34,0-.44-.18-.66a1.39,1.39,0,0,1-.28-.35l-.07-.12a2,2,0,0,1-.2-2,4.43,4.43,0,0,1-1.51-.83l0,0c-1.17-1.1-.44-1,.35-.35l0,0c.37.26,1.11.79,1.61.56a2,2,0,0,1,.31-.26.38.38,0,0,1,0-.13,7.38,7.38,0,0,1,.58-3.44A1.22,1.22,0,0,0,163.39,47.64Z"/><path class="cls-2" d="M135.08,60.82l.15.16c1.2-.13,2.39-.22,3.57-.28h-.27a13.46,13.46,0,0,1-6.78-4.82,4.94,4.94,0,0,0-1.62,3.75.33.33,0,0,0,.11.29c.3.25,1.17.1,1.81,0,.31-.05.59-.09.83-.11a3,3,0,0,1,2.14,1Z"/><path class="cls-2" d="M158.5,45.07l-.22.1c-.27.1-.39.15-.42.53-.07.78-.5,1.64-1.05,1.7a1.46,1.46,0,0,1-1.15-.52l-.08-.09a.92.92,0,0,1-.25.06,18.72,18.72,0,0,1-1.83,6.31l.18.17a14.07,14.07,0,0,1,1.17,1.22,12.06,12.06,0,0,1,2.28-.08l.49,0a1.65,1.65,0,0,0,1.17-.32.27.27,0,0,0,0-.27,3,3,0,0,0-.77-1.06,9.63,9.63,0,0,1-.83-1,4,4,0,0,1-.13-3.86,1.79,1.79,0,0,1,.87-1,1.26,1.26,0,0,1,1,.12l.13.06a8.52,8.52,0,0,0,4.37-.15,2.25,2.25,0,0,0-.07-.7,5.92,5.92,0,0,0-1.59-.58,5.11,5.11,0,0,1-2.44-1.08h0c-.61.32,0,0-.54.3Z"/><path class="cls-2" d="M129,61.93c1.79-.35,3.6-.64,5.41-.86a2.78,2.78,0,0,0-1.44-.64c-.21,0-.48.06-.77.1-.84.13-1.79.29-2.3-.13a1,1,0,0,1-.34-.74,5.56,5.56,0,0,1,1.86-4.28,17.65,17.65,0,0,1-1-1.62l0,0a7.79,7.79,0,0,0-2.5,3.89,3.57,3.57,0,0,1,1,2.63.8.8,0,0,1-.83.75,1.93,1.93,0,0,0,.23.37A2.53,2.53,0,0,0,129,61.93Z"/><path class="cls-2" d="M118.62,49.49a6.15,6.15,0,0,0-.69,1c-.34.64-.59,1.25-.82,1.8l.09,0a3.28,3.28,0,0,0,2.1.39c.84-.14,1.09.13,1.17.37s-.31.64-.42.7-.21.07-1,1a.94.94,0,0,0-.26.71c.08.36.6.64,1,.84l.07,0a9.69,9.69,0,0,0,1.38.57l.83.32A3.41,3.41,0,0,1,123,58a4,4,0,0,0,.83.6c.74.4,1,.43,1.2.37l.1,0c.47-.17.44-.63.7.44a3.66,3.66,0,0,1,.07.42c0,.32.44.39,1,.46l.27,0,.19,0,.23.05c.23.06.5.12.61,0a.31.31,0,0,0,.09-.2.71.71,0,0,0,0-.15,3.68,3.68,0,0,0-.72-1.82l-.31-.08a2.91,2.91,0,0,1-.88-.51,3.28,3.28,0,0,0-1.63-.78,10,10,0,0,1-2.4-.83,1.2,1.2,0,0,1-.75-.73.61.61,0,0,1,0-.23,1.25,1.25,0,0,1,.25-.7,13.32,13.32,0,0,1,1.48-.95c.78-.42,2.07-1.79,2-2.25a6.51,6.51,0,0,0-.57-1.12l-.3-.52a1,1,0,0,0-1.17-.42,13.18,13.18,0,0,1-4.46.19Z"/><path class="cls-2" d="M127.54,43.41c0-.08,0-.15,0-.22l-.06.13a12.5,12.5,0,0,1-2.14,2.78,5.79,5.79,0,0,1-3.26,1.57,4.89,4.89,0,0,0-2.75,1.08,14.25,14.25,0,0,0,3.77-.26,1.59,1.59,0,0,1,1.86.73l.29.51a5.21,5.21,0,0,1,.65,1.34c.16,1-1.68,2.56-2.32,2.91a6.29,6.29,0,0,0-1.27.74.57.57,0,0,0-.14.41c0,.11.18.23.41.33a9.71,9.71,0,0,0,2.24.79,3.88,3.88,0,0,1,1.94.91,1.74,1.74,0,0,0,.48.31,8.24,8.24,0,0,1,2.66-4.14l.15-.14a18.53,18.53,0,0,1-1.63-4.91c-.39.16-.88.32-1.3.47s-.62.21-.72.26a1,1,0,0,1-1,0,1.6,1.6,0,0,1-.3-.33A1.56,1.56,0,0,1,125,48l0-.43c0-.64-.07-1.11.81-1.43a1,1,0,0,1,.68,0,.42.42,0,0,0,.33,0c.38-.13.45-.26.68-.7a6.85,6.85,0,0,0,.07-1.83Z"/><path class="cls-1" d="M141.81,57c5.56,0,10.08-5.49,10.08-12.24S147.37,32.5,141.81,32.5,131.72,38,131.72,44.75,136.25,57,141.81,57ZM142,37.12c0-.17,0-.23,0-.24s.1,0,.19.2l0,.08c.95,1.38,2.3,6,2.32,6s0,.1,0,.11l.05-.11A35,35,0,0,1,147.1,37c.19-.27.25-.31.3-.29s0,.12,0,.27l0,.08a41.88,41.88,0,0,0,1.35,14.48c.07.21.06.27,0,.3s-.13,0-.21-.12,0,0,0,0c-2-1.32-3-5.47-3-5.79,0-.15,0-.18,0-.19v0c-.16.53-.62,2.63-.92,4-.14.64-.24,1.11-.27,1.2l0,.13c0,.09,0,.13-.07.13s-.06,0-.14-.26-.47-1.77-.78-3c-.23-.87-.42-1.62-.45-1.71a.48.48,0,0,0-.07-.17.17.17,0,0,0,0,.05l-.25.77c-.46,1.52-1,3.42-2.49,4.39-.35.26-.41.26-.45.23s0-.14.13-.32C141.67,47.14,142.56,40.19,142,37.12Zm-7.13,14.52c-.12.08-.2.1-.26,0a.15.15,0,0,1,0-.1.56.56,0,0,1,.05-.19c.52-1.54.71-6.25.71-9.63,0-1.47,0-2.68-.09-3.29,0-.14,0-.25,0-.35,0-.47.15-.55.44-.66h0a1.1,1.1,0,0,0,.72-.46,1.6,1.6,0,0,1,1.44-1.08c.6,0,2.85.82,2.85,4.8,0,2.56-1.1,4.35-3.1,5.05l-.06,0c-.28.11-.3.35-.32.56v.06C136.75,50.16,135.28,51.36,134.84,51.64Z"/><path class="cls-1" d="M142.86,18.59a1.13,1.13,0,1,0-1.13,1.13A1.14,1.14,0,0,0,142.86,18.59Zm-1.64,0a.51.51,0,1,1,.51.52A.51.51,0,0,1,141.22,18.59Z"/><path class="cls-1" d="M181.69,35.52a1.64,1.64,0,0,1,.18-.68,1.48,1.48,0,0,0,.27-.75.6.6,0,0,0-.08-.31c-.22-.38-.71-.36-1.08-.34h-.21a5.58,5.58,0,0,1-.6-.22,6.63,6.63,0,0,0-1.28-.43,3.07,3.07,0,0,0-1,.17,4,4,0,0,1-1.3.18,5.91,5.91,0,0,1-1.26-.41,4.1,4.1,0,0,0-3,.08A4.6,4.6,0,0,0,169.87,35a6.75,6.75,0,0,0,.24,5.91c.33.61,1.51,2.6,2.13,3.45a.23.23,0,0,0,.07.07h0a2,2,0,0,0-1,2,2.39,2.39,0,0,0,0,.41.74.74,0,0,0,.32.62.38.38,0,0,0,.37-.05,2,2,0,0,1,1.26-.33A1.82,1.82,0,0,1,175,48.76a2.44,2.44,0,0,1-2.23,2.45,1.78,1.78,0,0,1-1.89-1.12,6.74,6.74,0,0,0-.67-2.45,2.22,2.22,0,0,0-.28-.33c-.36-.34-.89-.85-1-3.1A17.56,17.56,0,0,0,167,37.82a2,2,0,0,0,.5,0c.83-.11.86-1,.89-1.94l0-.45c0-.68.25-.73.62-.82l.21-.06c.47-.14.57-.36.57-.73a2.68,2.68,0,0,0,0-.39v-.29c0-.35.2-.47.56-.55h.07a2.1,2.1,0,0,0,.56-.24l.1-.06a.6.6,0,0,0,.34-.57,1.84,1.84,0,0,0-.13-.57v0a.63.63,0,0,1-.05-.21c0-.12.08-.23.35-.51a1.27,1.27,0,0,0,.41-.85.92.92,0,0,0-.17-.51l0,0a1.23,1.23,0,0,1-.16-.54c0-.13.37-.42.54-.56l.35-.33a.94.94,0,0,0,.25-.63.63.63,0,0,0-.13-.41.36.36,0,0,0-.48-.09l0,0c-.69.34-1.49-.3-2.11-.89a5,5,0,0,1-.74-1.4,5.16,5.16,0,0,0-.58-1.16,7.13,7.13,0,0,0-.6-.64,4.46,4.46,0,0,1-.77-.88,3.73,3.73,0,0,1-.32-1.08,2.93,2.93,0,0,0-.3-1,.61.61,0,0,0-.47-.31,1,1,0,0,0-.73.35,5.79,5.79,0,0,1-2.47,1h-.77c-.59,0-1.26,0-1.6,0a2.59,2.59,0,0,0-1,.36,2.29,2.29,0,0,1-.62.25,2.65,2.65,0,0,1-.64,0,4.5,4.5,0,0,0-1.3.05,1,1,0,0,0-.7.45,1.13,1.13,0,0,0,0,1l.08.18c.13.28.2.46.11.53a1.08,1.08,0,0,0-.2,1.17A1,1,0,0,0,157,25a.7.7,0,0,0,.57,0h0a2.34,2.34,0,0,1,1.57.18c.09.07.1.12.1.17,0,.33-.06.35-.59.45l-.48.11a1.2,1.2,0,0,0-.92.68.65.65,0,0,0,0,.55l.14.17c.13.16.36.42.63.79a.92.92,0,0,0,.75.47.76.76,0,0,0,.55-.28,3.24,3.24,0,0,1,1.75-.59,11.21,11.21,0,0,0,1.84-.41v.18a1.87,1.87,0,0,1-.06.58l0,.08a4.12,4.12,0,0,1-4,2.87l-1.29.09c-2.58.13-4.3.23-4.3,2.87h0a3.49,3.49,0,0,1-1.14-.1h0l-.31-.42a14.82,14.82,0,0,0-3-3c-.7-1.54-.4-3.42.37-4a1.11,1.11,0,0,0,.6.17,1.14,1.14,0,0,0,1.13-1.13,1.26,1.26,0,0,0-.08-.43,1.34,1.34,0,0,0,.35.05,1.32,1.32,0,0,0,1.32-1.31,1.29,1.29,0,0,0-.18-.65l.28,0a1.58,1.58,0,0,0,1.58-1.57,1.6,1.6,0,0,0-.86-1.41A1.57,1.57,0,1,0,152,17.3a1.56,1.56,0,0,0,.1-.57,1.71,1.71,0,0,0-3.2-.83,1.31,1.31,0,0,0-2.57.2,1.14,1.14,0,0,0-.86-.39,1.12,1.12,0,0,0-1,.69h-.3a.71.71,0,0,1-.77-.67c0-.41-.38-.7-.92-.7h-1.37c-.54,0-.92.29-.92.7a.72.72,0,0,1-.78.67h-.26a1.11,1.11,0,0,0-1-.69,1.12,1.12,0,0,0-.85.39,1.32,1.32,0,0,0-2.58-.2,1.69,1.69,0,0,0-1.49-.88,1.72,1.72,0,0,0-1.71,1.71,1.8,1.8,0,0,0,.1.57,1.51,1.51,0,0,0-.7-.17,1.57,1.57,0,0,0-.46,3.08,1.6,1.6,0,0,0-.86,1.41,1.58,1.58,0,0,0,1.58,1.57l.28,0a1.2,1.2,0,0,0-.18.65,1.32,1.32,0,0,0,1.32,1.31,1.34,1.34,0,0,0,.35-.05,1.27,1.27,0,0,0-.09.43A1.14,1.14,0,0,0,134,26.64a1.05,1.05,0,0,0,.65-.21c.8.6.94,2.55.29,4a14.45,14.45,0,0,0-3.07,3,18.42,18.42,0,0,0-2.67,5,5.75,5.75,0,0,0-.32-3c-1.15-2.73-3.57-3.75-5.19-4.56l-.83-.44a7.24,7.24,0,0,1-2.36-2.14l-.29-.37s0,0,0,0l.1,0a4,4,0,0,1,1.56.61l.5.42a6.21,6.21,0,0,0,.88.71,1.54,1.54,0,0,0,1.52-.06.52.52,0,0,0,.18-.44,1.7,1.7,0,0,0-.11-.51,1,1,0,0,1-.06-.19l.06,0,.26.11a1.05,1.05,0,0,0,1.15-.56,1.45,1.45,0,0,0-.53-1.83c-.38-.32-1.48-1.4-2.36-2.27-.69-.69-1.24-1.23-1.42-1.38a4.15,4.15,0,0,1-.53-.59.76.76,0,0,0,0-.73.61.61,0,0,0-.6-.17h-.12l-.08,0h-.07a11,11,0,0,0,.58-1.77,2.32,2.32,0,0,0-.35-2.16,1.39,1.39,0,0,0-1.27-.41A3.24,3.24,0,0,0,117.57,18l-.16-.5-.32.11-1.51.49.17.54a3.29,3.29,0,0,0-2.31,0,1.45,1.45,0,0,0-.79,1.09,2.35,2.35,0,0,0,1,1.95c.26.21.49.39.69.53a1.35,1.35,0,0,0-.11.09,6.42,6.42,0,0,0-.59.57l-.23.24a7.11,7.11,0,0,1-3.74,1.77.39.39,0,0,0-.34.33c-.06.32.28.69.84.93s.68,1,.4,2.47v.05a.5.5,0,0,0,.1.52c.19.17.46.14,1,0l.09,0,.19-.05a2,2,0,0,1-.07.26l0,.15,0,.15a6.83,6.83,0,0,0-.14,1.14,2,2,0,0,0,.09.62,6,6,0,0,0,.92,1.48.65.65,0,0,0,.51.23.83.83,0,0,0,.57-.34h0a3.33,3.33,0,0,1,.13.32v0a2.88,2.88,0,0,0,2,2,1,1,0,0,0,.84,0,.93.93,0,0,0,.4-.62,3.7,3.7,0,0,0,.07-.48.49.49,0,0,1,0-.12l.08.1a7.36,7.36,0,0,1,1.33,4.06,5,5,0,0,1-.18,1.37,12.31,12.31,0,0,1-.65,1.77c-.16.35-.27.69-.4,1a11.59,11.59,0,0,1-2.21,1.45l-.43.24a7,7,0,0,0-2.84,5,.66.66,0,0,0,0,.14c-1.2.41-2,.35-2.41-.18-.91-1.12-.22-2.24.77-3.59l.31-.42.31-.42.29-.37a1.43,1.43,0,0,1,0,.22l.13.53.1.42a.53.53,0,0,0,.42.46c.14,0,.37.26,1-.89.14-.25.39-.67.67-1.1l.46-.73a1.18,1.18,0,0,0-.39-1.87c-.3-.21-.28-.32,0-.83l.08-.15c.24-.48,1.24-3.62-.2-5.84-1-1.54-2.43-3-4.35-2.55a8.6,8.6,0,0,0-2.52,1.07,5.89,5.89,0,0,1-2.29.91,21.08,21.08,0,0,0-2.14.6c-.19.06-.46.15-.47.44,0,0,0,0,0,0,0,.31.34.46.76.65a2.36,2.36,0,0,1,.81.52,10.56,10.56,0,0,1-1.36,1.52.55.55,0,0,0-.28.47.28.28,0,0,0,0,.09c.06.31.38.51,1,.61h0v.1a3.71,3.71,0,0,0,.26,2.26l.09.13a8.36,8.36,0,0,1,1.08,2,1.66,1.66,0,0,1-.07.46,1,1,0,0,0,0,.81.58.58,0,0,0,.39.27c.66.15.91-.39,1.11-.81l.11-.23c.27-.55.65-1.29,1.09-2l.3-.45A5.34,5.34,0,0,0,108,38h.23a1,1,0,0,0,.39,0l.12,0c.23,0,.54-.1.61-.4s-.18-.53-.43-.73a2.38,2.38,0,0,1-.49-2c.13-.48.36-.74.7-.8a3,3,0,0,1,2.28,1.36,3.72,3.72,0,0,1,.63,2.06,3,3,0,0,1-.06.62c-.16.7-.3.77-.3.77a.45.45,0,0,1-.18,0l-.23-.06a2,2,0,0,0-1.47.33l-.12.08c-.29.2-.69.47-.64.88s.44.54.74.64a.45.45,0,0,1,.31.3,2.67,2.67,0,0,1-.68,1.77l-.18.22-.44.58c-1.74,2.24-2.31,4.4-1.55,5.94.45.93,1.59,2,4.43,2a3.75,3.75,0,0,1-.54,1.43,3,3,0,0,1-2.5,1.28l-.2,0h-.17a.87.87,0,0,0-.63.25c-.25.28-.32.81-.25,1.89a9,9,0,0,1-.19,2.79,4.44,4.44,0,0,0-.11.67,4.39,4.39,0,0,1-.1.5,3.19,3.19,0,0,0-.1.68.81.81,0,0,0,.14.5.78.78,0,0,0,.57.32l.65,0,.41,0v0a.58.58,0,0,1,0,.14h-7.23l2.3,4c-.15.28-2.13,4.14-2.13,4.14H121l1.1,3.75a59.78,59.78,0,0,1,19.73-3.46h0A59.93,59.93,0,0,1,161.59,74l1.09-3.74h19.18l-2.12-4.14c.15-.27,2.3-4,2.3-4h-8.29a8.38,8.38,0,0,0,.09-1.52c0-.22-.11-.63-.19-1s-.19-1-.19-1.1c0-.42,0-1.73,0-2,.1-.86-.82-1.55-1.27-1.88l-.14-.11A8,8,0,0,1,171,53.28,4.16,4.16,0,0,0,175.84,52a7.6,7.6,0,0,0,1-1.79l0-.07a5.52,5.52,0,0,1,.74-1.2c.42-.37,2.18-2.67,1.62-3.6-.38-.63-1.39-.27-1.72-.14-.18.06-.28-.06-.4-.55s-.34-1.43-.36-1.58v0c0-.19-.06-.57-.37-.73a.7.7,0,0,0-.67.09.39.39,0,0,1-.31.08.39.39,0,0,1-.21-.24c-.09-.21-.24-.71-.33-1l-.07-.23,0-.16c0-.2-.11-.49-.39-.56s-.49.13-.68.34l-.41.49a4,4,0,0,1-1.46-4,2.7,2.7,0,0,1,1.34-2.18,3.28,3.28,0,0,1,2.49,0l.15.07a1.48,1.48,0,0,1,.27.16l-.09.07,0,0,0,0a2.23,2.23,0,0,0-.62,1.52c0,1.26,1.06,2.49,1.85,3.33v0c0,1.14.28,2.89,1.06,3.59a1.41,1.41,0,0,0,1.1.37,6.25,6.25,0,0,0,1.78-.72c.17-.07.65-.55-.13-.75s-.57-.9-.53-1.25a6.44,6.44,0,0,1,.61-1.78,1.86,1.86,0,0,0,.14-.75,4,4,0,0,0-.27-1.36,1.73,1.73,0,0,0,.4-.09,1.1,1.1,0,0,0,.75-.68.68.68,0,0,0,0-.2.89.89,0,0,0-.22-.57A.7.7,0,0,1,181.69,35.52ZM157.54,31.7l1.31-.08a4.8,4.8,0,0,0,4.54-3.29l0-.07a3.8,3.8,0,0,0,.06-1.43l0-.4-.38.15a11.67,11.67,0,0,1-2,.5,4,4,0,0,0-2.09.73l0,0,0,0s-.06.07-.09.07-.14-.05-.25-.21a9.23,9.23,0,0,0-.67-.84l-.05-.07c0-.07.1-.22.5-.32l.44-.1c.52-.1,1.05-.21,1.08-1v0a.82.82,0,0,0-.32-.65,2.93,2.93,0,0,0-2.13-.29h0l-.08,0s-.06-.05-.13-.27a1.3,1.3,0,0,1-.05-.33.23.23,0,0,1,.06-.19.71.71,0,0,0,.26-.55,1.75,1.75,0,0,0-.21-.72l-.07-.14a1.29,1.29,0,0,1-.1-.35.2.2,0,0,1,0-.09.43.43,0,0,1,.28-.14,4.55,4.55,0,0,1,1.15,0,3.21,3.21,0,0,0,.76,0,3.41,3.41,0,0,0,.81-.32,2.09,2.09,0,0,1,.75-.29c.31,0,1,0,1.54,0h.79A6.16,6.16,0,0,0,166,19.84a.69.69,0,0,1,.21-.15l0,0a3.15,3.15,0,0,1,.22.81,4,4,0,0,0,.38,1.27,5.33,5.33,0,0,0,.88,1,7.24,7.24,0,0,1,.55.58,5.61,5.61,0,0,1,.49,1,5.24,5.24,0,0,0,.88,1.61c.41.38,1.41,1.33,2.45,1.12l0,.06-.3.27c-.38.32-.76.64-.76,1v.05a1.7,1.7,0,0,0,.26.82l0,0a.33.33,0,0,1,.07.18c0,.09-.06.22-.24.41-.39.41-.52.67-.52.93a1.29,1.29,0,0,0,.08.41l0,.05a1.89,1.89,0,0,1,.09.36v0h0l-.1.06a1.61,1.61,0,0,1-.4.18h-.06a1.13,1.13,0,0,0-1.05,1.15v.11l0,.22c0,.14,0,.28,0,.37a.19.19,0,0,1,0,.08l-.13,0-.17,0c-.42.1-1.05.24-1.1,1.39l0,.46c0,.89-.07,1.31-.35,1.34a1.07,1.07,0,0,1-1-.5c0-.12-.14-.51-.16-.56-.39-1.19-.26-.91-.82.14-.08.14-.17.33-.29.57A2.28,2.28,0,0,1,164.3,38l-.13.07a.12.12,0,0,1-.13,0c-.07,0-.17-.15-.23-.43a12,12,0,0,1-.25-1.65c0-.83.85-1.7-.93-.27l-.36.22c-.23.15-1.59.75-2,.91-.13.06-.58.09-.59,0a.69.69,0,0,1,0-.15s0,0,0,0c.21-.75.55-.59-.68-.47l-.59,0h-.18c-.32,0-.75.07-1-.13a.72.72,0,0,1-.19-.53,1.79,1.79,0,0,1,1.39-1.83c.76-.15,3.67-.47,5-.58a5,5,0,0,0,4-2.21,9.23,9.23,0,0,0,.49-4.64c-.1-.47-.59-1.2-.29.14a8.28,8.28,0,0,1-.73,4.19,4.46,4.46,0,0,1-3.51,1.91c-1.27.11-4.23.42-5,.58a2.38,2.38,0,0,0-1.7,1.44c-.28.4-.93,1.31-1.56,1.29s-1.31-.9-1.31-1.64C153.77,31.91,154.87,31.85,157.54,31.7Zm-4.28,2.88a2.16,2.16,0,0,0,1.87,1.83,2,2,0,0,0,1.4-.71,1.18,1.18,0,0,0,.37.78,1.13,1.13,0,0,0,.65.29,3.21,3.21,0,0,0-.42,1.22l-3-.19a17.69,17.69,0,0,0-1.63-3.22A3.76,3.76,0,0,0,153.26,34.58Zm4.19,6a6.29,6.29,0,0,1-.87.37,6.17,6.17,0,0,0-1.41.53,20.53,20.53,0,0,0-.79-3.06l2.71.17A7.13,7.13,0,0,0,157.45,40.59ZM149.67,26a.52.52,0,1,1,.52-.52A.51.51,0,0,1,149.67,26Zm1.4-1.51a.7.7,0,1,1,.7-.7A.7.7,0,0,1,151.07,24.52Zm2.38-2.9a1,1,0,1,1-1-1A1,1,0,0,1,153.45,21.62Zm-.7-3.88a1,1,0,1,1-1,1A1,1,0,0,1,152.75,17.74Zm-2.31-2.1a1.09,1.09,0,1,1-1.09,1.09A1.09,1.09,0,0,1,150.44,15.64Zm-2.76-.1a.7.7,0,1,1-.7.7A.69.69,0,0,1,147.68,15.54Zm-2.17.79a.51.51,0,0,1,.51.51.51.51,0,1,1-1,0A.51.51,0,0,1,145.51,16.33Zm-1.07.91h0a1.13,1.13,0,0,0,2.17-.2,1.32,1.32,0,0,0,1.06.53,1.29,1.29,0,0,0,1.07-.57,1.71,1.71,0,0,0,1.69,1.44,1.73,1.73,0,0,0,.81-.2,1.5,1.5,0,0,0-.08.47,1.59,1.59,0,0,0,.86,1.41,1.57,1.57,0,0,0-1.12,1.51,1.64,1.64,0,0,0,.28.89h-.12a1.3,1.3,0,0,0-1.17,1.91.9.9,0,0,0-.23,0,1.13,1.13,0,0,0-1.13,1.12,1.54,1.54,0,0,0,0,.3,2.44,2.44,0,0,0-.22.23A12.76,12.76,0,0,0,147,25.5l0,0a13.21,13.21,0,0,0,2.44-2.7A3,3,0,0,0,150,19.6a2.4,2.4,0,0,0-1.89-1.16A6.71,6.71,0,0,0,144,19.6Zm3.31,10.58a14.23,14.23,0,0,0-11.86,0,3.52,3.52,0,0,0-.37-1.2,15.82,15.82,0,0,1,12.63,0A3.61,3.61,0,0,0,147.75,27.82Zm.1,2.1a11.64,11.64,0,0,0-12.1,0,5.54,5.54,0,0,0,.18-1.45,13.66,13.66,0,0,1,11.76,0A5.49,5.49,0,0,0,147.85,29.92Zm-10.51-4.66a11.11,11.11,0,0,1-2.63-2.77,2.58,2.58,0,0,1-.52-2.67A1.76,1.76,0,0,1,135.6,19c1.69-.22,3.46.93,4.16,1.4l.81,4.35h0a16.6,16.6,0,0,0-3.21.56Zm5.7-.54h0l.81-4.35c.69-.47,2.47-1.62,4.15-1.4a1.79,1.79,0,0,1,1.42.86,2.56,2.56,0,0,1-.53,2.67,11.27,11.27,0,0,1-2.63,2.78h0A16.57,16.57,0,0,0,143,24.72Zm-2.23-9c0-.15.19-.17.3-.17h1.37c.11,0,.29,0,.29.17a1.24,1.24,0,0,0,1.11,1.17l-1.45,7.78h0l-.63,0-.62,0h0l-1.44-7.78A1.26,1.26,0,0,0,140.81,15.73Zm-2.7.6a.51.51,0,0,1,.52.51.52.52,0,0,1-1,0A.51.51,0,0,1,138.11,16.33ZM136,15.54a.7.7,0,1,1-.7.7A.7.7,0,0,1,136,15.54Zm-2.76.1a1.09,1.09,0,1,1-1.09,1.09A1.09,1.09,0,0,1,133.19,15.64Zm-3.27,3.06a1,1,0,1,1,1,1A1,1,0,0,1,129.92,18.7Zm1.22,3.87a1,1,0,1,1,1-.95A1,1,0,0,1,131.14,22.57Zm1.42,1.95a.7.7,0,1,1,.7-.7A.7.7,0,0,1,132.56,24.52ZM134,26a.52.52,0,1,1,.51-.52A.52.52,0,0,1,134,26Zm1.29,0a2.55,2.55,0,0,0-.19-.26,2.28,2.28,0,0,0,0-.26A1.12,1.12,0,0,0,134,24.39a.86.86,0,0,0-.23,0,1.32,1.32,0,0,0-1.17-1.91h-.12a1.63,1.63,0,0,0,.27-.89,1.57,1.57,0,0,0-1.12-1.51,1.59,1.59,0,0,0,.86-1.41,1.49,1.49,0,0,0-.07-.47A1.71,1.71,0,0,0,134.87,17,1.31,1.31,0,0,0,137,17a1.13,1.13,0,0,0,2.17.21h0l.44,2.36a6.76,6.76,0,0,0-4.11-1.16,2.38,2.38,0,0,0-1.88,1.16,3,3,0,0,0,.56,3.17,13.17,13.17,0,0,0,2.45,2.7l0,0Q135.94,25.73,135.25,26ZM129.36,44.3a13.2,13.2,0,0,1,.23-1.92c.09-.4.16-.77.2-1.06a1.41,1.41,0,0,0-.43-1.4,17.71,17.71,0,0,1,3-6.11,11.45,11.45,0,0,1,18.91,0A18.16,18.16,0,0,1,154.62,42l-.32.3a3.18,3.18,0,0,0-1,1.3v.05a3.48,3.48,0,0,0-.23,1,.68.68,0,0,0,.1.4.89.89,0,0,0,.69.48s.08.17.08.3v.05s0,.06,0,.09c0,.24.12.6.71.84l.11,0c-.85,7.75-6.32,13.78-12.94,13.78-6.26,0-11.5-5.4-12.76-12.55a1.3,1.3,0,0,0,.44-1.39l0-.24A17.82,17.82,0,0,1,129.36,44.3Zm30,.31h0a5.11,5.11,0,0,0,2.44,1.08,5.92,5.92,0,0,1,1.59.58,2.25,2.25,0,0,1,.07.7,8.52,8.52,0,0,1-4.37.15l-.13-.06a1.26,1.26,0,0,0-1-.12,1.79,1.79,0,0,0-.87,1,4,4,0,0,0,.13,3.86,9.63,9.63,0,0,0,.83,1,3,3,0,0,1,.77,1.06.27.27,0,0,1,0,.27,1.65,1.65,0,0,1-1.17.32l-.49,0a12.06,12.06,0,0,0-2.28.08,14.07,14.07,0,0,0-1.17-1.22l-.18-.17a18.72,18.72,0,0,0,1.83-6.31.92.92,0,0,0,.25-.06l.08.09a1.46,1.46,0,0,0,1.15.52c.55-.06,1-.92,1.05-1.7,0-.38.15-.43.42-.53l.22-.1.34-.16C159.34,44.66,158.77,44.93,159.38,44.61Zm8.78,17.53h-5.69l-1.66,1.32c-1.74-.52-3.52-1-5.34-1.36a3,3,0,0,0,.31-.28,4.59,4.59,0,0,0,.79-2.5l0,0,.37-.53a4.48,4.48,0,0,1,1.3-1.46,9.06,9.06,0,0,1,2.37-.65h.13c.69,0,2.12,0,2.47-.87a1.07,1.07,0,0,0-.31-1.32,2,2,0,0,1-.17-.2l-.08-.15a1.31,1.31,0,0,1,.1-1.8l.05,0a.32.32,0,0,0,.1-.1,7.71,7.71,0,0,0,2.22,3.18,6.67,6.67,0,0,0,3.28,1.51,9.12,9.12,0,0,1,1.6.26,1.37,1.37,0,0,1,.54.94,1.57,1.57,0,0,1-.64,1.62A3.58,3.58,0,0,0,168.15,62,.61.61,0,0,0,168.16,62.14Zm-14.7-2.51a.39.39,0,0,1-.11.29c-.3.25-1.18.1-1.81,0-.31-.05-.59-.09-.84-.11a3,3,0,0,0-2.14,1l-.2.2c-1.19-.12-2.37-.22-3.54-.28H145a13.41,13.41,0,0,0,6.79-4.83A5,5,0,0,1,153.46,59.63Zm-1.27-4.27a17.82,17.82,0,0,0,1-1.63l.06.05c.27.27.59.57.91.93a3.65,3.65,0,0,0-.71.29,1.42,1.42,0,0,0-.76.9C152.51,55.69,152.34,55.5,152.19,55.36Zm-1.52,5.07c.21,0,.48.06.77.1.84.13,1.79.29,2.3-.13a1,1,0,0,0,.34-.74,4.52,4.52,0,0,0-.07-1.18.88.88,0,0,0,.84.19c0,.09.06.21.08.3l0,.09a.9.9,0,0,0,.69.64.76.76,0,0,0,.26,0,3.67,3.67,0,0,1-.6,1.71,5,5,0,0,1-.69.5c-1.78-.35-3.57-.64-5.36-.85A2.54,2.54,0,0,1,150.67,60.43Zm12-9a.38.38,0,0,0,0,.13,2,2,0,0,0-.31.26c-.5.23-1.24-.3-1.61-.56l0,0c-.79-.61-1.52-.75-.35.35l0,0a4.43,4.43,0,0,0,1.51.83,2,2,0,0,0,.2,2l.07.12a1.39,1.39,0,0,0,.28.35c.21.22.32.32.18.66-.2.5-1.43.49-1.89.48h-.14a9.33,9.33,0,0,0-2.61.7,4.33,4.33,0,0,0-1.51,1.6,5,5,0,0,1-.56.72.21.21,0,0,1-.19,0,.33.33,0,0,1-.22-.19l-.14-.51c-.12-.5,0-.77-.63-.34h0a.34.34,0,0,1-.32,0c-.15-.1-.31-.26-.24-.39l.13-.26c.38-.7.12-.67-.48-.61h0l-.14,0a.61.61,0,0,1-.42-.41c-.12-.34,0-.63.45-.86a3.45,3.45,0,0,1,.83-.31,6.53,6.53,0,0,1,.69-.11,12.69,12.69,0,0,1,1.83,0l.51,0a2.17,2.17,0,0,0,1.66-.57.88.88,0,0,0,.14-.8,3.48,3.48,0,0,0-.92-1.33,7.84,7.84,0,0,1-.77-.91,3.41,3.41,0,0,1-.07-3.26,1.29,1.29,0,0,1,.53-.71c.15-.06.31,0,.55.11l.17.07a8.84,8.84,0,0,0,4.48-.07,1.22,1.22,0,0,1-.14.35A7.38,7.38,0,0,0,162.67,51.43Zm-51.19,9-.09-.07-.59-.5c-.33-.28-.7-.59-.81-.7a2.63,2.63,0,0,1-.23-1.13,2,2,0,0,1,0-.23,6.62,6.62,0,0,1,.17-.9s0-.16,0-.23a1.34,1.34,0,0,1,.88-.14,4.27,4.27,0,0,0,2-.09A1.8,1.8,0,0,0,114,55.15a3.23,3.23,0,0,0,2.31-1.08,4.48,4.48,0,0,0,.59-1.15l.07,0a3.86,3.86,0,0,0,2.45.43l.23,0a5.29,5.29,0,0,0-1,1.14,1.66,1.66,0,0,0-.4,1,.91.91,0,0,0,0,.23c.14.64.81,1,1.3,1.25l.06,0a12,12,0,0,0,1.46.6l.79.31a2.54,2.54,0,0,1,.73.51,5.45,5.45,0,0,0,.94.68c.75.39,1.17.55,1.65.42h.06c0,.1,0,.26,0,.32.11.81,1,.92,1.53,1l.24,0,.28.06a2.91,2.91,0,0,0,.47.89l.37.28q-2.71.57-5.28,1.35l-1.74-1.31h-9v0A1.91,1.91,0,0,0,111.48,60.38Zm16-15c-.23.44-.3.57-.68.7a.42.42,0,0,1-.33,0,1,1,0,0,0-.68,0c-.88.32-.85.79-.81,1.43l0,.43a1.56,1.56,0,0,0,.16.67,1.6,1.6,0,0,0,.3.33,1,1,0,0,0,1,0c.1,0,.4-.15.72-.26s.91-.31,1.3-.47a18.53,18.53,0,0,0,1.63,4.91l-.15.14a8.24,8.24,0,0,0-2.66,4.14,1.74,1.74,0,0,1-.48-.31,3.88,3.88,0,0,0-1.94-.91,9.71,9.71,0,0,1-2.24-.79c-.23-.1-.38-.22-.41-.33a.57.57,0,0,1,.14-.41,6.29,6.29,0,0,1,1.27-.74c.64-.35,2.48-1.92,2.32-2.91a5.21,5.21,0,0,0-.65-1.34l-.29-.51a1.59,1.59,0,0,0-1.86-.73,14.25,14.25,0,0,1-3.77.26,4.89,4.89,0,0,1,2.75-1.08,5.79,5.79,0,0,0,3.26-1.57,12.5,12.5,0,0,0,2.14-2.78l.06-.13c0,.07,0,.14,0,.22v.19A6.85,6.85,0,0,1,127.46,45.43Zm-4.21,3.68a1,1,0,0,1,1.17.42l.3.52a6.51,6.51,0,0,1,.57,1.12c.07.46-1.22,1.83-2,2.25a13.32,13.32,0,0,0-1.48.95,1.25,1.25,0,0,0-.25.7.61.61,0,0,0,0,.23,1.2,1.2,0,0,0,.75.73,10,10,0,0,0,2.4.83,3.28,3.28,0,0,1,1.63.78,2.91,2.91,0,0,0,.88.51l.31.08a3.68,3.68,0,0,1,.72,1.82.71.71,0,0,1,0,.15.31.31,0,0,1-.09.2c-.11.07-.38,0-.61,0l-.23-.05-.19,0-.27,0c-.55-.07-.95-.14-1-.46a3.66,3.66,0,0,0-.07-.42c-.26-1.07-.23-.61-.7-.44l-.1,0c-.24.06-.46,0-1.2-.37A4,4,0,0,1,123,58a3.41,3.41,0,0,0-.89-.61l-.83-.32a9.69,9.69,0,0,1-1.38-.57l-.07,0c-.38-.2-.9-.48-1-.84a.94.94,0,0,1,.26-.71c.74-1,.87-.95,1-1s.52-.4.42-.7-.33-.51-1.17-.37a3.28,3.28,0,0,1-2.1-.39l-.09,0c.23-.55.48-1.16.82-1.8a6.15,6.15,0,0,1,.69-1l.17-.19A13.18,13.18,0,0,0,123.25,49.11Zm4.8,11.94a.8.8,0,0,0,.83-.75,3.57,3.57,0,0,0-1-2.63,7.79,7.79,0,0,1,2.5-3.89l0,0a17.65,17.65,0,0,0,1,1.62,5.56,5.56,0,0,0-1.86,4.28,1,1,0,0,0,.34.74c.51.42,1.46.26,2.3.13.29,0,.56-.09.77-.1a2.78,2.78,0,0,1,1.44.64c-1.81.22-3.62.51-5.41.86a2.53,2.53,0,0,1-.67-.51A1.93,1.93,0,0,1,128.05,61.05Zm4.83-1.24c-.24,0-.52.06-.83.11-.64.1-1.51.25-1.81,0a.33.33,0,0,1-.11-.29,4.94,4.94,0,0,1,1.62-3.75,13.46,13.46,0,0,0,6.78,4.82h.27c-1.18.06-2.37.15-3.57.28l-.15-.16-.06,0A3,3,0,0,0,132.88,59.81ZM114,21.27a1.73,1.73,0,0,1-.77-1.42.77.77,0,0,1,.46-.62,3.06,3.06,0,0,1,2.33.14,1.42,1.42,0,0,0,.46.07h.13l-.3-.94.7-.22c0,.14.3.95.3.95l.11-.1a2.25,2.25,0,0,0,.33-.37,2.93,2.93,0,0,1,1.75-1.4.77.77,0,0,1,.73.23,1.33,1.33,0,0,1,.3.93,2.82,2.82,0,0,1-.09.67,10.82,10.82,0,0,1-.6,1.81l-.17,0a1.62,1.62,0,0,0-.31,0h-.09a7.26,7.26,0,0,0,.67-1.9,2.3,2.3,0,0,0,.07-.55.83.83,0,0,0-.16-.57.27.27,0,0,0-.27-.07c-.44.08-.95.52-1.52,1.35a2.71,2.71,0,0,1-.5.48l.39,1.15.13.38h0c-.34-.06-.63-.12-.88-.15a1.11,1.11,0,0,0,0-.13l-.32-1.06h-.07a2.82,2.82,0,0,1-.76-.09h0a2.89,2.89,0,0,0-2.08-.19.37.37,0,0,0-.23.29V20a1.52,1.52,0,0,0,.62,1,12.14,12.14,0,0,0,1.27.95h-.07a1.19,1.19,0,0,0-.46,0l-.15,0C114.6,21.75,114.32,21.52,114,21.27Zm4.83-.56v.05a.86.86,0,0,1-.28.31l-.38-1.21q.15-.15.3-.33h0a3.18,3.18,0,0,1,1-1.09s0,0,0,.09a1.56,1.56,0,0,1-.06.43A6.22,6.22,0,0,1,118.85,20.71Zm-2.33.31h-.06a.65.65,0,0,0-.57.27l0,.07a9.62,9.62,0,0,1-1.16-.87,1.57,1.57,0,0,1-.35-.39,3.1,3.1,0,0,1,1.47.27h0c.18,0,.34.07.5.08Zm1.91,13.83a6.91,6.91,0,0,0-.66-1.13h0l-.09-.11h0c-1.21-1.51-.93-.92-1.07.21a2.6,2.6,0,0,0,0,.26,3.42,3.42,0,0,1,0,.39.64.64,0,0,1-.11.24s-.1,0-.35-.06A2.32,2.32,0,0,1,114.43,33v0c0-.13-.09-.24-.13-.34-.58-1.51-.41-.91-.9-.36h0l-.13.14,0,.06a.48.48,0,0,1-.11.11l0,0a5.33,5.33,0,0,1-.78-1.28,1.06,1.06,0,0,1,0-.38,5.69,5.69,0,0,1,.13-1l0-.15,0-.1c.14-.5.21-.77,0-1s-.44-.12-.9,0l-.09,0-.25.06a7.74,7.74,0,0,0,.15-1.32,1.72,1.72,0,0,0-.92-1.76,2.15,2.15,0,0,1-.27-.14,8,8,0,0,0,3.69-1.87l.25-.26a2.71,2.71,0,0,1,1.09-.85,1.11,1.11,0,0,1,.79.27,3,3,0,0,1,.37.31c.19.17.39.35.6.15a.33.33,0,0,0,0-.46c-.38-.47-.61-1-.52-1.13s.11-.1.79,0h0c.55.14,2.07.84,1.24.14.18,0,.36-.11.55-.16l.26-.05a1.19,1.19,0,0,1,.42,0l.84.14.06,0h.24a.93.93,0,0,1,0,.13.17.17,0,0,0,0,.12c-.06.37.77,1.09.78,1.1.16.14.75.73,1.39,1.35.93.92,2,2,2.39,2.3.56.47.48.91.4,1s-.29.33-.45.29L125,28c-.25-.12-.59-.27-.83,0a.48.48,0,0,0-.15.38,2,2,0,0,0,.13.6,1.64,1.64,0,0,1,.07.23c-.1.18-.49.19-.75,0a8.91,8.91,0,0,1-.79-.64l-.53-.45a4.64,4.64,0,0,0-1.84-.73,3.38,3.38,0,0,1-.37-.13l-.28-.1a1.92,1.92,0,0,1-.78-1.3c0-.17-.16-.25-.18,0a2.73,2.73,0,0,0,.45,1.86,3.64,3.64,0,0,0,.53.72l.27.34a7.83,7.83,0,0,0,2.54,2.3l.87.45c1.61.81,4,1.69,4.89,4.24a6.22,6.22,0,0,1,.12,3.44c-.63-.45-1.47-1-2.28-1.55l-1.47-1,.31-.16a1.68,1.68,0,0,0,.89-1c.11-.56-.31-1-.69-1.66-.89-1.44-3-1.76-4.38-1.93l-.92-.14a9.52,9.52,0,0,1-4.21-1.89c-1.46-1.31-1.26-3.81-1.11-4.56,0-.17,0-.54-.14-.15-.2.83-.88,3.63.84,5.17a10.43,10.43,0,0,0,4.59,2.06l.88.13c1.25.15,3.22.5,4,1.69.32.51.63.87.58,1.16s-.25.41-.62.64l-.58.27a6.28,6.28,0,0,1-.89-.69,1.3,1.3,0,0,0-.3-.33h0c-1-.8-.55-.31-.63.17-.11.08-.59.09-1.44-.23-.5-.19-.53-.22-.74-.51-.62-.8-.5-.48-.64.2-.05.24-.09.32-.32.29A1.37,1.37,0,0,1,118.43,34.85Zm-12.05,6-.32.48c-.46.77-.84,1.53-1.11,2.08l-.12.24c-.22.48-.27.5-.41.48a1.63,1.63,0,0,1,.07-.33,2.52,2.52,0,0,0,.09-.57v-.09a7.18,7.18,0,0,0-1.18-2.3l-.09-.13a2,2,0,0,1-.22-1c0-.3,0-.59,0-.82h0a1.77,1.77,0,0,0,1.4-.36v.07a4.5,4.5,0,0,0,.22,1.28l0,.12c.08.29.21.77.64.83s.72-.25,1.17-1a3,3,0,0,0,.62-1.73v0l0,0,.1,0A4.78,4.78,0,0,1,106.38,40.88Zm1.37,8.4c-.63-1.3-.08-3.27,1.49-5.29l.42-.57.19-.22a3.64,3.64,0,0,0,.84-2,1.06,1.06,0,0,0,0-.35,1,1,0,0,0-.7-.71,1.43,1.43,0,0,1-.3-.14,1.93,1.93,0,0,1,.34-.29l.16-.1a1.37,1.37,0,0,1,1-.21l.16,0a.79.79,0,0,0,.67,0c.27-.16.44-.51.59-1.18a4.28,4.28,0,0,0-.66-3.16c-.53-.76-1.8-1.8-2.89-1.62a1.44,1.44,0,0,0-1.18,1.22,2.08,2.08,0,0,0-.12.66,2.79,2.79,0,0,0,.81,2l0,0-.12,0a.46.46,0,0,1-.16,0c-.37,0-1.58-.3-1.72.64v.07a2.6,2.6,0,0,1-.53,1.35,2.62,2.62,0,0,1-.48.66c0-.09-.08-.24-.11-.31l0-.15a3.65,3.65,0,0,1-.13-1v-.09a1.2,1.2,0,0,1,0-.36,1,1,0,0,0,.11-.39.33.33,0,0,0-.15-.28c-.26-.2-.5.05-1.09.44s-.64.31-.93.27a2.88,2.88,0,0,1-.61-.17l-.28-.06a7.34,7.34,0,0,0,1.55-1.88.6.6,0,0,0,0-.31,2.32,2.32,0,0,0-1.15-.89,16.36,16.36,0,0,1,1.64-.47,6.49,6.49,0,0,0,2.51-1,7.91,7.91,0,0,1,2.35-1c1.25-.28,2.34.4,3.7,2.3a4.41,4.41,0,0,1,.65,2.57,6.94,6.94,0,0,1-.49,2.64l-.08.15a1.94,1.94,0,0,0-.27.82,1,1,0,0,0,.49.8c.28.19.42.33.42.51a1,1,0,0,1-.21.52l-.45.72a9.86,9.86,0,0,0-.71,1.19c0,.06-.22.38-.24.3l-.06-.23-.11-.45c-.16-1-.31-1.16-.57-1.19a.39.39,0,0,0-.41.23l-.28.48-.27.44-.28.36-.3.42c-.81,1.1-2,2.76-.76,4.34.8,1,2.15.68,2.85.45,0,.46-.06.84-.11,1.17C109.76,50.94,108.29,50.36,107.75,49.28Zm.46,12-.58,0c-.08,0-.1,0-.11,0a1.65,1.65,0,0,1,.08-.65,4.11,4.11,0,0,0,.08-.6,3.58,3.58,0,0,1,.08-.59,9.36,9.36,0,0,0,.23-2.11c0-.25,0-.54,0-.85s0-.49,0-.67c0-.57.08-.72.12-.77a.48.48,0,0,1,.21,0h.21l.18,0a3.67,3.67,0,0,0,3-1.57c.61-1,.76-1.93.89-4.32A6.4,6.4,0,0,1,115,44.53l.42-.23c.55-.31,1.23-.75,1.8-1.09a1.26,1.26,0,0,0,.65-.64,10.07,10.07,0,0,1,.42-1,11.57,11.57,0,0,0,.69-1.86,6.79,6.79,0,0,0-.24-4l.24.05a.78.78,0,0,0,.83-.41,1.9,1.9,0,0,0,.72.39c.72.27,1.62.49,2.05.11l.07.08a20.85,20.85,0,0,0,3.09,2.23c1.22.81,2.47,1.64,3,2.1.3.25.42.37.42.7,0,.09,0,.19,0,.3s-.11.63-.19,1a15.54,15.54,0,0,0-.25,2,20.58,20.58,0,0,0,.07,2.11l0,.32a2.6,2.6,0,0,1,0,.36.44.44,0,0,1-.21.44,15.94,15.94,0,0,1-1.74.68l-.77.27a.47.47,0,0,1-.42,0c-.13-.08-.16-.31-.17-.49l0-.44c0-.61,0-.65.41-.81a.35.35,0,0,1,.3,0,1,1,0,0,0,.71,0,1.66,1.66,0,0,0,1-1c.23-.41.11-.92.16-1.85l0-.63c0-.46.29-1.12-.93-1.51-2.07-.66-3.28-1-3.69-1.09a3.66,3.66,0,0,1-1.32-.46.3.3,0,0,0-.43.43,3.91,3.91,0,0,0,1.65.65c.27,0,1.1.28,3.61,1.07a.67.67,0,0,1,.18.07l-.31.62a12.22,12.22,0,0,1-2,2.62,5.33,5.33,0,0,1-2.9,1.41,5.54,5.54,0,0,0-4.66,3.19,20.9,20.9,0,0,0-.92,2.06,6.09,6.09,0,0,1-.65,1.37c-.4.47-1.47,1-2,.8a1.56,1.56,0,0,0-1.57-.07c-.25.14-.16.33-.65.29-.17,0-.78-.05-.79.12s.42.33.58.34c1,.08.85,0,1.16-.21s.31-.18.85,0a1.21,1.21,0,0,1-.77.83,3.91,3.91,0,0,1-1.67,0c-.6-.06-1.47.1-1.55.59l-.05.26a9.57,9.57,0,0,0-.19,1,3,3,0,0,0,.39,1.88c.13.13.5.43.85.73l.58.49.1.08c.26.22.53.45.5,1.36s-.33.84-1.28.87h-.14a1.54,1.54,0,0,1-1.07-.25c-.18-.12.12-.51.16-.64a1.8,1.8,0,0,0,0-.19h0c.17-.71.64-.69-.66-.7h0A3,3,0,0,0,108.21,61.29Zm-5.7,8.35c.35-.7,1.81-3.53,1.81-3.53l-1.93-3.35h6s0,.05,0,.08a.76.76,0,0,0,.1.39.88.88,0,0,0,.65.41,5.71,5.71,0,0,0,1,.07h.13c.73,0,1.55-.05,1.8-.94h8.82l1.23.91c-.88.27-1.74.57-2.59.87l-.25.1,1.46,5Zm58.66,3.58a60.59,60.59,0,0,0-19.33-3.29h0a60.59,60.59,0,0,0-19.33,3.29L120.09,65a66.18,66.18,0,0,1,21.71-3.79h0A66.32,66.32,0,0,1,163.58,65Zm12.46-10.46H181L179,66.11l1.81,3.53h-18l1.45-5-.26-.11c-.82-.3-1.67-.59-2.54-.87l1.15-.91h5.69a1.48,1.48,0,0,0,.28.28,1,1,0,0,0,.89,0,1,1,0,0,0,.22.46,1.2,1.2,0,0,0,1.57.35l.27-.19h0a1.2,1.2,0,0,0,1,.26,1.15,1.15,0,0,0,.87-.57A2.21,2.21,0,0,0,173.63,62.76Zm-1.92-7.82.16.12c.35.26,1.09.81,1,1.32s-.05,2.07-.05,2.09a9.24,9.24,0,0,0,.19,1.22c.08.39.16.8.18,1a7.12,7.12,0,0,1-.34,2.37.48.48,0,0,1-.4.25.53.53,0,0,1-.45-.09l-.08-.08c-.36-1-.5-.46-.83.09l-.13.09c-.35.22-.67-.11-.76-.22a.33.33,0,0,1-.11-.25.28.28,0,0,0,0-.09h0c.15-.88.12-.79-.58-.4l-.12.06h0c-.08.05-.38.16-.44.12a.54.54,0,0,1-.22-.53,3.22,3.22,0,0,1,1.47-1.78,2,2,0,0,0,1-1.88c0-.1,0-.21,0-.32a1.85,1.85,0,0,0-1-1.48,10.09,10.09,0,0,0-1.75-.29,6.09,6.09,0,0,1-2.95-1.38,7.75,7.75,0,0,1-2.27-3.6,1.65,1.65,0,0,1,0-.34,8.24,8.24,0,0,1,.57-2.64,3.07,3.07,0,0,0,.32-1.4c0-.06,0-.11,0-.16a9.89,9.89,0,0,1,1,.88c1.12,1.1.92.59.34-.22a5.48,5.48,0,0,0-1.22-1.32,6.74,6.74,0,0,0-2.3-1,4.92,4.92,0,0,1-2-.79l.2-.12s.54-.35,1-.68a1.32,1.32,0,0,0,.69.52,1.54,1.54,0,0,0,1.44-.5,3.78,3.78,0,0,0,.38-.75l.14-.31a8.2,8.2,0,0,1,1.26-.9c.28-.13.21-.2-.07-.16s-1.51.38-1.72.75l-.18.39a4.1,4.1,0,0,1-.31.63,1,1,0,0,1-.79.25.73.73,0,0,1-.35-.3,1.64,1.64,0,0,0,.2-.22.29.29,0,0,0-.1-.41.32.32,0,0,0-.43.09h0a11.36,11.36,0,0,1-1.5,1.09,8.49,8.49,0,0,1-1.24.69l-.35.17-.17.07a1.1,1.1,0,0,0-.8,1.06c-.07.64-.32,1.11-.51,1.13a.83.83,0,0,1-.61-.29,1.78,1.78,0,0,1-.13-.18c-.19-.53-.28-.53-.61-.13-.1.12-.49,0-.62,0s-.3-.16-.25-.37c.21-1.08.21-1.13-.58-.91-.12,0-.2-.06-.27-.18s0-.43.18-.89v0a2.77,2.77,0,0,1,.85-1l.57-.52a4,4,0,0,1,1.48-.64,5.36,5.36,0,0,0,1.79-1,10.45,10.45,0,0,1,2-1.35c.32-.15.3-.26-.22-.11a8.59,8.59,0,0,0-2.23,1l-.12.1c-.61-2.1-.09-2.9.26-3.44l0,0h.23l.57,0a.67.67,0,0,0,.19.5,1.35,1.35,0,0,0,1.27.15s1.74-.74,2.08-1a2.08,2.08,0,0,1,.35-.2,14.71,14.71,0,0,0,.24,1.52,1.1,1.1,0,0,0,.59.86.71.71,0,0,0,.66-.06l.07,0a2.47,2.47,0,0,0,1.24-1.36l.12-.25a.34.34,0,0,1,0,.08l.1.2.1.22a18.46,18.46,0,0,1,2.17,6.84l.11,1.16a3.5,3.5,0,0,0,1.09,2.36,1.18,1.18,0,0,1,.19.22,5.64,5.64,0,0,1,.53,1.78v0a1.4,1.4,0,0,0,0,.41,4.81,4.81,0,0,1-.21,1.88l-.36-.52c-.72-1.11-2.18-2.05-.52.32A15.11,15.11,0,0,0,171.71,54.94Zm1.45-12c.07-.23.09-.38.15-.58a3.27,3.27,0,0,1,.82-1.36s0,0,0,0l0,.17.07.22c.1.34.26.82.35,1.06.32.86.2,1,1.16.55l.26-.1.06,0a1,1,0,0,1,0,.21v0c0,.22.38,1.63.46,2,.31,1.2,0,1.1,1,.7.69-.28,1.09-.21,1.12-.15.24.4-1,2.33-1.49,2.82a5.79,5.79,0,0,0-.91,1.42l0,.07a6.9,6.9,0,0,1-.9,1.63,3.69,3.69,0,0,1-4.73.94l-.07,0a4.42,4.42,0,0,0,.31-1.29,2.76,2.76,0,0,0,1.89.65,3.09,3.09,0,0,0,2.85-3.07,2.39,2.39,0,0,0-2.31-2.33,2.54,2.54,0,0,0-1.4.27,1.75,1.75,0,0,1,0-.29c0-.45.09-1.23.63-1.45l.31-.11c.93-.24.9-.25.27-.71l-.1-.06,0,0a.26.26,0,0,1,0-.14A4.29,4.29,0,0,1,173.16,43Zm7.3-3.59a7,7,0,0,0-.73,2.65,1.18,1.18,0,0,0,.6,1s0,.08,0,.12l-.21.12a2.34,2.34,0,0,1-.89.29.72.72,0,0,1-.6-.21,4.07,4.07,0,0,1-.84-2.48c.43.42.7.56,1,.48s.35-.4.39-.63l0-.22a12.86,12.86,0,0,0,.56-2.44,3.59,3.59,0,0,1,.14-.7h0l0,0,.22.09a3.67,3.67,0,0,1,.38,1.45A1.26,1.26,0,0,1,180.46,39.36Zm.9-3a.32.32,0,0,1,.09.17,0,0,0,0,1,0,0c0,.08-.12.18-.36.27a1.12,1.12,0,0,1-.88-.07l0,0-.08,0c-1.14-.44-.72-.33-.88.74,0,.14-.05.29-.07.46a13.22,13.22,0,0,1-.52,2.29l-.09.35s0,0,0,.06a3,3,0,0,1-.45-.41l-.22-.23c-1-1-1.93-2.13-1.93-3.15a1.62,1.62,0,0,1,.46-1.11.75.75,0,0,0,.34-.56v0c0-.36-.39-.53-.65-.66l-.12-.07a4,4,0,0,0-3.05,0A3.26,3.26,0,0,0,171.19,37v0a4.67,4.67,0,0,0,1.74,4.61,2.16,2.16,0,0,0-.23.66,3.33,3.33,0,0,1-.14.5c-.06.22-.13.44-.17.66-.62-.94-1.48-2.38-1.74-2.87a6.14,6.14,0,0,1-.23-5.32,3.88,3.88,0,0,1,2-1.81,3.59,3.59,0,0,1,2.67-.12,6.62,6.62,0,0,0,1.42.45,4.12,4.12,0,0,0,1.52-.21,3,3,0,0,1,.81-.14,5.54,5.54,0,0,1,1.13.38,5.21,5.21,0,0,0,.7.25,1.42,1.42,0,0,0,.36,0,1.66,1.66,0,0,1,.52,0h0a.94.94,0,0,1-.18.45h0a2.07,2.07,0,0,0-.26,1A1.35,1.35,0,0,0,181.36,36.37Z"/><path class="cls-1" d="M162.54,22.12a1.81,1.81,0,0,0-1.36-.25.33.33,0,0,0-.27.28c0,.16.34.47.53.6a.94.94,0,0,0,.75.06,3.27,3.27,0,0,1,.6-.19c.26-.07.21-.2.14-.24S162.67,22.23,162.54,22.12Z"/><path class="cls-1" d="M119.67,24.19a7.06,7.06,0,0,0,.78.43c.43.17.49,0,.62-.44s-.13-.43-.29-.43-.61,0-.91.06C119.22,23.88,119.53,24.13,119.67,24.19Z"/><path class="cls-1" d="M74.16,104.74h2.07v.41h-6v-.41h2.07V90.35H70.28v-.41h6.31A4.89,4.89,0,0,1,80,91.1a3.81,3.81,0,0,1,1.31,3A3.21,3.21,0,0,1,80,96.81a5.86,5.86,0,0,1-3.6.93H74.16Zm0-7.41h2a3.42,3.42,0,0,0,2.54-.66,4.89,4.89,0,0,0,.58-3,4.26,4.26,0,0,0-.6-2.73,3,3,0,0,0-2.23-.64h-2.3Z"/><path class="cls-1" d="M91.9,96.4V90.35H89.83v-.41h6v.41h-2.1v14.39h2.1v.41h-6v-.41H91.9V96.8H86.18v7.94h2.07v.41h-6v-.41h2.07V90.35H82.3v-.41h6v.41H86.18V96.4Z"/><path class="cls-1" d="M100.93,104.74H103v.41h-6v-.41h2.08V90.35H97.05v-.41h6v.41h-2.08Z"/><path class="cls-1" d="M110.23,89.94v.41h-2.07v14.39H110a3.89,3.89,0,0,0,3.28-1.53,10.54,10.54,0,0,0,1.59-4.88h.24v6.82H104.28v-.41h2.07V90.35h-2.07v-.41Z"/><path class="cls-1" d="M120.54,104.74h2.08v.41h-6v-.41h2.08V90.35h-2.08v-.41h6v.41h-2.08Z"/><path class="cls-1" d="M127.77,104.74h2.07v.41h-6v-.41H126V90.35h-2.08v-.41h6.31a4.89,4.89,0,0,1,3.37,1.16,3.81,3.81,0,0,1,1.31,3,3.23,3.23,0,0,1-1.22,2.73,5.92,5.92,0,0,1-3.61.93h-2.28Zm0-7.41h2a3.47,3.47,0,0,0,2.55-.66,5,5,0,0,0,.57-3,4.26,4.26,0,0,0-.6-2.73,3,3,0,0,0-2.23-.64h-2.3Z"/><path class="cls-1" d="M147.8,105.15l-3.88-15V102.5a3.11,3.11,0,0,0,.37,1.72,1.37,1.37,0,0,0,1.2.52h.68v.41H141.3v-.41h.36a1.76,1.76,0,0,0,1.4-.52,2.33,2.33,0,0,0,.46-1.58V91.76a1.38,1.38,0,0,0-.39-1.09,2.07,2.07,0,0,0-1.29-.32h-.54v-.41h4.25l3.09,11.89,3.25-11.89h4v.41h-2.07v14.39h2.07v.41h-5.85v-.41h2.09l.08-14.55-4.08,15Z"/><path class="cls-1" d="M162.93,89.7a3.85,3.85,0,0,1,1.73.43,4.74,4.74,0,0,1,1.49,1.22,8.68,8.68,0,0,1,1.55,2.86,11.73,11.73,0,0,1,.53,3.58,10.58,10.58,0,0,1-.41,3.08,8.06,8.06,0,0,1-1.26,2.52,5.22,5.22,0,0,1-1.67,1.48,4,4,0,0,1-2,.54,4.13,4.13,0,0,1-2-.53,5.41,5.41,0,0,1-1.69-1.49,7.88,7.88,0,0,1-1.25-2.51,10.4,10.4,0,0,1-.32-1.47,13.54,13.54,0,0,1-.1-1.62,11.92,11.92,0,0,1,.25-2.48,10.14,10.14,0,0,1,.73-2.24,6.79,6.79,0,0,1,1.9-2.49A3.88,3.88,0,0,1,162.93,89.7Zm0,15.3a2.53,2.53,0,0,0,1.5-.48,4.06,4.06,0,0,0,1.17-1.43,5.41,5.41,0,0,0,.45-1.67,36.3,36.3,0,0,0,.14-3.87,28.55,28.55,0,0,0-.21-4.33,4.46,4.46,0,0,0-.71-1.81,3,3,0,0,0-1.07-1,2.51,2.51,0,0,0-1.27-.35,2.57,2.57,0,0,0-1.3.35,3.09,3.09,0,0,0-1.07,1,4.65,4.65,0,0,0-.72,1.85c-.06.38-.11.92-.15,1.64s-.05,1.6-.05,2.65V98a29.77,29.77,0,0,0,.13,3.47,4.63,4.63,0,0,0,.46,1.58,3.92,3.92,0,0,0,1.18,1.42A2.55,2.55,0,0,0,162.93,105Z"/><path class="cls-1" d="M169.76,105.15v-.41h2.08V90.35h-2.08v-.41h6.85a4.26,4.26,0,0,1,3,1,3.42,3.42,0,0,1,1,2.68,3.51,3.51,0,0,1-1,2.68,4.81,4.81,0,0,1-3,1.19,4.26,4.26,0,0,1,1.28.18,3.71,3.71,0,0,1,1,.49A2.88,2.88,0,0,1,180,99.8a2.6,2.6,0,0,1,.07.31c0,.09,0,.25.08.48s.05.67.05,1.07v1.06a2.06,2.06,0,0,0,0,.37c0,.11,0,.19,0,.25a1.94,1.94,0,0,0,.05.2,2.41,2.41,0,0,0,.52,1.09,1.32,1.32,0,0,0,.93.31h.2l.23,0,.18-.05a2.46,2.46,0,0,0,.29-.11v.4a2.19,2.19,0,0,1-.58.19l-.33.06-.34,0a2.79,2.79,0,0,1-2.41-1,6.5,6.5,0,0,1-.69-3.58,4.44,4.44,0,0,0-.53-2.61,2.31,2.31,0,0,0-1.87-.64h-2.27v7.11h2.08v.41Zm6.15-14.8h-2.27v6.9h2a3.12,3.12,0,0,0,2.42-.73,4.89,4.89,0,0,0,.6-2.9,4.09,4.09,0,0,0-.59-2.57A2.67,2.67,0,0,0,175.91,90.35Z"/><path class="cls-1" d="M183.09,105.15v-.41h2.07V90.35h-2.07v-.41h6.85a4.23,4.23,0,0,1,2.95,1,3.43,3.43,0,0,1,1.05,2.68,3.52,3.52,0,0,1-1.05,2.68,4.76,4.76,0,0,1-3,1.19,4.19,4.19,0,0,1,1.27.18,3.45,3.45,0,0,1,1,.49,2.83,2.83,0,0,1,1.12,1.69,2.86,2.86,0,0,1,.08.31c0,.09,0,.25.07.48s.05.67.05,1.07v1.06c0,.14,0,.27,0,.37s0,.19,0,.25a.84.84,0,0,0,0,.2,2.31,2.31,0,0,0,.52,1.09,1.29,1.29,0,0,0,.93.31h.2l.22,0,.18-.05.3-.11v.4a2.39,2.39,0,0,1-.59.19l-.32.06-.35,0a2.79,2.79,0,0,1-2.41-1,6.5,6.5,0,0,1-.69-3.58,4.46,4.46,0,0,0-.52-2.61,2.33,2.33,0,0,0-1.88-.64H187v7.11H189v.41Zm6.14-14.8H187v6.9h2a3.1,3.1,0,0,0,2.42-.73,4.8,4.8,0,0,0,.61-2.9,4.16,4.16,0,0,0-.59-2.57A2.69,2.69,0,0,0,189.23,90.35Z"/><path class="cls-1" d="M200.29,104.74h2.08v.41h-6v-.41h2.08V90.35h-2.08v-.41h6v.41h-2.08Z"/><path class="cls-1" d="M204,105.25V98.78h.32a9.64,9.64,0,0,0,1.68,4.59,3.86,3.86,0,0,0,3.16,1.63,2.88,2.88,0,0,0,2.1-.84,2.92,2.92,0,0,0,.84-2.13,3,3,0,0,0-.61-1.87,8.06,8.06,0,0,0-2.27-1.79c-.33-.21-.83-.48-1.49-.82A11.39,11.39,0,0,1,205.38,96a3.2,3.2,0,0,1-.73-1.11,3.44,3.44,0,0,1-.27-1.33,4,4,0,0,1,1-2.8A3.34,3.34,0,0,1,208,89.7a3.61,3.61,0,0,1,1.83.47,5.82,5.82,0,0,1,1.63,1.55l1.18-2h.13v5.84h-.32a9.24,9.24,0,0,0-1.64-4,3.42,3.42,0,0,0-2.75-1.4,3,3,0,0,0-2,.7,2.24,2.24,0,0,0-.82,1.76c0,.89,1.09,1.94,3.27,3.13l1,.53a10,10,0,0,1,2.95,2.24,3.94,3.94,0,0,1,.84,2.51,4.48,4.48,0,0,1-1.17,3.17,3.79,3.79,0,0,1-2.91,1.26,3.86,3.86,0,0,1-2-.57,5.75,5.75,0,0,1-1.71-1.67l-1.13,2.08Z"/><path class="cls-1" d="M124.62,126.55l-3.88-15v12.3a3,3,0,0,0,.37,1.72,1.34,1.34,0,0,0,1.19.52H123v.41h-4.87v-.41h.36a1.75,1.75,0,0,0,1.4-.52,2.31,2.31,0,0,0,.46-1.58V113.16a1.39,1.39,0,0,0-.39-1.09,2,2,0,0,0-1.29-.32h-.54v-.41h4.25l3.1,11.89,3.24-11.89h4v.41h-2.07v14.39h2.07v.41h-5.85v-.41H129L129,111.6l-4.08,15Z"/><path class="cls-1" d="M143.8,126.54v-.4h2.08V111.75H143.8v-.41h6.85a4.26,4.26,0,0,1,3,1,3.46,3.46,0,0,1,1,2.68,3.56,3.56,0,0,1-1,2.68,4.87,4.87,0,0,1-3,1.19,4.3,4.3,0,0,1,1.28.18,3.71,3.71,0,0,1,1,.49,2.88,2.88,0,0,1,1.12,1.68,2.71,2.71,0,0,1,.07.32c0,.09,0,.25.07.48a8.49,8.49,0,0,1,.06,1.07v1.06a2.06,2.06,0,0,0,0,.37c0,.1,0,.19,0,.24s0,.13,0,.21a2.36,2.36,0,0,0,.52,1.09,1.31,1.31,0,0,0,.93.31h.2l.23,0a.58.58,0,0,0,.18,0l.29-.11v.4a2.81,2.81,0,0,1-.58.19l-.33.06-.34,0a2.79,2.79,0,0,1-2.41-1,6.5,6.5,0,0,1-.69-3.58,4.44,4.44,0,0,0-.53-2.61A2.31,2.31,0,0,0,150,119h-2.27v7.11h2.08v.4ZM150,111.75h-2.27v6.89h2a3.09,3.09,0,0,0,2.42-.73,4.85,4.85,0,0,0,.6-2.9,4.12,4.12,0,0,0-.59-2.56A2.68,2.68,0,0,0,150,111.75Z"/><path class="cls-1" d="M14.17,126.63v-6.48h.33a9.48,9.48,0,0,0,1.68,4.6,3.85,3.85,0,0,0,3.15,1.63,2.82,2.82,0,0,0,2.1-.85,2.86,2.86,0,0,0,.85-2.13,3.05,3.05,0,0,0-.61-1.86,8,8,0,0,0-2.27-1.79c-.34-.21-.84-.49-1.49-.83a11.59,11.59,0,0,1-2.36-1.5,3.59,3.59,0,0,1-.74-1.11,3.68,3.68,0,0,1-.27-1.34,4,4,0,0,1,1-2.79,3.31,3.31,0,0,1,2.57-1.1,3.55,3.55,0,0,1,1.82.47,5.83,5.83,0,0,1,1.64,1.55l1.18-2h.12v5.84h-.32a9.13,9.13,0,0,0-1.63-4,3.44,3.44,0,0,0-2.75-1.4,3.08,3.08,0,0,0-2.05.69,2.25,2.25,0,0,0-.81,1.77q0,1.33,3.26,3.12l1,.54a9.7,9.7,0,0,1,3,2.24,3.94,3.94,0,0,1,.84,2.51,4.52,4.52,0,0,1-1.16,3.17,3.94,3.94,0,0,1-4.93.69,5.81,5.81,0,0,1-1.72-1.68l-1.13,2.09Z"/><path class="cls-1" d="M59.23,126.63v-6.48h.32a9.68,9.68,0,0,0,1.68,4.6,3.88,3.88,0,0,0,3.16,1.63,2.85,2.85,0,0,0,2.1-.85,2.89,2.89,0,0,0,.84-2.13,3,3,0,0,0-.61-1.86,7.89,7.89,0,0,0-2.27-1.79c-.33-.21-.83-.49-1.49-.83a11.89,11.89,0,0,1-2.36-1.5,3.4,3.4,0,0,1-.73-1.11A3.49,3.49,0,0,1,59.6,115a4,4,0,0,1,1-2.79,3.34,3.34,0,0,1,2.57-1.1,3.61,3.61,0,0,1,1.83.47,5.68,5.68,0,0,1,1.63,1.55l1.18-2h.13v5.84h-.32a9.13,9.13,0,0,0-1.64-4,3.42,3.42,0,0,0-2.75-1.4,3,3,0,0,0-2,.69,2.25,2.25,0,0,0-.81,1.77c0,.89,1.08,1.93,3.26,3.12l1,.54a9.7,9.7,0,0,1,2.95,2.24,3.94,3.94,0,0,1,.84,2.51,4.48,4.48,0,0,1-1.17,3.17,3.79,3.79,0,0,1-2.91,1.26,3.86,3.86,0,0,1-2-.57,5.78,5.78,0,0,1-1.71-1.68l-1.13,2.09Z"/><path class="cls-1" d="M170.49,126.54v-.41h2.08V111.74h-2.08v-.41h10.59v5.17h-.23a7.87,7.87,0,0,0-1.23-3.7,3.14,3.14,0,0,0-2.6-1.06h-2.65v6.43h.82a2.2,2.2,0,0,0,1.83-.88,3.58,3.58,0,0,0,.54-1.09,4.79,4.79,0,0,0,.19-1.42H178v6.94h-.21a5,5,0,0,0-.18-1.42,2.81,2.81,0,0,0-.5-1,2.09,2.09,0,0,0-1.76-.74h-.94v7.58H177a3.21,3.21,0,0,0,2.76-1.36,9.08,9.08,0,0,0,1.32-4.23h.24v6Z"/><path class="cls-1" d="M46.9,126.55v-.41H49V111.75H46.9v-.4H57.49v5.16h-.23a7.87,7.87,0,0,0-1.23-3.7,3.18,3.18,0,0,0-2.6-1.06H50.78v6.43h.81a2.19,2.19,0,0,0,1.83-.88,3.58,3.58,0,0,0,.54-1.09,4.74,4.74,0,0,0,.19-1.42h.22v6.94h-.22a5,5,0,0,0-.17-1.42,3.08,3.08,0,0,0-.5-1,2.11,2.11,0,0,0-1.77-.73h-.93v7.57h2.61a3.21,3.21,0,0,0,2.75-1.36,9.19,9.19,0,0,0,1.33-4.23h.24v6Z"/><path class="cls-1" d="M204.61,113v10.22a4.07,4.07,0,0,0,.47,2.16,1.6,1.6,0,0,0,1.43.72h.35v.41H202v-.41h.36a1.55,1.55,0,0,0,1.41-.7,4,4,0,0,0,.45-2.14V112.66a1.37,1.37,0,0,0-.56-.71,2.36,2.36,0,0,0-1.13-.21H202v-.41h3.71l6,11.54v-8.23a4,4,0,0,0-.48-2.17,1.6,1.6,0,0,0-1.44-.73h-.35v-.41h4.9v.41h-.39a1.56,1.56,0,0,0-1.4.7,4,4,0,0,0-.46,2.14V126.8h-.3Z"/><path class="cls-1" d="M88.82,113v10.23a4,4,0,0,0,.47,2.15,1.59,1.59,0,0,0,1.43.73h.34v.4H86.2v-.4h.36a1.55,1.55,0,0,0,1.41-.7,4,4,0,0,0,.44-2.14V112.65a1.33,1.33,0,0,0-.56-.7,2.3,2.3,0,0,0-1.12-.22H86.2v-.4h3.7l6,11.54v-8.23a4,4,0,0,0-.48-2.17,1.61,1.61,0,0,0-1.44-.74h-.35v-.4h4.9v.4h-.39a1.56,1.56,0,0,0-1.4.71,4,4,0,0,0-.46,2.13v12.22H96Z"/><path class="cls-1" d="M134.69,123.42c0,.13-.06.23-.08.27s0,.15,0,.29l0,.55a1.63,1.63,0,0,0,.42,1.19,1.49,1.49,0,0,0,1.12.42h.43v.41h-4.62v-.41a2.18,2.18,0,0,0,1.44-.73,6.94,6.94,0,0,0,1.07-2.31l3.59-12h.47l4.53,15h1.37v.41h-5v-.41h1.8l-1.3-4.45h-4.63Zm.65-2.11h4.37l-2.16-7.38Z"/><path class="cls-1" d="M26.41,123.43c0,.13-.07.22-.08.27s0,.14,0,.28l0,.56a1.61,1.61,0,0,0,.42,1.18,1.48,1.48,0,0,0,1.12.42h.43v.41H23.59v-.41a2.19,2.19,0,0,0,1.44-.73,7,7,0,0,0,1.06-2.31l3.6-12h.47l4.53,15h1.37v.41h-5v-.41h1.8l-1.31-4.45H26.92Zm.64-2.12h4.38l-2.17-7.38Z"/><path class="cls-1" d="M77.21,123.43a2.74,2.74,0,0,0-.07.27s0,.14,0,.28l0,.56a1.64,1.64,0,0,0,.41,1.18,1.52,1.52,0,0,0,1.13.42H79v.41H74.4v-.41a2.19,2.19,0,0,0,1.44-.73,7,7,0,0,0,1.06-2.31l3.59-12H81l4.54,15h1.36v.41h-5v-.41h1.79l-1.3-4.45H77.73Zm.65-2.12h4.37l-2.16-7.38Z"/><path class="cls-1" d="M184.92,126.53v-.4H187V111.72h-.32a3.07,3.07,0,0,0-2.72,1.41,6.24,6.24,0,0,0-.79,1.81,9.63,9.63,0,0,0-.34,2.66h-.24v-6.26h10.75v6.26h-.25a9.74,9.74,0,0,0-1.22-4.62,3.49,3.49,0,0,0-3-1.26h0v14.42h2.08v.4Z"/><path class="cls-1" d="M247.75,126.54v-.4h2.06V111.73h-.32a3.05,3.05,0,0,0-2.71,1.41,6,6,0,0,0-.8,1.81,10,10,0,0,0-.33,2.66h-.24v-6.26h10.74v6.26h-.25a9.88,9.88,0,0,0-1.21-4.62,3.5,3.5,0,0,0-3-1.26h0v14.42h2.08v.4Z"/><path class="cls-1" d="M198.69,126.13h2.08v.4h-6v-.4h2.08v-14.4h-2.08v-.4h6v.4h-2.08Z"/><path class="cls-1" d="M41.46,111.35v.4H39.38v14.39h1.88a3.89,3.89,0,0,0,3.29-1.53,10.54,10.54,0,0,0,1.59-4.88h.24v6.82H35.51v-.41h2.07V111.75H35.51v-.4Z"/><path class="cls-1" d="M239.21,111.34v.4h-2.07v14.4H239a3.87,3.87,0,0,0,3.28-1.54,10.27,10.27,0,0,0,1.59-4.88h.24v6.82H233.26v-.4h2.08v-14.4h-2.08v-.4Z"/><path class="cls-1" d="M99.27,111.33h6.58a5.05,5.05,0,0,1,4.48,2.17,10,10,0,0,1,1.34,5.6,9.24,9.24,0,0,1-1.38,5.14,4.56,4.56,0,0,1-4,2.3h-7v-.39h2.07V111.74H99.27Zm3.88,14.82h3.22a3.7,3.7,0,0,0,.74-.13c.86-.22,1.55-1.23,2-2.93a14.23,14.23,0,0,0,.43-4c0-4-.69-6.37-2.07-7a3.85,3.85,0,0,0-1.61-.32h-2.76Z"/><path class="cls-1" d="M256.89,111.33h6.58A5.05,5.05,0,0,1,268,113.5a10,10,0,0,1,1.34,5.6,9.24,9.24,0,0,1-1.38,5.14,4.56,4.56,0,0,1-4,2.3h-7v-.39H259V111.74h-2.07Zm3.88,14.82H264a3.7,3.7,0,0,0,.74-.13c.86-.22,1.55-1.23,2-2.93a14.23,14.23,0,0,0,.43-4c0-4-.69-6.37-2.07-7a3.85,3.85,0,0,0-1.61-.32h-2.76Z"/><path class="cls-1" d="M170.05,126.08l-.29.12-.18,0a.87.87,0,0,0-.23,0h-.2a1.29,1.29,0,0,1-.93-.33,2.63,2.63,0,0,1-.52-1.15c0-.08,0-.15,0-.21s0-.15,0-.26a2.3,2.3,0,0,1,0-.39v-1.11c0-.42,0-1.06-.06-1.39s0-.41-.07-.51a3.34,3.34,0,0,0-.07-.33,2.87,2.87,0,0,0-1.59-2.05,2.55,2.55,0,0,0-.48-.2,6.24,6.24,0,0,0-1.69-.22,2.86,2.86,0,0,0,1.86-2.3c.09-.68.08-.83.12-1.36a8,8,0,0,1,.46-2.54c.1-.21.23-.31.38-.31s.32.06.32.18a7.31,7.31,0,0,1-.07.86,7.38,7.38,0,0,0-.08.85,1.36,1.36,0,0,0,.25.83.78.78,0,0,0,.64.32c.65,0,1-.55,1-1.67a2.45,2.45,0,0,0-.4-1.4,1.17,1.17,0,0,0-1-.6,2,2,0,0,0-.78.13c-.47.22-.78.86-.92,1.94-.06.66-.09.56-.2,2a2.85,2.85,0,0,1-2.3,2.9H161v-6.21h2.08v-.4h-6v.4h2.08v14.4h-2.08v.4h6v-.4H161v-7.77h1.56a4.21,4.21,0,0,1,2.59.68,4.84,4.84,0,0,1,.53,2.74,8.24,8.24,0,0,0,.69,4,2.71,2.71,0,0,0,2.41,1h0a1.79,1.79,0,0,0,.34,0l.33-.05a2.86,2.86,0,0,0,.58-.21v-.42Z"/><path class="cls-1" d="M222,120.21v.4h1.53v2.22a4,4,0,0,1-.69,2.23,2.75,2.75,0,0,1-2.43,1.35h-.1a2.57,2.57,0,0,1-1.51-.53,3.92,3.92,0,0,1-1.18-1.42,4.64,4.64,0,0,1-.46-1.57,30,30,0,0,1-.13-3.47v-.49c0-1.06,0-1.94.05-2.65s.09-1.26.15-1.64a4.65,4.65,0,0,1,.72-1.85,3.16,3.16,0,0,1,1.06-1,2.65,2.65,0,0,1,1.23-.34h.23c1.91,0,3.79,1.53,4,4.53h.28v-5h-.4q-.13.72-.75.72a3.14,3.14,0,0,1-.89-.24,10.22,10.22,0,0,0-1.68-.42,5.85,5.85,0,0,0-.84,0,4,4,0,0,0-2.34.87,6.79,6.79,0,0,0-1.9,2.49,10.23,10.23,0,0,0-.73,2.23,12,12,0,0,0-.25,2.48,13.58,13.58,0,0,0,.1,1.63,10.57,10.57,0,0,0,.32,1.46,7.88,7.88,0,0,0,1.25,2.51,5.31,5.31,0,0,0,1.69,1.49,4.1,4.1,0,0,0,2,.53h.05a3.87,3.87,0,0,0,2.75-1.26c.77-.7,1.06-.81,1.39-.81s.5.28.5.9h.32l0-5h1.53v-.4Z"/></svg>