<svg id="Layer_1" data-name="Layer 1" xmlns="http://www.w3.org/2000/svg" viewBox="0 0 242.83 77.87"><defs><style>.cls-1{fill:#e669a2;}.cls-2{fill:#f3be26;}.cls-3{fill:#ee9c34;}.cls-4{fill:#f3bc87;}.cls-5{fill:#e3721c;}.cls-6{fill:#ad1b02;}.cls-7{fill:#e88d14;}.cls-8{fill:#d85604;}.cls-9{fill:#c14303;}.cls-10{fill:#db4e18;}.cls-11{fill:#d1390d;}.cls-12{fill:#c22303;}</style></defs><title>pwc_logo</title><path id="path4061" class="cls-1" d="M242.83,68H166.94V48.58h75.89Z"/><path id="path4103" class="cls-2" d="M233,68H167.15V19.39H233V68Z"/><path id="path4089" class="cls-3" d="M205.72,68H166.94V0h38.78Z"/><path id="path4075" class="cls-4" d="M213.23,68H166.94V7.51h46.29Z"/><path id="path4688" class="cls-5" d="M166.94,7.51V67.76h38.78V7.51Z"/><path id="path4119" class="cls-6" d="M128.16,67.76h38.78v9.8H128.16v-9.8Z"/><path id="path4698" class="cls-7" d="M166.94,19.39V68h46.29V19.39Z"/><path id="path4693" class="cls-8" d="M166.94,19.39V68h38.78V19.39Z"/><path id="path4117" class="cls-9" d="M191.13,68H166.94V38.78h24.19V68Z"/><path id="path4713" class="cls-10" d="M166.94,48.58V68H233V48.58Z"/><path id="path4708" class="cls-11" d="M166.94,48.58V68h46.29V48.58Z"/><path id="path4703" class="cls-12" d="M166.94,48.58V68h38.78V48.58Z"/><path id="path4625" class="cls-6" d="M166.94,48.58V68h24.19V48.58Z"/><g id="g2925"><path id="path2850" d="M141.6,23.93c-6.63,1.18-10.16,6.18-10.16,14.87,0,8.84,4.71,14.73,11.63,14.73,3.39,0,6.33-1.18,12.52-4.27v7.21c-7.51,3.54-11.93,4.42-17.82,4.42-6.63,0-11.34-1.62-15-5.59a20.11,20.11,0,0,1-5.89-14.58c0-12.52,9.42-21.21,23.12-21.21,9,0,15.31,4.27,15.31,10.31,0,4-2.94,6.77-7.21,6.77-2.21,0-4-.73-6.48-2.06"/><path id="path2852" d="M108.35,40.72c6-7.51,8.25-10.61,8.25-14.29a7,7,0,0,0-7.07-6.92,8,8,0,0,0-5.6,2.5V37.47l-9.82,13.2V20.78H84.66L69,46.56V20.78H63.72L49.56,24v3.69l7.74.73V60.31h9.87l15-24.74V60.31H93.27"/><path id="path2862" d="M19.66,55.29h2.21c8,0,12.37-4.86,12.37-14.58,0-8.1-3.54-12.52-10.16-12.52a24.06,24.06,0,0,0-4.42.59V55.29Zm0,17.38,6.48,1.48v3.72H.63V74.2l5.85-1.47V28.31H0V24.55l15.52-4.81h4.14v5.37C26.87,20.69,29.38,20,33.21,20c8.54,0,15,8,15,19,0,12.66-8.69,21.35-21.95,21.35-1.47,0-4-.14-6.62-.29"/></g></svg>