<svg id="Layer_1" data-name="Layer 1" xmlns="http://www.w3.org/2000/svg" xmlns:xlink="http://www.w3.org/1999/xlink" viewBox="0 0 177.18 131.37"><defs><style>.cls-1{fill:none;}.cls-2{fill:#2f9a41;}.cls-3{clip-path:url(#clip-path);}</style><clipPath id="clip-path"><polyline class="cls-1" points="-201.14 710.88 -201.14 115.6 640.75 115.6 640.75 710.88"/></clipPath></defs><title>sberbank_logo</title><path class="cls-1" d="M96.31,120.85a7.43,7.43,0,0,0,1.45-.89A4.74,4.74,0,0,0,98.85,118a12.15,12.15,0,0,0,.37-3.4c0-2.14-.38-3.71-1.19-4.65a5.12,5.12,0,0,0-4-1.45H91.93v10.12c0,.51.12.88.12,1.2a.87.87,0,0,0,.32.69,1.19,1.19,0,0,0,.8.32c.29.06.84.06,1.38.19A9.3,9.3,0,0,0,96.31,120.85Z"/><polygon class="cls-1" points="115.21 102.58 111.72 112.33 118.37 112.33 115.21 102.58"/><path class="cls-1" d="M76.85,109.61a10,10,0,0,0,.88-4.66,9.64,9.64,0,0,0-.31-2.51,6.53,6.53,0,0,0-1-1.63A4.21,4.21,0,0,0,75,99.93a15.19,15.19,0,0,0-1.77-.19c-.54,0-.77.12-1.08.12a.79.79,0,0,0-.55.19.56.56,0,0,0-.19.38.85.85,0,0,0-.12.54v10.27h2.45A3.25,3.25,0,0,0,76.85,109.61Z"/><path class="cls-1" d="M34.12,120A4.85,4.85,0,0,0,35.21,118a12.15,12.15,0,0,0,.37-3.4c0-2.14-.38-3.71-1.19-4.65a5.14,5.14,0,0,0-4-1.45H28.28v10.12c0,.51.13.88.13,1.2a.87.87,0,0,0,.32.69,1.09,1.09,0,0,0,.8.32,13.51,13.51,0,0,1,1.38.19,8.62,8.62,0,0,0,1.76-.19A7.43,7.43,0,0,0,34.12,120Z"/><path class="cls-2" d="M2.69,119.78a10.3,10.3,0,0,0,3.59,2.45,13.72,13.72,0,0,0,5.15.88c1,0,2-.12,2.72-.19a11.19,11.19,0,0,0,2.27-.54c.69-.19,1.25-.51,1.82-.69a12.69,12.69,0,0,1,1.38-.69l-.7-1.48c-.38.19-.76.38-1.2.55s-.83.35-1.26.5a5.91,5.91,0,0,1-1.57.31,9.57,9.57,0,0,1-2.07.13,6.72,6.72,0,0,1-3.59-.88A7.07,7.07,0,0,1,7,117.87a11.36,11.36,0,0,1-1.09-3.4,30.57,30.57,0,0,1-.32-4.27c0-1.2.13-2.46.19-3.71a9.31,9.31,0,0,1,.9-3.28,6.88,6.88,0,0,1,1.95-2.46,6.54,6.54,0,0,1,3.52-1,6,6,0,0,1,3.52,1.08,4.76,4.76,0,0,1,1.83,3.34H19V99.34c-.5-.19-1-.37-1.57-.54a8.89,8.89,0,0,0-1.83-.38c-.69-.12-1.25-.12-1.94-.19s-1.2-.12-1.64-.12A15.92,15.92,0,0,0,6.59,99a9.37,9.37,0,0,0-5.84,6.53,17.54,17.54,0,0,0-.7,5.34,16.28,16.28,0,0,0,.7,5.1A8.79,8.79,0,0,0,2.69,119.78Z"/><path class="cls-2" d="M98.2,122.32a8.43,8.43,0,0,0,3.21-1,5.32,5.32,0,0,0,2.26-2.45,9.43,9.43,0,0,0,.88-4.4,9,9,0,0,0-.54-3.4,5.61,5.61,0,0,0-1.82-2.32,8.92,8.92,0,0,0-3.34-1.26,27.21,27.21,0,0,0-5,0h-2v-6.26a1.48,1.48,0,0,1,.36-1.17,3.23,3.23,0,0,1,1.54-.18h2.88a11.66,11.66,0,0,1,2.21.12,2.52,2.52,0,0,1,1.35.49,2.86,2.86,0,0,1,.86,1.17,13.28,13.28,0,0,1,.67,2h1.55V98.19H84.85v1a4.72,4.72,0,0,0,.84.13c.32.12.51.19.55.31a2.29,2.29,0,0,1,.31.55,1.86,1.86,0,0,1-.06,1v18.62a1.08,1.08,0,0,1,.06,1c0,.32-.12.5-.31.55a.85.85,0,0,1-.55.31,1.63,1.63,0,0,1-.84.13v.89h9.4C95.57,122.52,96.89,122.46,98.2,122.32Zm-5.83-1.79a.87.87,0,0,1-.32-.69c0-.32-.12-.69-.12-1.2V108.52H94A5.12,5.12,0,0,1,98,110c.81.94,1.19,2.51,1.19,4.65a12.15,12.15,0,0,1-.37,3.4A4.74,4.74,0,0,1,97.76,120a7.43,7.43,0,0,1-1.45.89,9.3,9.3,0,0,1-1.76.19c-.54-.13-1.09-.13-1.38-.19A1.19,1.19,0,0,1,92.37,120.53Z"/><path class="cls-2" d="M72.34,121.47c-.14,0-.21-.12-.55-.12s-.55-.19-.59-.32-.21-.31-.35-.54-.14-.55-.14-1v-6.61h2.46a21.57,21.57,0,0,0,3.59-.31,8.61,8.61,0,0,0,3-1.09,5.42,5.42,0,0,0,2.08-2.34,9,9,0,0,0,.76-4,9.64,9.64,0,0,0-.69-3.72,5.69,5.69,0,0,0-4.8-3,26.72,26.72,0,0,0-3.34-.19H64.73v.75c.14,0,.21.12.55.12s.55.19.6.32a2.22,2.22,0,0,1,.34.54c0,.32.14.55.14,1v18.51a2.2,2.2,0,0,1-.14,1c0,.31-.13.5-.34.54a1,1,0,0,1-.6.31,1.17,1.17,0,0,1-.55.13v.69h7.55ZM71.26,101a.85.85,0,0,1,.12-.54.56.56,0,0,1,.19-.38.79.79,0,0,1,.55-.19c.31,0,.54-.12,1.08-.12a15.19,15.19,0,0,1,1.77.19,4.21,4.21,0,0,1,1.44.88,6.53,6.53,0,0,1,1,1.63,9.64,9.64,0,0,1,.31,2.51,10,10,0,0,1-.88,4.66,3.25,3.25,0,0,1-3.14,1.63H71.26Z"/><polygon class="cls-2" points="72.34 121.43 72.34 121.47 72.34 121.47 72.34 121.43"/><path class="cls-2" d="M61.46,116.68H59.6a21.32,21.32,0,0,1-.53,2.2,2.26,2.26,0,0,1-.74,1.22,1.78,1.78,0,0,1-1.34.48,11.84,11.84,0,0,1-2.38.12,10.16,10.16,0,0,1-2.2-.12,3.8,3.8,0,0,1-1.22-.36,1,1,0,0,1-.48-.74,3.77,3.77,0,0,1-.12-1.34V110.7H54.8c.37,0,.76.11,1.2.11a11.77,11.77,0,0,1,1.19.18,4.48,4.48,0,0,1,1,.35v-2.92a2.39,2.39,0,0,1-1,.35,21.07,21.07,0,0,1-2.39.29H50.59v-8a3.21,3.21,0,0,1,.18-1.07c.19-.18.5-.18,1-.18h2.59a11.6,11.6,0,0,1,2.2.12,2.7,2.7,0,0,1,1.35.49,2.63,2.63,0,0,1,.86,1.17,13,13,0,0,1,.68,2h1.49V98.19H44.06v.75c.14,0,.21.13.55.13s.55.19.6.31a2.1,2.1,0,0,1,.34.55c0,.31.14.54.14,1v18.56a2.14,2.14,0,0,1-.14,1c0,.32-.13.5-.34.55a1,1,0,0,1-.6.31,1.31,1.31,0,0,1-.55.13v1.18h17.4Z"/><path class="cls-2" d="M34.87,122.32a8.43,8.43,0,0,0,3.21-1,5.86,5.86,0,0,0,2.33-2.45,9.31,9.31,0,0,0,.88-4.4,9,9,0,0,0-.54-3.4,5.61,5.61,0,0,0-1.82-2.32,8.92,8.92,0,0,0-3.34-1.26,27.21,27.21,0,0,0-5,0H28.28v-6.26a1.52,1.52,0,0,1,.37-1.17,3.23,3.23,0,0,1,1.54-.18h2.88a11.66,11.66,0,0,1,2.21.12,2.77,2.77,0,0,1,1.35.49,2.86,2.86,0,0,1,.86,1.17,13.28,13.28,0,0,1,.67,2h1.55V98.19H21.76v1a2.24,2.24,0,0,0,.66.13c.32.12.5.19.55.31a2.29,2.29,0,0,1,.31.55,9.19,9.19,0,0,1,.11,1v18.56a2.26,2.26,0,0,1-.11,1c0,.32-.12.5-.31.55a.85.85,0,0,1-.55.31,1.21,1.21,0,0,1-.66.13v1H31C32.43,122.51,33.61,122.51,34.87,122.32Zm-5.34-1.47a1.09,1.09,0,0,1-.8-.32.87.87,0,0,1-.32-.69c0-.32-.13-.69-.13-1.2V108.52h2.08a5.14,5.14,0,0,1,4,1.45c.81.94,1.19,2.51,1.19,4.65a12.15,12.15,0,0,1-.37,3.4A4.85,4.85,0,0,1,34.12,120a7.43,7.43,0,0,1-1.45.89,8.62,8.62,0,0,1-1.76.19A13.51,13.51,0,0,0,29.53,120.85Z"/><rect class="cls-2" y="129.19" width="176.78" height="2.18"/><path class="cls-2" d="M162.84,113.53a22.13,22.13,0,0,0,1.38,1.82c.38.55.89,1.2,1.26,1.77a15.76,15.76,0,0,0,1.26,1.77,16.63,16.63,0,0,1,1.26,2c.38.54.69,1.26,1,1.82l8.17.13c-.88-.89-1.63-1.77-2.51-2.65s-1.45-1.64-2-2.14c-.76-.89-1.45-1.64-2.08-2.34s-1.26-1.45-1.82-2.14a24.25,24.25,0,0,1-1.64-2.14c-.44-.69-1.09-1.58-1.57-2.33l.37-.5c.55-.76,1.26-1.58,2.08-2.52a29,29,0,0,1,2.46-2.84,35,35,0,0,1,2.54-2.63,22,22,0,0,1,2.26-1.83h-5.67a16.2,16.2,0,0,1-.88,1.77,15.75,15.75,0,0,1-1.39,2.24c-.5.75-1.09,1.63-1.57,2.51s-1.09,1.64-1.64,2.46a22.19,22.19,0,0,1-1.57,2.14c-.5.7-.89,1.2-1.2,1.64C161.83,112.14,162.33,112.84,162.84,113.53Z"/><path class="cls-2" d="M162.09,122c-.13,0-.21-.12-.55-.12s-.55-.19-.6-.32a2.15,2.15,0,0,1-.34-.54c0-.31-.14-.54-.14-1V101.53a2.27,2.27,0,0,1,.14-1c0-.32.14-.5.34-.55a2.85,2.85,0,0,1,.6-.31,1.31,1.31,0,0,1,.55-.13v-.81h-8.16v.75c.14,0,.21.13.56.13s.55.19.59.31a2.14,2.14,0,0,1,.35.55c0,.31.14.54.14,1V120a2.27,2.27,0,0,1-.14,1c0,.32-.14.5-.35.54a.94.94,0,0,1-.59.32,1.31,1.31,0,0,1-.56.12v.69h8.16Z"/><path class="cls-2" d="M109.67,119.61c.32-1.38,1.63-5.65,1.63-5.65h7.75l1.08,3.11a22.21,22.21,0,0,1,1.07,3.48,8.11,8.11,0,0,1,.5,2.11h5.8c-.31-.49-.54-1.18-1-1.93a30.71,30.71,0,0,1-1.37-3.36l-5.54-15.71a8.86,8.86,0,0,1-.5-1.74c-.12-.5-.12-.88-.19-1.19h-6.85v.5a3.19,3.19,0,0,0,.74.13c.31.12.5.19.54.31a4.3,4.3,0,0,1,.35.55v.5a4.71,4.71,0,0,1-.35,1.57l-3.9,9.56c-.69,1.76-1.38,3.33-1.82,4.46s-1,2.27-1.26,3-.69,1.45-1,2a6.58,6.58,0,0,0-.69,1.38h4.4A22.23,22.23,0,0,1,109.67,119.61Zm5.54-17,3.16,9.75h-6.65Z"/><path class="cls-2" d="M137.07,121.71v-.14H137c-.13,0-.2-.12-.52-.12s-.51-.2-.55-.32a2.39,2.39,0,0,1-.32-.56c0-.32-.13-.55-.13-1v-9.4h9.25v9.63a2.55,2.55,0,0,1-.14,1.06c0,.33-.14.52-.35.57a.9.9,0,0,1-.59.33,1.31,1.31,0,0,1-.55.13v.79h8.15v-.75c-.13,0-.2-.13-.55-.13s-.55-.18-.59-.31a2.08,2.08,0,0,1-.35-.54c0-.32-.14-.54-.14-1V101.35a2.27,2.27,0,0,1,.14-1c0-.31.14-.5.35-.54a2.59,2.59,0,0,1,.59-.32,1.3,1.3,0,0,1,.55-.12v-.64h-8.15v.74c.13,0,.2.13.55.13s.55.18.59.31a2,2,0,0,1,.35.53c0,.31.14.54.14,1v7.63h-9.25v-7.67a2.25,2.25,0,0,1,.14-1c0-.31.14-.49.34-.53a2.85,2.85,0,0,1,.6-.31,1.06,1.06,0,0,1,.55-.12v-.71h-8.16v.76c.14,0,.21.12.55.12s.55.19.6.32a2.18,2.18,0,0,1,.35.54c0,.32.13.54.13,1v18.61a2.33,2.33,0,0,1-.13,1c0,.31-.14.5-.35.54a1,1,0,0,1-.6.32,1.3,1.3,0,0,1-.55.12v.58h8.22Z"/><path class="cls-2" d="M123.9,15.76c-.92-1.25-1.83-2.51-2.63-3.77L72.14,40.21,48.42,26.61a16.67,16.67,0,0,0-1,4.57L72.36,45.62Z"/><path class="cls-2" d="M126.19,19.75l-54,31.08L46.66,36.21a11.41,11.41,0,0,0-.23,2.73,42.17,42.17,0,1,0,84.33,0A41.45,41.45,0,0,0,126.19,19.75Z"/><path class="cls-2" d="M117.84,8.45a47.9,47.9,0,0,0-3.77-3.2L72.14,29.59,51.92,18c-.68,1.26-1.37,2.63-2.18,4.12L71.91,35Z"/><path class="cls-2" d="M110,2.51A39.63,39.63,0,0,0,105,0L72.14,18.93,57.4,10.62a44.59,44.59,0,0,0-3,3.54L72,24.22Z"/></svg>