<svg id="Layer_1" data-name="Layer 1" xmlns="http://www.w3.org/2000/svg" viewBox="0 0 412.61 84.55"><defs><style>.cls-1{fill:#343433;}.cls-1,.cls-2{fill-rule:evenodd;}.cls-2{fill:#bf3936;}</style></defs><title>selectel_logo</title><g id="Page-1"><g id="selectel_red-gray" data-name="selectel red-gray"><path id="Fill-1" class="cls-1" d="M255.53,20.45a24.52,24.52,0,0,0-19.81,13.94,40.18,40.18,0,0,0-4,17.07,39.85,39.85,0,0,0,4,17,24.87,24.87,0,0,0,19.79,14,53.35,53.35,0,0,0,6.63.36,129.41,129.41,0,0,0,15.94-1.16l.52-.13V68.19s-8.53.6-13,.6c-5.57,0-8-.35-9-.65-6.29-1.81-6.91-11.33-6.89-15.3,0-.77,0-2,0-2.76,0-4.09.6-13.76,6.85-15.28a45.76,45.76,0,0,1,9.34-.68c4.47,0,12.74.32,12.74.32V21.31l-.51-.14a117.84,117.84,0,0,0-15.28-1.11A61.58,61.58,0,0,0,255.53,20.45Z"/><path id="Fill-2" class="cls-1" d="M396.61,0h16V83h-16Z"/><path id="E" class="cls-1" d="M113.61,45H89.47c.62-5.43,1.84-11.47,11.91-11.47,11.66,0,11.94,5.39,12.2,10.6l0,.57Zm-13-25C94,20,84.75,21.77,78.75,28.27,73.58,33.78,70.61,42,70.61,50.89v2.27A36.6,36.6,0,0,0,75,69.89c4.35,7.79,11.52,12.42,20.75,13.41a47.86,47.86,0,0,0,5.07.26,84,84,0,0,0,22-3.36l.77-.23V68.06s-14,1.55-18.7,1.69c-14.5.45-16.2-7.2-16.38-12.75l40.08,0V47c.08-8.75-1.85-15.23-6.64-19.8C116.2,21.57,107.62,20,101.43,20Z"/><path id="E-2" class="cls-1" d="M207.61,45H183.47c.62-5.43,1.84-11.47,11.91-11.47,11.66,0,11.94,5.39,12.2,10.6l0,.57Zm-13-25c-6.67,0-15.88,1.77-21.88,8.27-5.17,5.51-8.14,13.76-8.14,22.62v2.27A36.6,36.6,0,0,0,169,69.89c4.35,7.79,11.52,12.42,20.75,13.41a47.86,47.86,0,0,0,5.07.26,84,84,0,0,0,22-3.36l.77-.23V68.06s-14,1.55-18.7,1.69c-14.5.45-16.2-7.2-16.38-12.75l40.08,0V47c.08-8.75-1.85-15.23-6.64-19.8C210.2,21.57,201.62,20,195.43,20Z"/><path id="E-3" class="cls-1" d="M370.61,45H346.47c.62-5.43,1.84-11.47,11.91-11.47,11.66,0,11.94,5.39,12.2,10.6l0,.57Zm-13-25c-6.67,0-15.88,1.77-21.88,8.27-5.17,5.51-8.14,13.76-8.14,22.62v2.27A36.6,36.6,0,0,0,332,69.89c4.35,7.79,11.52,12.42,20.75,13.41a47.86,47.86,0,0,0,5.07.26,84,84,0,0,0,22-3.36l.77-.23V68.06s-14,1.55-18.7,1.69c-14.5.45-16.2-7.2-16.38-12.75l40.08,0V47c.08-8.75-1.85-15.23-6.64-19.8C373.2,21.57,364.62,20,358.43,20Z"/><path id="Fill-6" class="cls-1" d="M139.61,0h16V83h-16Z"/><path id="Fill-7" class="cls-2" d="M306.61,35h14V22h-14V1h-17V58h17V35"/><path id="Fill-8" class="cls-2" d="M39.71,53.08a7.07,7.07,0,0,1,3.67,3l.31.92H61.25l-.14-1.59C59.51,42.47,50.51,39.23,41.8,36.1c-2.92-1.05-8.13-2.79-11.93-4.07-2.11-.7-3.77-1.26-4.21-1.42-5-1.83-9.15-3.76-8.62-8.75.45-4.23,4-6,12.38-6s25.47,1.42,25.64,1.43l1.55.1V4.28l-1.2-.21C55.29,4,39.19,1.06,29.2,1h-.41c-7.26,0-13.28,1.22-17.9,3.64C3.66,8.43,0,15,0,24.11c0,10,6.56,16.74,21.94,22.38C26.05,48,37.25,52.11,39.71,53.08Z"/><path id="Fill-9" class="cls-1" d="M45.28,63.21c-2,4.28-7.72,4.79-13.45,4.79h-.69c-9.14,0-28.8-2-29-2L.61,65.83v15L1.76,81c.14,0,16.54,3.53,28.53,3.53C50.47,84.55,62,76.9,63.68,63l-18.4.1,8.47,2Z"/><path id="Fill-10" class="cls-1" d="M313.61,69c-4.73.19-7-1.33-7-5h-17c.14,12.88,9,18.23,17,19,1,0,1.63,0,2,0,5.48,0,13-1.47,13-1V69c0-.26-6,.19-8,0"/></g></g></svg>