<svg id="Layer_1" data-name="Layer 1" xmlns="http://www.w3.org/2000/svg" viewBox="0 0 517 63.63"><defs><style>.cls-1,.cls-2{fill:#ff7200;}.cls-1{fill-rule:evenodd;}</style></defs><title>sitimobil_logo</title><path class="cls-1" d="M0,27.71V13A4.18,4.18,0,0,1,1.4,9.85c2.3-2,6.84-6.12,9.34-8.37a2.59,2.59,0,0,1,3.49,0l9.34,8.36A4.17,4.17,0,0,1,25,13V27.69a3.18,3.18,0,0,1-3.16,3.18c-4.82,0-13.84,0-18.64,0A3.18,3.18,0,0,1,0,27.71ZM102.4,28V12.49a4.13,4.13,0,0,1,1.35-3.08l9.36-8.7a2.58,2.58,0,0,1,3.56,0c2.53,2.36,7.1,6.6,9.36,8.69a4.2,4.2,0,0,1,1.35,3.08V28a3.2,3.2,0,0,1-3.19,3.18H105.58A3.19,3.19,0,0,1,102.4,28ZM52.45,28V12.49a4.16,4.16,0,0,1,1.34-3.08c2.27-2.1,6.84-6.34,9.37-8.7a2.58,2.58,0,0,1,3.56,0c2.53,2.36,7.09,6.6,9.36,8.69a4.2,4.2,0,0,1,1.35,3.08V28a3.2,3.2,0,0,1-3.19,3.18H55.63A3.19,3.19,0,0,1,52.45,28Zm25,32.46V45a4.2,4.2,0,0,1,1.34-3.09c2.27-2.09,6.83-6.33,9.36-8.7a2.6,2.6,0,0,1,3.56,0c2.53,2.37,7.1,6.61,9.37,8.7A4.19,4.19,0,0,1,102.4,45v15.5a3.19,3.19,0,0,1-3.18,3.18H80.61A3.19,3.19,0,0,1,77.43,60.44ZM46.75,63.63H28.16A3.19,3.19,0,0,1,25,60.44V45a4.2,4.2,0,0,1,1.34-3.09c2.27-2.09,6.83-6.33,9.36-8.7a2.61,2.61,0,0,1,3.57,0c2.53,2.37,7.09,6.61,9.36,8.7A4.19,4.19,0,0,1,50,45V60.42A3.21,3.21,0,0,1,46.75,63.63Z"/><path class="cls-2" d="M288.34,53.64h-6.11v-30h10V40.05L293,40l16-16.32h5.65v30h-10V37L290,53.64Zm-71.88,0h-4.17v-30h10V40.05l-1.17,0,16.07-16.36h7.57v30h-10V37l-16.62,16.6Zm60.77-22.48h-10V53.64h-10V31.16h-10V23.67h30Zm-70.84,18a25.77,25.77,0,0,1-17.65,6.87,23.68,23.68,0,0,1,0-47.35,25.78,25.78,0,0,1,16.65,6l-5.82,7.19a15.12,15.12,0,0,0-10.51-4c-7.66,0-13.88,6.5-13.88,14.51S181.4,46.9,189.06,46.9a14.94,14.94,0,0,0,11.07-4.57Z"/><path d="M415.73,38.56c.55,5,3.34,9,9.19,9a8.54,8.54,0,0,0,8.81-9c0-4.87-3.27-8.21-8.05-8.21a12.35,12.35,0,0,0-1.52.11C422.06,30.85,417.55,32.28,415.73,38.56Zm-31.55,9.12a9.24,9.24,0,0,1-9-9,9.2,9.2,0,0,1,18.39,0A9.29,9.29,0,0,1,384.18,47.68Zm-22.08,6h-9.94V38.9l-8.7,12.24h-4.07L329.68,38.9V53.64h-7.49v-30h6.13l13.85,16.54L356,23.67h6.13v30Zm90.32,0h-5.35v-30h10V40.05l16.07-16.38h6.41v30h-10V37L454.07,53.64Zm64.58,0H507V31.16h-7.49V42.49c0,9.55-6.93,13.23-15,11.6V47c3.74,0,5-.78,5-5.62V23.67H517ZM428.86,23.8c8.42.88,13.38,6.52,13.38,16-.3,9.66-6.08,17.41-17,17.41-12.17,0-18.08-7.36-18.08-21.5,0-11.18,4.24-19.08,13.84-23,4.18-1.67,8.72-2.66,13-4.94l4.18,6.61c-5.17,5-19.34,3.33-23,14.44A15,15,0,0,1,423.47,24a14,14,0,0,1,3-.36h.11A13.16,13.16,0,0,1,428.86,23.8ZM384.18,21a17.64,17.64,0,1,0,17.93,17.72A17.83,17.83,0,0,0,384.18,21Z"/></svg>