<svg id="Layer_1" data-name="Layer 1" xmlns="http://www.w3.org/2000/svg" viewBox="0 0 439.4 256.4"><defs><style>.cls-1{fill:#d60058;stroke:#d60058;stroke-linecap:round;stroke-linejoin:round;stroke-width:1.11px;}.cls-2{fill:#005db9;}</style></defs><title>stada_logo</title><path id="path4762" class="cls-1" d="M.55,213.81s95.52,42,220.18,42,218.11-42.2,218.11-42.2-91.27,31.89-218.15,31.89S.55,213.81.55,213.81Zm0-171.22S96.07.55,220.73.55s218.11,42.2,218.11,42.2S347.57,10.86,220.69,10.86.55,42.59.55,42.59Z"/><path id="path4790" class="cls-2" d="M391.74,134.78l-15.78-30-16,30Zm23.49,23.09H403.68l-7.09-13.77H355.14l-7.09,13.77H336.49L369.38,95.7h13l32.88,62.17ZM300,148.54q9.26,0,15.21-6t5.95-15.36q0-10-6.38-16.08T298,105H268.17v43.52ZM297,95.7q16.13,0,25.54,8.57t9.41,23a28,28,0,0,1-10,22q-9.28,8.19-23,8.19H258V95.7Zm-74.56,39.08-15.78-30-16,30Zm23.5,23.09H234.38l-7.09-13.77H185.84l-7.09,13.77H167.19L200.08,95.7h13ZM173.58,105H143.83v52.85H133.61V105H104.3V95.7h69.28V105ZM86,110.3a61.26,61.26,0,0,0-28.05-7q-9.49,0-14.55,2.23t-5,6.16c0,2.74,1.79,4.74,5.39,6q3.84,1.36,12.57,1.88,12.83.85,16.94,1.37,11.63,1.55,17.19,5.73T96,138.53q0,9.84-8.72,15.23T62.2,159.15q-23.7,0-36.87-10.44L31,141.27a58.93,58.93,0,0,0,31.31,8.9q10.86,0,16.85-3,5.73-2.91,5.73-7.95,0-5.91-7.53-7.87-3.93-1-21.21-2.14-15.32-1-21.47-4.11-7.18-3.59-7.19-12.06,0-8.73,8.17-13.78t23-5q20,0,33.54,9.15L86,110.3Z"/></svg>