<svg id="Layer_1" data-name="Layer 1" xmlns="http://www.w3.org/2000/svg" viewBox="0 0 255.93 283.11"><defs><style>.cls-1{fill:#1f30c8;}</style></defs><title>unilever_logo</title><path class="cls-1" d="M33.23,249a46.69,46.69,0,0,1-2-6.53c-.74-4.88,1.82-8.1,4.17-8.84,2.63-.73,3.66.59,4.68,3.66,1.31,4.68,1.46,10.82,1,19.6-.58,12-6.58,26.47-21.49,26.17C6.77,282.82,1.07,274.48.48,261.76a58.49,58.49,0,0,1,2.63-20.47c1.32-4.54,2.5-6.16,6.59-7,3.21-.59,2.92,2.77,2.19,6.74-1.6,8.77-2.34,13-1.75,22.95.57,10.53,5.41,14.63,10.67,14.63,7.9.15,11.41-6.43,12.88-15.95C34.85,255,34,251.38,33.23,249Zm168.41,10.39c3.07,0,4,3.63,3.22,5.84s-3.36,4.68-7.45,5.41C196.52,268.48,196.08,259.43,201.64,259.43Zm-57.17,4.95c0-2.47-1.33-4.52-2.92-4.52-1.34,0-4.4,1.45-4.4,6.14a9.13,9.13,0,0,0,1.9,6.15C143.28,270.83,144.47,267.31,144.47,264.38ZM99,234.55a4.29,4.29,0,0,0-4.53-3.94c-2.78,0-5.39,2.91-5.11,6.57.17,2.41,1.6,4.4,4.39,4.4C96.93,241.58,99.26,237.92,99,234.55Zm23.79,8.59c-.26-4.09-1.25-5.93-3.45-5.78-2.91.17-4.25,9.34-3.66,19,.38,6.28,1.32,7.25,2.19,7.19C119.45,263.43,123.32,252.2,122.76,243.14Zm97,15.4c-1.82,7.52-7.31,18.58-15.51,18.58-1.9,0-5.27-.74-5.27-2.64,0-2.05,12.88-2.33,12.88-12.14,0-3.65-3.36-8.77-8.33-8.77-6.59,0-13,7.17-13,17.11,0,8.92,5.54,11.85,11.1,11.85,9.66,0,15.51-7.91,18.58-14.48,1.47,4.39,2.33,14.48,6,14.48,1.46,0,2.49-.74,4.24-4.68,4.38-9.81,8.63-21.07,14.48-21.07,2.19,0,.88,4,6.14,4a4.28,4.28,0,0,0,4.23-4.4c0-3.37-3.07-6-7.74-6-13.75,0-16.67,20.63-18.87,20.63-3.65,0-2.48-16.53-5.12-16.53C221.24,254.44,220.09,257.23,219.78,258.54Zm-117,17.55c2.19,0,6-.71,8.93-5.47-1.7-3.76-2.91-11.38-3.08-14.15-.87-14.18,4.59-27.52,10.57-27.88,4.38-.27,7.89,3.88,8.29,10.6,1.08,17.67-4.8,25-7.75,31.41.5,2.46,4.68,6.66,8.63,6.66a5.71,5.71,0,0,0,3.67-1.32,14.26,14.26,0,0,1-.6-4.24c0-10.24,6.59-18.87,12.29-18.87,4.54,0,7.17,6,7.17,9.95,0,4.67-4,8.48-9.8,12.14a7,7,0,0,0,4.54,1.76c8.34,0,12.7-10.1,15.94-19.32.58-1.75,1.61-4.24,3.65-4.24,3.51,0,5,23.11,10.82,23.11,2.49,0,4.53-5.12,4.53-9.06,0-2.93-1-3.22-1-7.46,0-4.68,2.49-8.62,5.86-8.62,2.05,0,2.79,2,2.79,4.52,0,9.36-6.74,26.77-16.67,26.77-7.47,0-6.89-12.88-9.52-12.88-2.94,0-7,13-21.5,13a9.32,9.32,0,0,1-6.88-3.51c-3.5,2.34-6.43,3.37-9.8,3.37-5.4,0-7.75-5.56-9.94-5.56-2.64,0-5.55,5.7-14.34,5.7-7,0-8.19-9.35-10.67-9.35-2.2,0-5.56,9.35-9.21,9.35-6.16,0-7.46-16.23-12.88-16.23-4.24,0-17.64,16.48-21.28,16.11-1.46-.15-2.08-1.25-1.92-2.71.2-2,1.94-7.44,2.65-10,1.18-4.45,2.27-9.33,2.88-10.88a3.88,3.88,0,0,1,3.52-2.57c.66.06.86,1.29,1.06,2.3.74,3.62,1.77,7.3,2.93,7.3,2.06,0,8.84-13,12.79-13,4.84,0,5.41,20.48,12,20.48,2.2,0,3.82-2.63,5.27-5.86.15-5.42,1.61-13.15,6-13.15,3.07,0,4.54,6.86,2.34,12.87,0,7.16,4.67,8.92,7.75,8.92"/><path class="cls-1" d="M204.65,46.73c-1.09,0-2.64,0-3.5-1.7-.7-1.4-.46-3.65-1.78-4.66a13.38,13.38,0,0,0,3.8.39c3.5,0,6.84-2.41,9.4-2.41a2,2,0,0,1,2.24,2.17C214.81,43.94,207.91,46.73,204.65,46.73Zm1.7,8.77c8.07,0,15.45-6.44,15.45-12.1,0-2.64-1.24-4.81-4.43-5.2a3.38,3.38,0,0,1,.78,2.48c0,4.27-6.51,9-13.58,9-2.56,0-3.34,1.78-3.34,2.71C201.23,54.57,203.33,55.5,206.35,55.5Zm-.62,3.26c1,7.37,12.19,17.31,15.21,17.08,2-.17,2.8-9.63,2.8-17.08,0-4.26.23-7.6-2-8.38-3.57,7.22-12.95,8.69-16,8.38"/><path class="cls-1" d="M31.05,107.58c2.64,0,2.09-16.15,6.36-16.15,1,0,1.32,1,1.32,2.26,0,3.64-1.78,9-1.78,12,0,1.47.39,1.94,1.08,1.94,1.87,0,5.13-17.78,8.31-17.78,1,0,1.47,1,1.47,2,0,3.73-4.73,14.44-4.73,17.46,0,.47.15.86.55.86,1.94,0,5.82-8.38,7-12.57.7-2.18,1.64-3.34,2.49-3.34s1.48.85,1.48,2.64c0,4.19-3.89,14-7.3,20.64-2.64,5.12-6.75,12.49-6.75,16.61,0,2.09.38,4.26,3.41,6.9-5-.31-7-.77-8.84-4.65-8.31,16.53,15.28,14.9,7.21,29.56-1.48-2.63-13.11-5.35-13.11-20.71,0-13.28,11.63-21,11.63-26.54a3.53,3.53,0,0,0-1.39-2.87c-2.56-2.18-2.64-4-4.66-4-1.47,0-3.26,3.41-1.4,6.44.63,1,1.17,1.63,1.17,2.56,0,2.17-3.42,8-5.82,8s-4.27-6-4.27-15.6c0-8.54,1.94-17.15,4.35-17.15.69,0,.93.47.93,1.09,0,1-.31,3-.31,6.44,0,3.65.85,4,1.55,4"/><path class="cls-1" d="M50.9,130.31c3.26,0,6-2.41,6-7.75v-7.92c0-3,.24-6.44,2.26-8.85a13.6,13.6,0,0,0-.24,3.11c0,6.67,3.73,11.25,3.73,17.69,0,2.4-.7,3.73-2.56,3.73s-1.63-1.63-2-1.63-.78,1-.78,2.09A4.2,4.2,0,0,0,61.68,135a5.33,5.33,0,0,0,5.05-5.43c0-7-5.43-14.75-5.43-22.19a17.51,17.51,0,0,1,1.55-7.15c0,15.45,13.11,26.7,13.11,33.14A2.58,2.58,0,0,1,73.25,136a2.53,2.53,0,0,1-2.64-2.49c0-.54-.08-.69-.31-.69-.47,0-1.86,1.55-1.86,3.57a5.81,5.81,0,0,0,6,5.67A6.88,6.88,0,0,0,81.24,135c0-8.14-15.91-20.49-15.91-33.68a18.16,18.16,0,0,1,2-8.69C57.1,99.19,53.92,108,53.92,115.65c0,6.68-.23,10-3.64,10-1.79,0-2.25-1.63-2.88-1.63-.46,0-.7,1.4-.7,1.78a4.26,4.26,0,0,0,4.2,4.5"/><path class="cls-1" d="M168.41,42.93c1-.66,5.36.39,11-2.41a4.22,4.22,0,0,1,2-.54c2.73,0,2,3.11,4.51,3.11,1.94,0,4.43-1.63,5.91-1.63,2.31,0,5.65,7.29,5.65,10.71,0,3.95-6,6.36-13,6.36-10.32,0-16.54-9-16.54-14.82A.85.85,0,0,1,168.41,42.93Zm16.92,9.86c3.42,0,6-1.55,6-2.49,0-.3-.46-.54-1.48-.54a41.66,41.66,0,0,1-6.83-.7c-3.27-.54-5.75-1.78-6.68-1.78-.31,0-.47.15-.47.38,0,2,3.73,5.13,9.48,5.13"/><path class="cls-1" d="M52.47,159.57c-2.56.62-6.68,4.65-6.68,11,0,7.59,8.15,19.32,21.58,19.32,11.33,0,14.12-7.84,14.12-13.12,0-11.72-7.21-20-16.6-20-5.12,0-9.71,3.73-9.71,9.24a12.85,12.85,0,0,0,13.12,12.8,6.53,6.53,0,0,0,6.9-6.66c0-3.5-3.18-8.31-7.83-8.31a2.28,2.28,0,0,0-2.41,2.4c0,1.86,2.56,3.73,5.74,3.73a4.24,4.24,0,0,0,1.71-.31,1.92,1.92,0,0,1,.24.93c0,1.79-1.71,2.88-4.35,2.88a7.6,7.6,0,0,1-7.76-7.62c0-2.79,2.41-4.8,5.9-4.8,6.9,0,11,6.13,11,12.26,0,5.51-3,8.69-9.23,8.69-12.42,0-18.46-11.18-15.75-22.51"/><path class="cls-1" d="M141.06,205a36.61,36.61,0,0,0,4.69-.31c1.16,0,1.24.7,1.24,1.17,0,1.71-3.8,3.8-10.56,3.8-4,0-6.36-2.1-7.06-4.42a30.61,30.61,0,0,1-15.6,4.73c-15.9,0-19.94-6.91-24.91-9.16-3.8-1.7-9.62,1.63-17.77-7.45a19,19,0,0,0,3.73.31c7.13,0,10.94-3.48,10.94-9.07a19.62,19.62,0,0,0-.16-2.17,15.36,15.36,0,0,1,8.31,11.17c.15.78,3.33,1.47,5.35,1.47,2.8,0,6.37-1.16,6.91-5.74,9.31-.77,15.6-6.28,16.92-13.27,3.33,1.09,7.14,4.11,8.07,5.67a13.87,13.87,0,0,1,4.65-.7,29.88,29.88,0,0,1,8.62,1.48c.15-1,.31-2.26,1.86-2.26,2.33,0,1.71,2.57,2.49,4,.38.78,2.33,1.24,2.33,2.8a2,2,0,0,1-2,2,3.23,3.23,0,0,1-.93-.15c-1.55.54-1.63,11.71-8.15,11.71-4.81,0-9.23-4-11.17-8.92a3.35,3.35,0,0,0-2.8-2.41c-1.24,0-1.94.24-3.41,1.87a27,27,0,0,1-19.79,8.53c-2.64,0-4.73-.24-5.28-.24-.31,0-.31.08-.31.16,0,.54,2.64,2.64,8.38,2.64,13.66,0,17-7.69,19.17-7.69a1.79,1.79,0,0,1,1.78,1.25C129.76,203.33,136.71,205,141.06,205Zm-6-15.51a3.11,3.11,0,1,0,3.1-3.11,3.12,3.12,0,0,0-3.1,3.11"/><path class="cls-1" d="M196.5,150.8c-1.09,0-2.25.86-2.25,3A4.93,4.93,0,0,0,197,158a4.85,4.85,0,0,0,2.25.62c2.25,0,4-.62,4-2.49C203.33,153.76,199.83,150.8,196.5,150.8Zm-8.37,4.81c-1.63,0-10.65,12-16.46,12-1.39,0-2.56-2.64-2.56-4.65,0-1.09.7-1.86,3.19-2.41,13.34-3,10.39-13,21.79-13,6.28,0,13.28,4.27,13.28,13.89,0,10.25-14.58,23-16.76,23-1.78,0-3.72-2.56-3.72-4.27,0-.54.23-1.24,1.78-1.86,7.44-3,11.71-9.78,11.71-13.27a1.38,1.38,0,0,0-1.4-1.55c-1.32,0-7,12.88-13.26,12.88-4.35,0-8.78-4-8.78-5.82,0-3.11,12.59-8.84,12.59-13.19,0-1.64-.78-1.71-1.4-1.71"/><path class="cls-1" d="M34.54,53.88a9.33,9.33,0,0,1-5,1.7,5.83,5.83,0,0,1-6-6,6.56,6.56,0,0,1,4.12-6.14,7.37,7.37,0,0,0-.08,1.32C27.56,49.22,30,52.55,34.54,53.88Zm16.61,14.9a14.7,14.7,0,0,0-3.49,8.92c0,4.19,2.56,7.68,6.52,7.68,3.8,0,5.59-3.26,5.59-6.59C59.77,73.59,55,69.94,51.15,68.78Zm-25.76,3.1a1.62,1.62,0,0,0-.24.85,1.66,1.66,0,0,0,1.47,1.48c.63,0,1-.16,1.32-.16,1.86,0,4,1.32,7,1.32a14.77,14.77,0,0,0,6.52-1.86c5.58-2.79,7.76-9.7,7.76-10.87C49.21,61.17,48,61.36,47,60s-.61-2.55-1.24-3.18c-.36-.36-1.47-.39-2.87-.54a17.09,17.09,0,0,0-1.71-.08,15.75,15.75,0,0,0-9,2.49C25.48,63,26.47,70.09,25.39,71.88Zm18.23-9.62c.54.73,2,1.63,2,2.17,0,1.08-.62,2.48-1.86,2.48-2.72,0-4.89-4.11-4.89-6.44,0-1.47.86-1.63,2-1.63a1.89,1.89,0,0,1,1.16.31C42.77,59.54,42.77,61.09,43.62,62.26Zm-7.14,9.46c-2.56,0-5.35-3.18-5.35-6,0-1.55,1.16-3.49,2-3.49.31,0,.47.23.55.78A8.83,8.83,0,0,0,39,70c.23.15.38.23.38.38C39.35,71,37.88,71.72,36.48,71.72Zm6.6-19.55a15.2,15.2,0,0,0,.7-4.51c0-3.72-1.71-9.38-7-9.38a5.17,5.17,0,0,0-5.2,5.27C31.59,49.69,37.72,52.17,43.08,52.17ZM23,83.21c0,5.89,1.79,8.69,5,8.69,2.48,0,5.82-1.79,9.77-5.2a34.2,34.2,0,0,1-7.45,1.16C27.48,87.86,25.31,86.78,23,83.21ZM25.7,76.3a5.71,5.71,0,0,0-.08,1.16c0,3.65,1.94,5.67,4.5,5.67,1.93,0,4.19-1.16,6.2-3.73a15.76,15.76,0,0,1-2.79.23C30.66,79.63,27.56,78.86,25.7,76.3Zm19-1.08c-1.79.46-5.51,2.63-5.51,6.51a4.57,4.57,0,0,0,4.89,4.58,5.08,5.08,0,0,0,3-.77,9.05,9.05,0,0,1-2.94-6.75A10.41,10.41,0,0,1,44.71,75.22ZM47.5,54a3.11,3.11,0,1,0,3.1-3.11A3.12,3.12,0,0,0,47.5,54Zm4,7a3.11,3.11,0,1,0,3.11-3.11,3.12,3.12,0,0,0-3.11,3.11"/><path class="cls-1" d="M172.61,99a3,3,0,0,1,2.93-2.87A3,3,0,1,1,172.61,99Zm-27.25-23.9a3.11,3.11,0,1,0,3.1-3.11A3.12,3.12,0,0,0,145.36,75.14Zm-2.63,10.94a4.42,4.42,0,1,0,4.42-4.43A4.46,4.46,0,0,0,142.73,86.08Zm9.78-5a4.73,4.73,0,1,0,4.72-4.73A4.7,4.7,0,0,0,152.51,81.11ZM152.9,71a2.94,2.94,0,1,0,2.93-2.94A2.95,2.95,0,0,0,152.9,71Zm14-7.44a3,3,0,1,0,2.95-3A2.95,2.95,0,0,0,166.94,63.58Zm-5.83,9.54a5,5,0,1,0,5-5A5,5,0,0,0,161.11,73.12Zm-8,18.16a3.1,3.1,0,1,0,3.09-3.1A3.1,3.1,0,0,0,153.13,91.28Zm10.16-6.21A3.11,3.11,0,1,0,166.4,82,3.11,3.11,0,0,0,163.29,85.07ZM160.42,96a5.36,5.36,0,1,0,5.35-5.35A5.36,5.36,0,0,0,160.42,96Zm11.18-6.6a3.64,3.64,0,1,0,3.63-3.64A3.64,3.64,0,0,0,171.6,89.41Zm-.24-9.78a3.26,3.26,0,1,0,3.25-3.25,3.29,3.29,0,0,0-3.25,3.25"/><path class="cls-1" d="M179.27,181.46a22.89,22.89,0,0,1-14.59,5c-4.19,0-6.05-1.32-6.67-1.32-.78,0-1.63.77-2.49,1.79-1.84,2.17-4.25,6.21-4.25,10.63,0,3.1,2.41,6.2,6.89,6.2,14.53,0,25.38-9.08,25.38-16.45C183.54,183.17,181.06,181.46,179.27,181.46Zm-4.68-.88a2.78,2.78,0,0,0,.77-2.23v-1.77c0-2.23-3.36-3.53-8-3.53-5.61,0-8.61,2.53-8.61,3.61v3.53c0,1.47,3.39,2.92,7.54,2.92A12.8,12.8,0,0,0,174.59,180.58Zm0,6.59c.39,0,.85.23.85,1.63,0,1.71-.77,4-3.55,5.74a15,15,0,0,1-8.47,2.48,18.24,18.24,0,0,0,1.09-5.65,16.82,16.82,0,0,0-.15-1.79h1a17.52,17.52,0,0,0,9.22-2.41"/><path class="cls-1" d="M145,93.46c.86,6.59,9.71,3.25,9.71,11.24,0,1.17-.31,2.88-.31,4.35,0,1.71.15,3.18,1.46,3.18s1.63-.93,1.63-2.17-.31-2.79-.31-3.65a3,3,0,0,1,3.11-3.33c3,0,5.2,3,9.63,3-1,5-11.26,3.65-11.26,9.08,0,2.72,2.71,3.34,4.5,3.34,1.63,0,2.18-.23,2.18-1.63,0-.78-.16-1.63-.16-2.17a.62.62,0,0,1,.62-.63c1.72,0,10.08,6.37,10.08,8.31,0,1.78-8.83,3.57-11.4,3.57a.83.83,0,0,1-.93-.86c0-.54,1.32-2.17,1.32-3.1,0-.7-1.16-1.16-4.27-1.16-1.48,0-2.57.15-2.57,1.32,0,2.09,3.42,4.65,3.42,6.59,0,1.55-.93,2.49-3.42,2.49-2.09,0-5.26-1.64-5.26-4.35,0-2.17,2.23-4.34,2.23-5.66a1.07,1.07,0,0,0-1.22-1c-2.88,0-3.65,7.6-13.83,8.45a7.75,7.75,0,0,0,3-6.43c0-1.63-.39-3-.39-4.74,0-2.33,1.09-3.49,2.64-3.49,2.87,0,4.27,4,6.14,4a2.24,2.24,0,0,0,2.09-2.32c0-5.9-11.33-5-11.33-13.35C142.1,100.13,142.87,97.33,145,93.46Zm37,22.73c0,1.94.62,4.19,2.56,4.19,1.63,0,3-2.48,3-5.2,0-3.1-.54-5.51-.54-6.75,0-.54.23-.78.54-.78,1.17.08,2.25,3.26,3.5,3.26s3.48-2.56,4.33-2.56c.23,0,.31.31.31.39,0,1.16-1.79,3.73-1.79,4.73s4.51,1,4.51,1.79c0,1.17-4.72,1.17-7,2.17s-3.5,2.1-3.5,3.65,1.55,1.86,3.73,1.86c5.18,0,8.83-2.79,10-2.79a.36.36,0,0,1,.39.39c0,.77-2.64,3.33-2.64,4.5s4.82,2.86,4.74,3.64c-.08.24-.39.31-.93.31-.86,0-2.18-.23-3.19-.23a1.8,1.8,0,0,0-1.4.39c-.54.62.16,4.73-.92,4.73s-3.65-9.15-9.62-9.15c-.85,0-1.47.7-1.47,1.86,0,3.1,3,6.67,5.9,8.38,1.3.85,3.48,1.71,3.48,2.18,0,.92-5,.07-5,1.62,0,1.4.62,3.5.62,4.74,0,.39-.07.85-.54.85-.93,0-3.19-4.27-4.27-4.27-.93,0-2.95,2.56-3.81,2.56a.43.43,0,0,1-.38-.46c0-1.79,2.87-5.82,2.87-9.78,0-1.86-.23-5.9-2.49-5.9-1.86,0-4,3-4.89,5.9-.54,1.71-.15,8.3-1.4,8.3s-.85-4.42-2.41-4.42c-1.14,0-3.63,2.09-4.48,2.09-.16,0-.32-.08-.32-.23,0-.93,2.26-4,2.26-4.58,0-1.16-5.13-1.31-5.13-2.25,0-.54,2-.93,3.88-1.24,3.95-.7,9.77-3.57,9.77-7.6,0-4.5-4.35-6.45-7.2-8.31-1.48-.93-3.11-1.7-3.11-2.32s1.86-.63,2.64-.63c1.16,0,2.31-.07,2.31-1,0-.71-.15-2.1-.15-3.19,0-.77.07-1.39.39-1.39,1.16,0,2.79,3.8,3.57,3.8,1.24,0,2.95-3.11,4.12-3.11.38,0,.54.24.54.93,0,2.88-1.47,6.13-1.47,8.93"/><path class="cls-1" d="M147.23,137.68c3.57.47,4.42,1.71,4.42,2.72,0,1.71-1.55,2.25-3,2.25-1.08,0-2.33-.23-3.65-.23a5.88,5.88,0,0,0-4.81,2,2.65,2.65,0,0,1,2.49,2.41c0,4.5-12.5.77-12.5,12.34,0,6.13,6.37,12.8,16,12.8,5,0,8.15-1.63,8.15-3.49,0-1.48-2.63-.47-2.63-1.71,0-.55.93-1.56.93-2.42,0-.37-.31-1.07-.93-1.07-1.41,0-4,2.24-9.4,2.24-4.19,0-8.31-2.4-8.31-5.66,0-.7.32-1.09.78-1.09s1.09.31,1.63.31.54-.31.54-1.16,0-3.26,1.47-3.26,4.28,5.43,15,5.43c3.56,0,10.47-.69,13-3a20.18,20.18,0,0,1-20.73,19.79c-14.51,0-22.27-11.65-22.27-22.36a22.84,22.84,0,0,1,23-22.65c3.41,0,6.29,1.16,6.29,2.63C152.66,136.53,147.61,135.28,147.23,137.68Zm23.82,4.12a4.57,4.57,0,0,1,.78,2.48c0,2.18-1.48,4.19-1.48,6.45a4.63,4.63,0,0,0,4.88,4.65,5.37,5.37,0,0,0,5.36-5.59C180.59,145.68,176.86,142.19,171.05,141.8Zm-25.69,5a3.13,3.13,0,0,1,1,2.32c0,1.17-.54,2.41-.54,3.73a3.41,3.41,0,0,0,3.41,3.49,3.62,3.62,0,0,0,3.66-3.72C152.9,149.64,149.86,146.77,145.36,146.77Zm10.32-13.2c8.15,1.55,12.58,7.69,12.58,13.43,0,4-2.49,7.6-6.84,7.6-4,0-6.82-2.71-6.82-7.06,0-3.26,2.55-6.67,2.55-10A6,6,0,0,0,155.68,133.57Zm4,10.33a1.87,1.87,0,0,0,1.87,1.94,2.14,2.14,0,0,0,2-2.33c0-1.63-1.48-3.88-2.88-3.88-.62,0-.38.93-.54,1.94-.08.77-.47,1.7-.47,2.33"/><path class="cls-1" d="M74.05,64c2.63,0,5.66-14.28,5.66-16.69,0-.62-.23-1.08-.78-1.08-2.4,0-5.74,13.58-5.74,16.61C73.19,63.42,73.34,64,74.05,64Zm19,4.27c1.93,0,4.11-7.45,4.11-12.11,0-1-.16-2.09-.63-2.09-1.63,0-4.34,7.68-4.34,11.87C92.2,67.61,92.59,68.31,93.06,68.31ZM80.4,61.4c.85,0,1.94-.93,4-3.18a20.52,20.52,0,0,0,.15-3.11c0-1.54-.62-3.25-1.55-3.25-2.33,0-3.5,6.21-3.5,7.84C79.48,60.62,79.94,61.4,80.4,61.4ZM91,58.22c0-1.32-.32-1.63-.62-1.63-.78,0-1.63.93-2.87,3,.15,2.79.62,4,1.39,4S91,60.94,91,58.22Zm6-9.16c5.13,0,7.45,4.43,7.45,9.39,0,2.17-.61,5.36-1.62,5.36s-.86-1.79-1-3.42c-.16-2.09-.55-2.56-1.25-2.56-1.32,0-2.17,3.11-2.17,6,0,1.78.31,3.8,1.71,3.8a2.86,2.86,0,0,0,1.94-.85c-.31,3.56-3,6.67-6.68,6.67-6.83,0-9.39-8-10.16-12.65-4.11,4.35-7.92,7.53-14.75,7.53-6.36,0-9.23-4.66-9.23-9.08,0-1.32.46-4.73,2.1-4.73,1.94,0,.23,6.36,4,6.36.93,0,2.64-.78,3.57-3.34a14.44,14.44,0,0,0,.85-4.58c0-2.1-.46-3.41-2-3.41a6.1,6.1,0,0,0-3.5,1.55,11.7,11.7,0,0,1,11.33-8.46c6.14,0,9.39,5.43,9.39,11.49a15.78,15.78,0,0,1-.23,2.64c2.64-4.35,6.29-7.69,10.24-7.69"/><path class="cls-1" d="M82.5,69.94c-3.34,0-3.49,4-3.49,12.18C76.52,76.77,72.42,71,67.6,71c-3.26,0-4.5,2.18-4.5,6a14,14,0,0,0,.24,2.63c.39-1.31,1.63-1.86,3.18-1.86,3.34,0,7.37,2.56,10,6.06a51.79,51.79,0,0,0-8.46-1.09,9.78,9.78,0,0,0-4.11.7c-2.25,1-5.28,4.35-5.28,9.39a15.16,15.16,0,0,0,.24,2.56c2.71-6,9.93-8.77,14.59-8.77a14.43,14.43,0,0,1,2.17.16c-2.41,2.17-3,6-3.11,8.53-.07,1.24-.54,1.33-1.4,1.33,0,2.55,2,6.36,2,8.3a1.62,1.62,0,0,1-.77,1.47c0,3.42,3.41,5.9,3.41,8.07a1.83,1.83,0,0,1-.39,1.25c.24,1.39,4,3.74,4.48,4.92.6,1.43,1.27,1.67,1.65,1.67,1.32,0,3.41-1.55,3.41-2.95a1.82,1.82,0,0,0-.69-1.24c-1.48-1.08-2.25-3.41-2.87-5a1.46,1.46,0,0,1-1.5-1.15c-.42-1.6-.44-4.6-1.06-6.38-1-.24-1.48-.63-1.48-2.72,0-1,.62-5,.62-6.37a1.1,1.1,0,0,1-1.08-1.24c0-2.48,2.48-4.42,3.18-7.6,4.42,3.25,5.51,6.59,5.51,9.54a20.42,20.42,0,0,1-.55,4.43c3.26-1.63,8.15-4,8.15-8.93,0-2.87-1.32-6-10.09-7.3a27.68,27.68,0,0,1,9-1.54c5,0,7.84,1.54,8.46,5a9.69,9.69,0,0,0,1.79-5c0-3.8-3.19-6.28-7.22-6.28-4.73,0-8.92,2.48-13.43,5.51,2-4.19,3.42-6.68,5.9-6.68a5.88,5.88,0,0,1,1.17.16c-.93-3.41-4.42-6.75-6.29-6.75"/><path class="cls-1" d="M213.25,125.89c3.89,0,7,5,7,10.94A24.39,24.39,0,0,1,212,154.6c-.08-10.47-12.9-7.14-12.9-14.74a5.15,5.15,0,0,1,5.13-5.43,7.87,7.87,0,0,1,5.83,2.1,6.88,6.88,0,0,1-2.1-5c0-3,1.86-5.67,5.26-5.67"/><path class="cls-1" d="M144,52.17c2,1.94,3.8,2.79,6,2.79.86,0,1.87-.23,2.41-.23.7,0,1.17.31,1.17.85a4.9,4.9,0,0,1-1.71,3,7.74,7.74,0,0,0,3,.54c4.41,0,9.45-2.79,9.45-9.77a10.28,10.28,0,0,1,1.48,5c0,8.46-6.21,11.72-11.94,11.72a16.73,16.73,0,0,1-6.07-1.25c-1.47,0-1.39,3-2.4,2.88-1.79-.31-3.41-4.27-3.41-8.46A12.37,12.37,0,0,1,144,52.17Zm11.72-5.67c-.62-1-2.94-1.55-4-1.55a6.26,6.26,0,0,0-6.21,4.58,7.31,7.31,0,0,1-.54-2.64c0-3.42,2.33-7.6,8-7.6,4.95,0,6.89,2.63,7.59,2.63s1.56-.77,2.18-.77c.85,0,.85,1.32.85,2.25,0,3.1-1.4,8.46-4.89,10.4a7.93,7.93,0,0,0-3.87-3.73,1.23,1.23,0,0,1-.78-1.16,3.14,3.14,0,0,1,1.7-2.41"/><path class="cls-1" d="M90,29.58c0,2.72,9.7,16,11.56,16,1.56,0,2.72-2.72,2.72-5a3.23,3.23,0,0,0-.46-1.7c-1.4-1.94-11.26-9.7-13.43-9.7A.43.43,0,0,0,90,29.58Zm-57-8c0,1.55-5.9,6.75-8,6.75-.78,0-1-.93-1-1.78,0-1.55.7-3.73,1.55-4.43,1-.93,3.34-1.39,5.12-1.39C31.75,20.74,33,21,33,21.59Zm71.79,4.5c0-4.66-12.59-13.11-12.73-16.76a1.41,1.41,0,0,1,.45-1c2.16-2.28,11.11-3.93,11.11-5.87,0-1-1.86-1-2.79-1-7.22,0-17.77,2.64-17.77,5.2S92.51,15.77,92.51,19c0,.85-.54,1.16-1.4,1.16-2.63,0-8.37-3.19-11.09-3.19-1.24,0-1.71.86-1.71,2.1,0,3.73,4.42,10.79,4.42,12.88,0,.23-.08.54-.39.54-1.39,0-8-7.75-10.32-7.75-.85,0-.93,1.16-.93,2.87V30.2c0,1.79-.08,2.88-.92,2.88-2,0-3-5.67-4.9-5.67S62.87,37.5,60.93,37.5c-2.25,0-.31-11.1-2.48-11.1-2.41,0-5.13,7.38-6.84,7.38-.62,0-.77-.63-.77-1.17,0-2.25,1.32-5.9,1.32-8.07,0-1.09-.31-1.71-1.24-1.71-2.65,0-8.76,4.69-10.2,3.76a.46.46,0,0,1-.2-.4C40.69,24.27,49,18.46,49,15.85S37.33,15,37.33,12c0-2.48,8.31-5,8.31-7.6,0-2.25-9.86-3.26-13.66-3.26-4.58,0-7.06.54-7.06,1.86,0,2,10.4,2.64,10.4,4.43s-10.79,6.28-10.79,8.92c0,2.33,15.21.15,15.21,2.57,0,2.63-13.27,14-13.27,17.84,0,.85.63,1.24,1.48,1.24,4,0,14.5-7.68,17.38-7.68,1,0,1.09,1.24,1.09,2.33,0,2-.7,5.12-.7,7.37,0,1.78.46,3,2,3,2.88,0,5.51-4.89,7.46-4.89,2.48,0,1,14.35,4.73,14.35,3.18,0,4.5-15.52,6.52-15.52s3.65,4.5,5.51,4.5c2.33,0,1.24-7.83,3.73-7.83,2.71,0,10.47,9.31,14,9.31,1.09,0,1.47-.86,1.47-1.94,0-4.12-5.74-13.43-5.74-16.37,0-.78.23-1,1.09-1,3,0,11.88,4.19,16.06,4.19C103.93,27.88,104.78,27.1,104.78,26.09Zm-9-15.36c0,1.39,4.89,4.42,7.14,4.42,1.32,0,1.71-1.79,1.71-3.65,0-2.32-1-2.4-3-2.4C99,9.1,95.77,9.8,95.77,10.73ZM77.53,2.81c0-.47-2.32-.93-5.5-.93-5,0-4.35,4.19-8.23,4.19s-3-4.35-8.15-4.35c-3.11,0-6,.55-6,1.24,0,.94,3.64.55,3.64,3.11,0,2.72-7.84,3.49-7.84,5.12,0,.55.62.78,1.4.78,1.71,0,4.42-.78,6.36-.78,1.09,0,2.1.23,2.1,1.24,0,1.94-4.19,5.44-4.19,7,0,.47.38.62.77.62,1.56,0,4.2-4,6.68-4,4.11,0,1.4,8.77,3.64,8.77s1.32-8.62,4.66-8.62c2.72,0,4.74,6,6.6,6a.88.88,0,0,0,.85-.93c0-1.63-2.33-5-2.33-7.14,0-1.32.94-1.94,2.18-1.94,1.78,0,4.19,1.09,5.5,1.09.47,0,.93-.16.93-.7,0-1.86-6.9-3.88-6.9-6.28s3.8-2.41,3.8-3.5"/><path class="cls-1" d="M215.12,15.39c0,6.9-5,12.18-14.12,13.65,1,.08,1.94.08,2.87.08,10.63,0,14.51-4.81,14.51-8.85A4.92,4.92,0,0,0,215.12,15.39ZM202,23.22c0-5.51-13.19-6.91-13.19-8.15,0-1,7.36-2.71,11.17-2.79-5.82-7.45-14.12-6.67-14.12-8,0-.78,6.22-2.34,11.95-2.34,4.81,0,9.31,1.09,9.31,4.74,0,2-1.63,4.12-1.63,7.22a2.87,2.87,0,0,0,3.11,3.18c2.41,0,2.95-2.56,2.95-5.28,0-2.25-.39-3.95-.39-5a5.16,5.16,0,0,1,5.42-5.43c2.64,0,3.27,1.16,7.15,1.16a5.9,5.9,0,0,0-2.87,4.58c0,3.26,2.1,5.51,2.1,12.19,0,12.25-11.49,16.6-25.54,16.6a80.27,80.27,0,0,1-12-.93c-.62-.08-.78-.23-.78-.62,0-1,5.52-1.56,5.52-6.52a39,39,0,0,0-.62-4.5.61.61,0,0,1,.62-.62c1.16,0,3.5,4.5,7.83,4.5A3.7,3.7,0,0,0,202,23.22ZM214.65,6.07a1.95,1.95,0,1,0,1.94-1.94,1.92,1.92,0,0,0-1.94,1.94"/><path class="cls-1" d="M207.76,77.77c0-1.62-4.12-1.78-4.51-6.36-.08-.69-.31-1.93-1.17-1.93-1.39,0-.31,4.26-1.86,4.26-3.57,0-4.73-7-6.05-7-.31,0-.68.23-.68,1.16s.15,1.4.15,2.4S193.41,72,192.48,72c-2.1,0-4-4.89-5.75-4.89a.71.71,0,0,0-.78.63c0,.93,1.55,2.63,1.55,3.49,0,1.86-5.05.85-5.05,2.41,0,.69.7.92,1.63.92,1.64,0,4.2-.69,5.52-.69.78,0,1.94.15,1.94,1.16s-2.79,2.48-2.79,3.49a.78.78,0,0,0,.85.7c2.1,0,5.81-3.65,8.45-3.65.46,0,1.63.24,1.63.94,0,1-2.64,2.78-2.64,4.26a.78.78,0,0,0,.7.85c1.39,0,3.25-3.64,5.9-3.64,1,0,2.48.39,3.26.39C207.52,78.4,207.76,78,207.76,77.77Zm2,37.64c1.24-3.87,2.79-6.59,5.34-10.78-2.55-1.32-9.31-4.12-9.31-8.7,0-5.35,6.68-9.54,8.06-9.54.63,0,.78.54.78,1.55,0,2.79-1.32,7.29-1.32,9.7,0,2.17,1.4,4.27,2.64,4.27s5-4.65,5-9.23A10.46,10.46,0,0,0,211.48,82c-2.1,0-5.9,3.41-14.83,3.41-16.68,0-20.49-16.53-20.49-23.75,0-.31.08-.38.15-.38a11.9,11.9,0,0,0,7.31,2c2.71,0,5.2-.7,9.16-.7,9.3,0,13.42,6.44,19.17,14.66,3.47,2.17,11.79,5.67,11.79,15.52,0,8.7-9.25,13.51-11.48,22.82,3.55-.39,5.65-6.75,9.3-6.75,1.87,0,2.72,1.47,2.72,3.8a16.93,16.93,0,0,1-5.67,11.72,5.72,5.72,0,0,0,.07-1.17c0-2.17-.85-5.27-3.34-5.27-3.86,0-5.1,4.19-7.28,7.68-2.25-7.91-5.28-15.06-10.71-19.4s-15-2-15-10.09c0-2.18,1.4-5.28,1.4-7.76a3.62,3.62,0,0,0-.62-2.25c7.46,2.79,4.81,7.76,9.4,12.88,2.86,3.26,10.78,6.37,15.36,19.79a15.73,15.73,0,0,0,.15-2.09c0-11.49-15.2-22.75-16.52-27.4,8.83,1,10.38,3.18,14.58,14.82.86,2.41,3.66,8.39,3.66,11.33"/><path class="cls-1" d="M167.33,33.31c-5.44,0-9-2.71-9-4.12A1.08,1.08,0,0,1,159.41,28c1.7,0,5.43,2.64,6.67,2.64.31,0,.54-.15.54-.62,0-1.4-1.32-3.73-1.32-4.89,0-.31.24-.54.7-.54,2.1,0,5.21.85,6.84.85.54,0,.7-.31.7-.62,0-1.71-5-5-5-6.05s6.27-2.33,6.27-3.8-8.53-.47-8.53-1.95c0-1.08,1.63-2.94,1.63-3.8,0-.39-.31-.54-.85-.54-.7,0-4.43,1.47-6,1.47-.78,0-1.71-.15-1.71-1.24,0-1.78,3-3.72,7.77-3.72,7.67,0,12.26,5.28,12.26,14.12C179.35,30.52,171.52,33.31,167.33,33.31ZM152.2,18.57c0-.86-3-2.49-3-3.42,0-.15.16-.23.39-.23.86,0,2.33.31,3.5.31,1,0,1.17-4.35,1.93-4.35.54,0,1.47,4.12,2.33,4.12s2.87-1.17,3.65-1.17c.15,0,.31.08.31.24,0,.54-1.94,2.63-1.94,3.25s4.35,1.56,4.35,2.18-4.43.7-4.43,1.4c0,.53,1.63,2.71,1.63,3.41a.21.21,0,0,1-.23.23c-.63,0-3-1.09-3.73-1.09s-2.24,3.19-2.94,3.19c-.23,0-.38-.32-.38-.7l-.16-3.11c0-.31-.15-.62-.54-.62-.93,0-2.72-.08-3.27-.08-.39,0-.54-.07-.54-.23C149.09,21.28,152.2,19.11,152.2,18.57Zm-2.26,12.72c1.25,0,1.48,3,1.71,4.81.16.93.32,1,.7,1,.94,0,2.41-3.57,3.41-3.57,1.47,0,5.43,4.11,12,4.11,9.39,0,18.24-6.6,18.24-18.23,0-11.25-7.93-17.85-18.86-17.85-5.2,0-9,2.56-11,2.56-1.22.08-3.09-3-4-3-.39,0-.78.77-.78,2.09,0,.85,0,3.57-.93,3.57-1.87,0-9.08-5.35-9.08-3.42s4.8,7.22,4.8,8.62-4.73,2.72-4.73,3.65c0,1.7,5,2,5,4.19s-5.28,3.88-5.28,5.51c0,1.32,5.28.39,5.28,2s-3.88,7.07-3.88,8.61c0,.39.07.39.38.39,1.48,0,5.9-5,7-5"/><path class="cls-1" d="M114.79,167.56a3.57,3.57,0,0,1-.86,2.25c-.85-1.55-3.26-2.32-4.35-2.32-8,0-5,11.56-13.5,11.56-3.57,0-3.88-.46-5.19-.46-.55,0-.86.23-.86.7,0,2,2.87,7,10.86,7s15.68-4.89,15.68-11a8,8,0,0,0-.7-3.17,2.27,2.27,0,0,1,1.79-.78c1.24,0,1.94,1.4,3.1,1.4a2.12,2.12,0,0,0,2.18-2.17,2.34,2.34,0,0,0-1.47-2.18,2.67,2.67,0,0,0,1.08-2.1,2.46,2.46,0,0,0-2.49-2.55,2.21,2.21,0,0,0-1.7.76c-.15-1.39-.93-2.71-2.41-2.71a2,2,0,0,0-2,2.18c0,1.23.86,2.25.86,3.56"/><path class="cls-1" d="M72.26,153.13c6.21,1.55,9.31,4.89,9.93,8.85.62,3.8,1.4,6.91,2.87,8.45a13.39,13.39,0,0,0,9.08,4.11c2.8,0,5-.92,5-3.49,0-2.79-3.8-9.08-9.39-9.08-.54,0-1.24.08-2,.08a3.74,3.74,0,0,1-2.33-.69c-1.24-1.09-1.63-6.91-4-10.41-2.56-3.88-5.35-5-9.15-5-2.72,0-5.75,1.47-5.75,3.64C66.59,151,67.29,151.89,72.26,153.13Zm21.65,17.38c-2.33,0-5.82-2.48-5.82-3.88A1.88,1.88,0,0,1,90,164.84c2,0,5.44,2.41,5.44,4.43,0,.54-.39,1.24-1.55,1.24"/><path class="cls-1" d="M86.77,110.06c0-5,11.8-7.6,11.8-13.74a10.13,10.13,0,0,0-1.09-4.11c4.11,2.25,7.14,6.06,7.14,9.16,0,5.35-5.59,7.84-5.59,11.18,0,3.88,6,4.5,6,9.31,0,4-5.67,8.53-5.67,13.65a7.75,7.75,0,0,0,7.06,7.76,18,18,0,0,1-4,.54c-7.84,0-15.91-6.43-15.91-14.12a13.25,13.25,0,0,1,4.11-9.54c2.18,1.86,4.35,3.1,5.75,3.1,1.24,0,1.79-.62,1.79-1.55C98.18,118.83,86.77,116.19,86.77,110.06Zm24.76,39.19c-2.67,1.22-3.73,1-3.73,3.73,0,1-.23,2.32-.23,3,0,.93.15,1.48,1.24,1.48,2.79,0,7.22-4.74,7.22-8.77,0-1.09-.63-1.55-1.32-1.55S113.39,148.4,111.53,149.25Zm-.31-5.59c0-3.49-7.22-3.57-7.22-8.85,0-1.32.85-3.56,2.56-6,.7,4,2.32,6.13,5.82,7.45,6.9,2.56,7.84,6.44,7.84,10.56,0,7-4.89,15.67-17.46,15.67-10.09,0-17.31-9-17.31-16.61,0-2.1.54-4.42,1.86-4.42,1.17,0,1.55.93,2.48,1.86,3.5,3.5,7.3,4.42,12.81,4.42,5,0,8.62-2,8.62-4.11"/><path class="cls-1" d="M56.26,145.34A3,3,0,1,1,53,142.75,3,3,0,0,1,56.26,145.34Zm-14.5,3.06a5.06,5.06,0,0,0,5.59,4.34,6.34,6.34,0,0,0,2.56-.77,4.78,4.78,0,0,0,5.52,3.71,4.92,4.92,0,0,0,4.49-5.5,5.56,5.56,0,0,0-.46-1.78s.37,0,.66-.1a5.17,5.17,0,0,0,4.46-5.49,5,5,0,0,0-5.43-4.55,5,5,0,0,0-2.57,1.05,5.23,5.23,0,0,0-5.87-3.85,5,5,0,0,0-4.22,5.64,5.42,5.42,0,0,0,.39,1.55l-.77.11a5.23,5.23,0,0,0-4.35,5.64"/></svg>