<svg id="Layer_1" data-name="Layer 1" xmlns="http://www.w3.org/2000/svg" xmlns:xlink="http://www.w3.org/1999/xlink" viewBox="0 0 283 283"><defs><style>.cls-1{fill:none;}.cls-2{clip-path:url(#clip-path);}.cls-3{fill:#009ee2;}.cls-4{fill:#fff;}</style><clipPath id="clip-path"><polyline class="cls-1" points="-201.14 459.43 -201.14 -135.85 640.75 -135.85 640.75 459.43"/></clipPath></defs><title>yota_logo</title><rect class="cls-3" width="283" height="283"/><path class="cls-4" d="M174.73,33.58a8.52,8.52,0,0,0-8.54,8.53V50.5a25.53,25.53,0,0,1-7.28,18,24.23,24.23,0,0,1-34.8,0,25.57,25.57,0,0,1-7.28-18V42.11a8.53,8.53,0,1,0-17,0V50.5A42.39,42.39,0,0,0,112,80.44a41.34,41.34,0,0,0,20.23,11.42L133,92v21.68l-.78.17A41.37,41.37,0,0,0,112,125.32a42.36,42.36,0,0,0-12.18,29.91v8.4a8.53,8.53,0,1,0,17,0v-8.4a25.46,25.46,0,0,1,7.28-17.93,24.18,24.18,0,0,1,34.8,0,25.42,25.42,0,0,1,7.28,17.93v8.4a8.51,8.51,0,1,0,17,0v-8.4a42.44,42.44,0,0,0-12.15-29.91,41.58,41.58,0,0,0-20.24-11.43l-.8-.17V92l.8-.18A41.36,41.36,0,0,0,171,80.44,42.36,42.36,0,0,0,183.21,50.5V42.11a8.51,8.51,0,0,0-8.48-8.53"/><path class="cls-4" d="M141.51,138.1A16.54,16.54,0,1,0,158,154.64a16.55,16.55,0,0,0-16.52-16.54"/><path class="cls-4" d="M191.89,231.3l5.33-13,5.35,13Zm9-24.24a3.86,3.86,0,0,0-3.66-2.65A3.81,3.81,0,0,0,193.6,207l-15,36.39a3.84,3.84,0,0,0,2.06,5,3.9,3.9,0,0,0,5-2.08l3-7.38h17l3,7.4a3.92,3.92,0,0,0,3.57,2.35,3.42,3.42,0,0,0,1.49-.29,3.83,3.83,0,0,0,2.05-5Z"/><path class="cls-4" d="M96,204.76a4,4,0,0,0-5.29,1.78l-8.29,16.57-8.1-16.57a4,4,0,0,0-5.25-1.85A4,4,0,0,0,67.21,210l11.24,22.95v12a3.95,3.95,0,0,0,7.89,0V232.93L97.73,210A4,4,0,0,0,96,204.76"/><path class="cls-4" d="M123.24,241.29h0c-4.06,0-7.12-1.27-9.16-3.67s-3.12-6.19-3.11-10.75c0-5.59,1.67-15,12.35-15,7.68,0,11.58,5.09,11.58,15.09,0,6.93-3.06,14.31-11.61,14.31m0-37.53c-12.35,0-20.37,9.06-20.42,23.11,0,6.49,1.72,12,5,15.95,3.57,4.29,8.89,6.58,15.38,6.6h0c13.63,0,19.72-11.28,19.72-22.44,0-14.5-7.37-23.18-19.74-23.22"/><path class="cls-4" d="M175,204.48H150.77a3.93,3.93,0,1,0,0,7.85h8.1v32.41a4,4,0,0,0,4,3.95,3.88,3.88,0,0,0,2.82-1.18,3.81,3.81,0,0,0,1.15-2.77V212.33H175a3.93,3.93,0,0,0,0-7.85"/></svg>